<svg width="25" height="24" viewBox="0 0 25 24" fill="none" xmlns="http://www.w3.org/2000/svg">
<path d="M22.5 8.6901C22.5 9.8801 22.31 10.9801 21.98 12.0001H3.02C2.69 10.9801 2.5 9.8801 2.5 8.6901C2.5 5.6001 4.99 3.1001 8.06 3.1001C9.87 3.1001 11.49 3.9801 12.5 5.3301C13.51 3.9801 15.13 3.1001 16.94 3.1001C20.01 3.1001 22.5 5.6001 22.5 8.6901Z" fill="#A9ABAD"/>
<path opacity="0.4" d="M21.98 12C20.4 17 15.53 19.99 13.12 20.81C12.78 20.93 12.22 20.93 11.88 20.81C9.47002 19.99 4.60002 17 3.02002 12H21.98Z" fill="#9F9C96"/>
</svg>
