<svg width="500" height="500" viewBox="0 0 500 500" fill="none" xmlns="http://www.w3.org/2000/svg">
<path d="M500 382.4H0V382.65H500V382.4Z" fill="#EBEBEB"/>
<path d="M315.671 389.21H290.211V389.46H315.671V389.21Z" fill="#EBEBEB"/>
<path d="M455.439 394.62H395.109V394.87H455.439V394.62Z" fill="#EBEBEB"/>
<path d="M284.791 389.33H222.461V389.58H284.791V389.33Z" fill="#EBEBEB"/>
<path d="M182.04 396.81H169V397.06H182.04V396.81Z" fill="#EBEBEB"/>
<path d="M254.091 396.81H194.711V397.06H254.091V396.81Z" fill="#EBEBEB"/>
<path d="M90.9109 392.59H52.4609V392.84H90.9109V392.59Z" fill="#EBEBEB"/>
<path d="M237.001 337.8H43.9109C42.3983 337.797 40.9485 337.195 39.8798 336.124C38.8112 335.053 38.2109 333.603 38.2109 332.09V60.66C38.2241 59.156 38.8301 57.718 39.8974 56.6582C40.9646 55.5985 42.4069 55.0026 43.9109 55H237.001C238.515 55 239.968 55.6016 241.039 56.6724C242.109 57.7433 242.711 59.1956 242.711 60.71V332.09C242.711 333.604 242.109 335.057 241.039 336.128C239.968 337.198 238.515 337.8 237.001 337.8ZM43.9109 55.2C42.4646 55.2026 41.0784 55.7791 40.0566 56.8027C39.0348 57.8264 38.4609 59.2136 38.4609 60.66V332.09C38.4609 333.536 39.0348 334.924 40.0566 335.947C41.0784 336.971 42.4646 337.547 43.9109 337.55H237.001C238.448 337.547 239.835 336.971 240.859 335.948C241.882 334.924 242.458 333.537 242.461 332.09V60.66C242.458 59.2127 241.882 57.8255 240.859 56.8021C239.835 55.7787 238.448 55.2026 237.001 55.2H43.9109Z" fill="#EBEBEB"/>
<path d="M453.31 337.8H260.21C258.696 337.797 257.246 337.195 256.175 336.125C255.105 335.054 254.503 333.604 254.5 332.09V60.66C254.516 59.1551 255.124 57.7171 256.193 56.6576C257.262 55.5981 258.705 55.0025 260.21 55H453.31C454.812 55.0052 456.252 55.6022 457.317 56.6617C458.382 57.7212 458.987 59.1578 459 60.66V332.09C459 333.601 458.401 335.05 457.335 336.121C456.268 337.191 454.821 337.795 453.31 337.8ZM260.21 55.2C258.763 55.2026 257.375 55.7787 256.352 56.8021C255.329 57.8255 254.753 59.2127 254.75 60.66V332.09C254.753 333.537 255.329 334.924 256.352 335.948C257.375 336.971 258.763 337.547 260.21 337.55H453.31C454.757 337.547 456.145 336.971 457.168 335.948C458.191 334.924 458.767 333.537 458.77 332.09V60.66C458.767 59.2127 458.191 57.8255 457.168 56.8021C456.145 55.7787 454.757 55.2026 453.31 55.2H260.21Z" fill="#EBEBEB"/>
<path d="M195.961 295.67H129.561L125.531 249.17H191.931L195.961 295.67Z" fill="#E6E6E6"/>
<path d="M199.399 295.67H132.999L128.969 249.17H195.369L199.399 295.67Z" fill="#F0F0F0"/>
<path d="M142.079 285.68L139.859 259.15H186.289L188.509 285.68H142.079Z" fill="white" fill-opacity="0.5"/>
<path d="M210.892 295.67H203.102V382.4H210.892V295.67Z" fill="#E6E6E6"/>
<path d="M213.351 295.67H207.941V382.4H213.351V295.67Z" fill="#F0F0F0"/>
<path d="M137.942 305.24H213.352V295.67H137.942V305.24Z" fill="#F0F0F0"/>
<path d="M140.599 305.24H132.809V382.4H140.599V305.24Z" fill="#E6E6E6"/>
<path d="M143.058 305.24H137.648V382.4H143.058V305.24Z" fill="#F0F0F0"/>
<path d="M85.1494 305.24H77.3594V382.4H85.1494V305.24Z" fill="#E6E6E6"/>
<path d="M87.6092 305.24H82.1992V382.4H87.6092V305.24Z" fill="#F0F0F0"/>
<path d="M161.591 305.24H153.801V382.4H161.591V305.24Z" fill="#E6E6E6"/>
<path d="M164.039 305.24H158.629V382.4H164.039V305.24Z" fill="#F0F0F0"/>
<path d="M137.939 295.67H77.3594V305.24H137.939V295.67Z" fill="#E6E6E6"/>
<path d="M363.842 79.41H129.512V209.87H363.842V79.41Z" fill="#E0E0E0"/>
<path d="M376.711 79.41H130.691V209.87H376.711V79.41Z" fill="#F5F5F5"/>
<path d="M372.691 205.85V83.4301L134.711 83.4301V205.85H372.691Z" fill="white" fill-opacity="0.5"/>
<path d="M231.072 205.85L276.002 83.4301H201.852L156.922 205.85H231.072Z" fill="#F5F5F5"/>
<path d="M302.44 205.85L347.37 83.4301H291.43L246.5 205.85H302.44Z" fill="#F5F5F5"/>
<path d="M438.111 257.8H418.191V382.4H438.111V257.8Z" fill="#E6E6E6"/>
<path d="M432.869 382.4H438.109V372.81H427.379L432.869 382.4Z" fill="#FAFAFA"/>
<path d="M254.451 257.8H234.531V382.4H254.451V257.8Z" fill="#E6E6E6"/>
<path d="M438.109 257.8H249.879V379.81H438.109V257.8Z" fill="#FAFAFA"/>
<path d="M434.549 297.17H253.449V262.71H434.549V297.17ZM254.449 296.17H433.549V263.71H254.449V296.17Z" fill="#E6E6E6"/>
<path d="M402.67 279.44H288.84C283.56 279.44 278.47 275.18 274.84 267.74L274.5 267.03H417L416.66 267.74C413 275.18 408 279.44 402.67 279.44ZM276.14 268C279.52 274.63 284.14 278.41 288.84 278.41H402.67C407.39 278.41 411.99 274.63 415.37 268H276.14Z" fill="#E6E6E6"/>
<path d="M255.119 382.4H249.879V372.81H260.609L255.119 382.4Z" fill="#FAFAFA"/>
<path d="M434.549 336H253.449V301.58H434.549V336ZM254.449 335H433.549V302.58H254.449V335Z" fill="#E6E6E6"/>
<path d="M402.67 318.31H288.84C283.56 318.31 278.47 314.04 274.84 306.61L274.5 305.89H417L416.66 306.61C413 314 408 318.31 402.67 318.31ZM276.14 306.89C279.52 313.52 284.14 317.31 288.84 317.31H402.67C407.39 317.31 411.99 313.52 415.37 306.89H276.14Z" fill="#E6E6E6"/>
<path d="M434.549 374.9H253.449V340.44H434.549V374.9ZM254.449 373.9H433.549V341.44H254.449V373.9Z" fill="#E6E6E6"/>
<path d="M402.67 357.17H288.84C283.56 357.17 278.47 352.91 274.84 345.48L274.5 344.76H417L416.66 345.48C413 352.91 408 357.17 402.67 357.17ZM276.14 345.76C279.52 352.39 284.14 356.17 288.84 356.17H402.67C407.39 356.17 411.99 352.39 415.37 345.76H276.14Z" fill="#E6E6E6"/>
<path d="M120.98 274.28V276.7H119.44L118.16 295.67H99.32L98.05 276.7H96.5V274.28H120.98Z" fill="#E6E6E6"/>
<path d="M114.778 227.21C113.238 215.91 97.9881 212.69 78.6381 212.27C60.2281 211.88 54.3281 205.37 54.3281 205.37C54.3281 205.37 54.3881 231.74 80.9181 241.3C106.108 250.36 116.328 238.53 114.778 227.21Z" fill="#E6E6E6"/>
<path d="M105.38 252.82C105.7 248.18 113.12 239.64 130.97 243.52C143.87 246.33 148.67 239.64 148.67 239.64C148.67 239.64 147.47 258.52 128.07 264.19C109.64 269.58 104.81 261 105.38 252.82Z" fill="#E6E6E6"/>
<path d="M109.45 281.4C109.551 281.401 109.65 281.38 109.742 281.339C109.833 281.297 109.914 281.236 109.98 281.16C111.27 279.63 110.21 275.97 108.75 270.9C106.87 264.4 104.53 256.3 106.51 250.43C107.608 247.329 108.89 244.297 110.35 241.35C113.15 235.43 115.57 230.35 113.55 224.97C113.519 224.884 113.47 224.806 113.408 224.739C113.346 224.672 113.272 224.618 113.189 224.581C113.106 224.543 113.016 224.522 112.925 224.519C112.834 224.516 112.743 224.531 112.658 224.563C112.572 224.596 112.494 224.645 112.428 224.707C112.362 224.77 112.309 224.845 112.272 224.929C112.235 225.012 112.215 225.102 112.213 225.193C112.211 225.284 112.227 225.375 112.26 225.46C114.07 230.25 111.88 234.89 109.1 240.77C107.621 243.765 106.319 246.843 105.2 249.99C103.09 256.27 105.49 264.6 107.42 271.28C108.56 275.28 109.74 279.28 108.93 280.28C108.866 280.349 108.817 280.431 108.785 280.52C108.754 280.609 108.742 280.704 108.75 280.798C108.757 280.892 108.784 280.983 108.829 281.066C108.874 281.149 108.936 281.222 109.01 281.28C109.138 281.371 109.294 281.414 109.45 281.4Z" fill="#E6E6E6"/>
<path d="M249.999 427.56C357.082 427.56 443.889 422.492 443.889 416.24C443.889 409.988 357.082 404.92 249.999 404.92C142.917 404.92 56.1094 409.988 56.1094 416.24C56.1094 422.492 142.917 427.56 249.999 427.56Z" fill="#F5F5F5"/>
<path d="M249.961 361.05H107.961L100.191 132.68H242.191L249.961 361.05Z" fill="#136BFB"/>
<path d="M257.05 353.96H115.05L107.27 125.59H249.27L257.05 353.96Z" fill="#136BFB"/>
<path opacity="0.3" d="M257.05 353.96H115.05L107.27 125.59H249.27L257.05 353.96Z" fill="white" fill-opacity="0.5"/>
<path d="M209.474 219.564C224.679 204.097 224.032 178.807 208.03 163.076C192.028 147.346 166.73 147.131 151.526 162.598C136.322 178.064 136.968 203.355 152.97 219.085C168.973 234.816 194.27 235.03 209.474 219.564Z" fill="#136BFB"/>
<path d="M213.471 191.09C213.676 196.532 212.488 201.935 210.021 206.79C207.358 212.022 203.291 216.408 198.274 219.456C193.258 222.505 187.491 224.096 181.621 224.05C175.613 224.018 169.719 222.406 164.531 219.376C159.343 216.347 155.042 212.006 152.061 206.79C149.281 202.01 147.728 196.616 147.541 191.09C147.357 186.805 148.045 182.527 149.565 178.517C151.085 174.506 153.404 170.847 156.382 167.76C159.36 164.674 162.935 162.225 166.888 160.562C170.842 158.9 175.092 158.059 179.381 158.09C188.216 158.152 196.688 161.616 203.036 167.761C209.384 173.907 213.122 182.261 213.471 191.09Z" fill="white" fill-opacity="0.5"/>
<path opacity="0.6" d="M210.003 206.79C207.34 212.021 203.273 216.408 198.256 219.456C193.24 222.505 187.473 224.096 181.603 224.05C175.595 224.017 169.701 222.406 164.513 219.376C159.325 216.347 155.024 212.006 152.043 206.79C160.5 201.024 170.507 197.959 180.743 198C191.144 198.022 201.312 201.077 210.003 206.79Z" fill="#136BFB"/>
<path opacity="0.6" d="M190.775 190.268C196.366 184.58 196.128 175.281 190.244 169.497C184.36 163.712 175.057 163.634 169.467 169.321C163.876 175.008 164.114 184.307 169.998 190.092C175.882 195.876 185.184 195.955 190.775 190.268Z" fill="#136BFB"/>
<path d="M228.522 271.26H137.942L137.332 253.26H227.912L228.522 271.26Z" fill="white" fill-opacity="0.5"/>
<path d="M229.622 303.43H139.032L138.422 285.43H229.012L229.622 303.43Z" fill="white" fill-opacity="0.5"/>
<path d="M194.662 287.91L172.832 290.91C172.624 290.934 172.423 291 172.242 291.106C172.06 291.211 171.903 291.352 171.779 291.521C171.655 291.69 171.567 291.883 171.521 292.088C171.475 292.292 171.472 292.504 171.512 292.71L174.382 307.34C174.476 307.769 174.727 308.148 175.086 308.402C175.445 308.655 175.886 308.765 176.322 308.71L198.152 305.71C198.36 305.684 198.56 305.615 198.74 305.508C198.921 305.402 199.077 305.259 199.2 305.089C199.323 304.919 199.409 304.726 199.454 304.522C199.5 304.317 199.502 304.106 199.462 303.9L196.602 289.27C196.508 288.841 196.257 288.464 195.897 288.212C195.538 287.96 195.097 287.852 194.662 287.91ZM188.392 302.73L184.392 303.26L184.002 298.54C183.59 298.362 183.227 298.087 182.943 297.739C182.659 297.391 182.464 296.98 182.372 296.54C182.299 296.199 182.298 295.847 182.369 295.506C182.44 295.165 182.582 294.843 182.786 294.56C182.989 294.277 183.25 294.04 183.551 293.865C183.852 293.689 184.186 293.578 184.532 293.54C185.243 293.449 185.961 293.627 186.546 294.04C187.131 294.453 187.54 295.07 187.692 295.77C187.779 296.193 187.752 296.631 187.615 297.04C187.478 297.449 187.236 297.815 186.912 298.1L188.392 302.73Z" fill="#136BFB"/>
<path d="M192.5 287.12C192.114 287.169 191.724 287.072 191.406 286.848C191.087 286.625 190.864 286.29 190.78 285.91L190.5 284.48C190.1 282.529 189.007 280.788 187.422 279.582C185.836 278.376 183.868 277.785 181.88 277.92C180.877 277.977 179.898 278.249 179.01 278.719C178.122 279.188 177.345 279.842 176.732 280.638C176.119 281.434 175.685 282.353 175.458 283.331C175.232 284.31 175.219 285.326 175.42 286.31L175.74 287.96C175.777 288.143 175.776 288.331 175.736 288.514C175.696 288.696 175.619 288.868 175.509 289.019C175.399 289.169 175.258 289.295 175.097 289.388C174.935 289.482 174.756 289.54 174.57 289.56C174.183 289.614 173.791 289.519 173.471 289.294C173.152 289.07 172.93 288.732 172.85 288.35L172.58 286.96C172.306 285.661 172.296 284.32 172.553 283.017C172.81 281.714 173.328 280.477 174.075 279.38C174.822 278.282 175.784 277.347 176.902 276.63C178.02 275.914 179.271 275.431 180.58 275.21C183.419 274.733 186.333 275.368 188.716 276.982C191.099 278.597 192.77 281.067 193.38 283.88L193.7 285.52C193.737 285.705 193.735 285.896 193.694 286.08C193.652 286.264 193.572 286.438 193.459 286.589C193.345 286.74 193.201 286.865 193.036 286.957C192.871 287.048 192.688 287.104 192.5 287.12Z" fill="#136BFB"/>
<path d="M214.673 328.64H155.702L155.312 316.92H214.273L214.673 328.64Z" fill="#136BFB"/>
<path d="M186.222 262.26C186.239 262.687 186.17 263.114 186.018 263.514C185.865 263.914 185.634 264.279 185.336 264.586C185.039 264.894 184.682 265.138 184.288 265.303C183.893 265.469 183.469 265.553 183.042 265.55C182.16 265.543 181.314 265.198 180.68 264.586C180.045 263.973 179.67 263.141 179.632 262.26C179.614 261.832 179.683 261.406 179.836 261.006C179.988 260.606 180.219 260.241 180.517 259.934C180.814 259.626 181.171 259.382 181.565 259.216C181.96 259.051 182.384 258.967 182.812 258.97C183.694 258.974 184.541 259.319 185.176 259.931C185.811 260.544 186.186 261.378 186.222 262.26Z" fill="#263238"/>
<path d="M172.001 262.26C172.02 262.688 171.951 263.115 171.8 263.515C171.648 263.916 171.416 264.281 171.119 264.589C170.821 264.897 170.464 265.141 170.069 265.306C169.674 265.472 169.249 265.554 168.821 265.55C167.94 265.543 167.096 265.197 166.463 264.585C165.83 263.972 165.457 263.14 165.421 262.26C165.403 261.832 165.472 261.406 165.625 261.006C165.777 260.606 166.009 260.241 166.306 259.934C166.603 259.626 166.96 259.382 167.354 259.216C167.749 259.051 168.173 258.967 168.601 258.97C169.482 258.974 170.328 259.319 170.961 259.932C171.595 260.545 171.967 261.379 172.001 262.26Z" fill="#263238"/>
<path d="M157.872 262.26C157.889 262.687 157.82 263.114 157.668 263.514C157.516 263.914 157.284 264.279 156.987 264.586C156.689 264.894 156.332 265.138 155.938 265.303C155.544 265.469 155.12 265.553 154.692 265.55C153.81 265.545 152.965 265.201 152.331 264.588C151.698 263.975 151.325 263.141 151.292 262.26C151.274 261.832 151.344 261.406 151.496 261.006C151.648 260.606 151.88 260.241 152.177 259.934C152.474 259.626 152.831 259.382 153.225 259.216C153.62 259.051 154.044 258.967 154.472 258.97C155.353 258.974 156.199 259.319 156.832 259.932C157.466 260.545 157.838 261.379 157.872 262.26Z" fill="#263238"/>
<path d="M200.391 262.26C200.408 262.688 200.339 263.114 200.187 263.514C200.034 263.914 199.803 264.279 199.505 264.586C199.208 264.894 198.851 265.138 198.457 265.304C198.062 265.469 197.638 265.553 197.211 265.55C196.329 265.546 195.483 265.201 194.85 264.588C194.216 263.975 193.844 263.141 193.811 262.26C193.796 261.834 193.867 261.409 194.021 261.011C194.176 260.614 194.409 260.251 194.707 259.947C195.005 259.642 195.363 259.401 195.757 259.238C196.151 259.075 196.574 258.994 197.001 259C197.875 259.007 198.714 259.348 199.345 259.955C199.975 260.561 200.35 261.386 200.391 262.26Z" fill="#263238"/>
<path d="M214.563 262.26C214.582 262.688 214.514 263.115 214.362 263.515C214.211 263.916 213.979 264.281 213.681 264.589C213.384 264.897 213.026 265.141 212.631 265.306C212.236 265.472 211.811 265.554 211.383 265.55C210.502 265.543 209.658 265.197 209.025 264.585C208.392 263.972 208.019 263.14 207.983 262.26C207.966 261.832 208.035 261.406 208.187 261.006C208.339 260.606 208.571 260.241 208.868 259.934C209.166 259.626 209.522 259.382 209.917 259.216C210.311 259.051 210.735 258.967 211.163 258.97C212.045 258.974 212.89 259.319 213.524 259.932C214.157 260.545 214.53 261.379 214.563 262.26Z" fill="#263238"/>
<path d="M333.911 174.28C335.241 176.42 336.351 178.46 337.491 180.59C338.631 182.72 339.661 184.86 340.671 187.05C342.732 191.484 344.437 196.076 345.771 200.78C345.951 201.37 346.081 202 346.231 202.61L346.451 203.54L346.561 204L346.691 204.76C346.917 206.484 346.812 208.235 346.381 209.92C345.691 212.536 344.641 215.043 343.261 217.37C340.793 221.599 337.811 225.505 334.381 229L330.171 225.82C332.284 221.935 334.164 217.928 335.801 213.82C336.53 212.01 337.044 210.12 337.331 208.19C337.423 207.601 337.396 206.999 337.251 206.42L336.851 205.2C336.691 204.7 336.541 204.2 336.351 203.69C334.83 199.565 333.071 195.531 331.081 191.61C329.081 187.61 326.931 183.61 324.781 179.79L333.911 174.28Z" fill="#FF8B7B"/>
<path d="M331.241 224.43L326.641 226.86L331.921 233.04C331.921 233.04 335.221 230.81 335.371 227.41L331.241 224.43Z" fill="#FF8B7B"/>
<path d="M320.469 230.67L326.119 235.16L331.919 233.04L326.639 226.86L320.469 230.67Z" fill="#FF8B7B"/>
<path d="M301.15 141.56C301.04 142.12 300.65 142.51 300.29 142.44C299.93 142.37 299.72 141.85 299.83 141.3C299.94 140.75 300.33 140.3 300.7 140.42C301.07 140.54 301.26 141 301.15 141.56Z" fill="#263238"/>
<path d="M300.698 142.52C299.691 144.086 298.473 145.506 297.078 146.74C297.408 147.081 297.807 147.348 298.249 147.52C298.691 147.693 299.165 147.768 299.638 147.74L300.698 142.52Z" fill="#FF5652"/>
<path d="M298.898 162.14V155.58L307.578 156.58C307.578 156.58 307.438 162.22 302.578 163.88L298.898 162.14Z" fill="#FF8B7B"/>
<path d="M301.401 150.86L307.511 152.62L307.621 156.63L298.941 155.58L301.401 150.86Z" fill="#FF8B7B"/>
<path opacity="0.2" d="M307.511 152.62L301.401 150.86L300.211 153.14C300.276 154.937 300.837 156.68 301.833 158.177C302.828 159.674 304.219 160.866 305.851 161.62C306.901 160.154 307.514 158.42 307.621 156.62L307.511 152.62Z" fill="black"/>
<path d="M303.81 138.89C303.874 138.888 303.936 138.869 303.99 138.833C304.043 138.797 304.085 138.747 304.111 138.689C304.137 138.63 304.146 138.565 304.137 138.502C304.128 138.439 304.101 138.379 304.06 138.33C303.709 137.933 303.267 137.627 302.773 137.435C302.279 137.244 301.747 137.173 301.22 137.23C301.134 137.245 301.057 137.293 301.006 137.364C300.956 137.435 300.935 137.524 300.95 137.61C300.965 137.697 301.012 137.775 301.083 137.827C301.154 137.879 301.243 137.902 301.33 137.89C301.747 137.849 302.168 137.909 302.558 138.063C302.947 138.218 303.294 138.464 303.57 138.78C303.601 138.813 303.638 138.84 303.679 138.859C303.72 138.878 303.765 138.889 303.81 138.89Z" fill="#263238"/>
<path d="M316.589 151.68C315.589 156.83 314.969 163.96 318.589 167.39C318.589 167.39 317.189 172.61 307.589 172.61C297.079 172.61 302.539 168.03 302.539 168.03C306.909 166.67 306.869 161.7 305.869 157.7L316.589 151.68Z" fill="#FF8B7B"/>
<path d="M320.54 170.83C321.48 169.51 321.44 165.32 320.44 164.58C318.83 163.39 311.92 163.11 302.63 165.25C303.63 169.31 301.48 171.43 301.48 171.43L320.54 170.83Z" fill="#136BFB"/>
<path d="M351.801 408.24C351.516 408.34 351.213 408.383 350.911 408.366C350.609 408.349 350.313 408.272 350.041 408.14C349.938 408.044 349.867 407.918 349.838 407.781C349.81 407.643 349.825 407.499 349.881 407.37C349.913 407.262 349.967 407.162 350.042 407.077C350.116 406.993 350.208 406.925 350.311 406.88C351.261 406.42 353.441 407.31 353.541 407.35C353.571 407.362 353.596 407.383 353.614 407.41C353.632 407.436 353.641 407.468 353.641 407.5C353.641 407.532 353.632 407.564 353.617 407.592C353.601 407.62 353.578 407.643 353.551 407.66C352.987 407.908 352.401 408.102 351.801 408.24ZM350.651 407.11C350.585 407.126 350.521 407.149 350.461 407.18C350.399 407.203 350.343 407.24 350.297 407.289C350.252 407.337 350.219 407.396 350.201 407.46C350.111 407.76 350.201 407.86 350.261 407.89C350.641 408.21 352.041 407.89 353.031 407.52C352.278 407.208 351.465 407.068 350.651 407.11Z" fill="#136BFB"/>
<path d="M353.51 407.67H353.43C352.63 407.44 350.93 406.23 350.91 405.44C350.909 405.314 350.952 405.192 351.03 405.094C351.108 404.996 351.218 404.927 351.34 404.9C351.459 404.856 351.586 404.838 351.712 404.848C351.838 404.859 351.96 404.897 352.07 404.96C353.01 405.44 353.61 407.38 353.63 407.47C353.644 407.494 353.652 407.522 353.652 407.55C353.652 407.578 353.644 407.606 353.63 407.63C353.615 407.646 353.596 407.657 353.575 407.664C353.554 407.671 353.532 407.673 353.51 407.67ZM351.51 405.18H351.43C351.23 405.25 351.23 405.35 351.23 405.4C351.23 405.87 352.37 406.82 353.23 407.2C353.02 406.64 352.56 405.53 351.95 405.2C351.815 405.138 351.661 405.131 351.52 405.18H351.51Z" fill="#136BFB"/>
<path d="M299.86 409.42C298.96 409.42 298.09 409.29 297.8 408.89C297.724 408.783 297.684 408.656 297.684 408.525C297.684 408.394 297.724 408.267 297.8 408.16C297.857 408.062 297.934 407.977 298.025 407.91C298.116 407.843 298.22 407.795 298.33 407.77C299.5 407.45 301.96 408.85 302.06 408.91C302.091 408.925 302.115 408.95 302.13 408.981C302.145 409.012 302.148 409.047 302.14 409.08C302.136 409.114 302.122 409.146 302.098 409.172C302.075 409.197 302.044 409.214 302.01 409.22C301.301 409.35 300.581 409.417 299.86 409.42ZM298.75 408.05C298.644 408.033 298.536 408.033 298.43 408.05C298.362 408.064 298.298 408.092 298.241 408.131C298.185 408.171 298.137 408.221 298.1 408.28C297.98 408.49 298.03 408.59 298.1 408.65C298.43 409.11 300.2 409.12 301.51 408.93C300.655 408.463 299.718 408.164 298.75 408.05Z" fill="#136BFB"/>
<path d="M302.001 409.22H301.931C301.081 408.84 299.401 407.32 299.531 406.52C299.531 406.33 299.691 406.1 300.151 406.06C300.315 406.041 300.482 406.056 300.64 406.104C300.798 406.152 300.945 406.232 301.071 406.34C301.711 407.106 302.096 408.054 302.171 409.05C302.17 409.079 302.164 409.107 302.152 409.133C302.14 409.159 302.122 409.182 302.101 409.2C302.07 409.216 302.035 409.223 302.001 409.22ZM300.281 406.37H300.181C299.881 406.37 299.861 406.51 299.861 406.55C299.781 407.03 300.921 408.23 301.791 408.75C301.714 407.948 301.389 407.189 300.861 406.58C300.696 406.44 300.486 406.365 300.271 406.37H300.281Z" fill="#136BFB"/>
<path d="M309.718 409.06H302.688L301.988 392.77H309.018L309.718 409.06Z" fill="#FF8B7B"/>
<path d="M361.35 405.8L354.48 407.29L347.57 392.12L354.45 390.63L361.35 405.8Z" fill="#FF8B7B"/>
<path d="M353.808 406.6L361.539 404.93C361.674 404.901 361.814 404.919 361.938 404.981C362.061 405.043 362.16 405.145 362.218 405.27L364.898 411.09C364.97 411.231 365.007 411.387 365.006 411.545C365.006 411.703 364.968 411.858 364.896 411.999C364.824 412.139 364.719 412.261 364.591 412.353C364.463 412.445 364.315 412.506 364.159 412.53C361.458 413.06 360.108 413.19 356.718 413.92C354.628 414.38 349.908 415.53 347.018 416.15C344.128 416.77 343.138 414 344.268 413.49C349.318 411.18 351.419 409.15 352.789 407.26C353.036 406.923 353.399 406.688 353.808 406.6Z" fill="#263238"/>
<path d="M302.74 408.24H310.42C310.559 408.241 310.694 408.289 310.803 408.376C310.912 408.463 310.988 408.584 311.02 408.72L312.41 414.97C312.451 415.121 312.455 415.28 312.424 415.433C312.392 415.586 312.325 415.73 312.228 415.852C312.13 415.975 312.006 416.073 311.864 416.138C311.722 416.204 311.566 416.235 311.41 416.23C308.64 416.18 304.64 416.02 301.16 416.02C297.08 416.02 293.57 416.24 288.79 416.24C285.9 416.24 285.1 413.32 286.31 413.05C291.81 411.85 296.31 411.72 301.06 408.79C301.559 408.456 302.14 408.266 302.74 408.24Z" fill="#263238"/>
<path d="M331.171 169C337.761 170.51 343.171 187.34 343.171 187.34L330.001 197.41C326.582 193.755 324.17 189.276 323.001 184.41C320.671 175.59 324.431 167.44 331.171 169Z" fill="#136BFB"/>
<path opacity="0.4" d="M331.171 169C337.761 170.51 343.171 187.34 343.171 187.34L330.001 197.41C326.582 193.755 324.17 189.276 323.001 184.41C320.671 175.59 324.431 167.44 331.171 169Z" fill="black"/>
<path d="M296.5 189.07C294.86 190.84 293.22 192.42 291.5 194.07C290.65 194.87 289.79 195.67 288.91 196.44L287.58 197.61L287.25 197.9L286.68 198.36C286.093 198.829 285.443 199.212 284.75 199.5C283.978 199.828 283.148 199.998 282.31 200C281.593 200.003 280.882 199.878 280.21 199.63C279.464 199.346 278.784 198.914 278.21 198.36C277.477 197.644 276.94 196.752 276.65 195.77C276.498 195.286 276.4 194.786 276.36 194.28C276.307 193.688 276.307 193.092 276.36 192.5C276.41 192.02 276.47 191.6 276.55 191.21C276.823 189.846 277.211 188.508 277.71 187.21C278.159 185.976 278.677 184.767 279.26 183.59C279.9 182.32 280.51 181.39 281.12 180.33C283.597 176.271 286.425 172.437 289.57 168.87C292.683 165.324 296.114 162.071 299.82 159.15L303.5 162.94C300.92 166.4 298.38 170.11 296.03 173.76C293.691 177.389 291.554 181.145 289.63 185.01C289.2 185.95 288.63 187.01 288.36 187.77C288.002 188.653 287.691 189.554 287.43 190.47C287.178 191.295 286.987 192.137 286.86 192.99C286.853 193.123 286.853 193.257 286.86 193.39C286.86 193.47 286.86 193.51 286.86 193.3C286.843 193.076 286.8 192.854 286.73 192.64C286.513 191.931 286.117 191.29 285.58 190.78C285.101 190.341 284.54 190.001 283.93 189.78C283.393 189.577 282.824 189.472 282.25 189.47C281.698 189.463 281.15 189.569 280.64 189.78C280.467 189.851 280.3 189.934 280.14 190.03L280.52 189.68L281.73 188.58L284.12 186.34C285.7 184.85 287.29 183.26 288.79 181.78L296.5 189.07Z" fill="#FF8B7B"/>
<path opacity="0.2" d="M325.522 181.36C329.102 184.9 330.272 191.36 330.522 196.96L329.942 197.41C326.523 193.755 324.111 189.276 322.942 184.41C322.812 183.89 322.692 183.41 322.602 182.84L325.522 181.36Z" fill="black"/>
<path d="M289.508 176C288.068 183.6 287.168 199.21 291.338 230.11H328.998C329.258 224.34 325.628 196.16 331.198 168.95C327.037 168.151 322.828 167.62 318.598 167.36C313.269 167.054 307.927 167.054 302.598 167.36C300.838 167.52 299.098 167.78 297.598 168.05C295.603 168.4 293.762 169.348 292.317 170.767C290.872 172.187 289.893 174.012 289.508 176Z" fill="#136BFB"/>
<path opacity="0.4" d="M289.508 176C288.068 183.6 287.168 199.21 291.338 230.11H328.998C329.258 224.34 325.628 196.16 331.198 168.95C327.037 168.151 322.828 167.62 318.598 167.36C313.269 167.054 307.927 167.054 302.598 167.36C300.838 167.52 299.098 167.78 297.598 168.05C295.603 168.4 293.762 169.348 292.317 170.767C290.872 172.187 289.893 174.012 289.508 176Z" fill="black"/>
<path opacity="0.2" d="M295.269 187.27L288.469 185.64C288.259 189.76 288.239 194.86 288.539 201.17C291.669 197.61 295.669 192.05 295.269 187.27Z" fill="black"/>
<path opacity="0.2" d="M301.988 392.77L302.348 401.17H309.388L309.028 392.77H301.988Z" fill="black"/>
<path opacity="0.2" d="M354.45 390.63L347.57 392.12L351.13 399.94L358.01 398.45L354.45 390.63Z" fill="black"/>
<path d="M319.93 144.16C318.13 150.9 317.41 154.94 313.25 157.74C307 162 299.2 157.12 299 150C298.78 143.57 301.77 133.62 309 132.26C310.588 131.962 312.227 132.073 313.761 132.583C315.295 133.094 316.673 133.986 317.767 135.177C318.86 136.367 319.633 137.817 320.011 139.388C320.39 140.96 320.361 142.602 319.93 144.16Z" fill="#FF8B7B"/>
<path d="M304.151 144.41C303.811 143.51 302.261 136.54 303.721 134.73C305.181 132.92 321.831 134.23 324.291 136.65C328.381 140.65 325.541 144.25 321.071 148.88C317.711 152.36 317.581 156.28 315.881 156.88C312.881 157.88 308.301 156.94 307.381 153.77C306.461 150.6 304.151 144.41 304.151 144.41Z" fill="#263238"/>
<path d="M322.27 128.72C316.39 126.22 305.36 128.99 299.4 127.55C299.324 129.766 300.053 131.935 301.452 133.656C302.851 135.376 304.825 136.532 307.01 136.91C311.954 137.852 316.977 138.318 322.01 138.3C328.55 138 327.27 130.85 322.27 128.72Z" fill="#263238"/>
<path d="M323.191 136.86C325.339 137.071 327.503 136.658 329.421 135.67C330.521 138.33 324.471 139.06 323.191 136.86Z" fill="#263238"/>
<path d="M307.349 144.69C307.214 146.424 306.511 148.066 305.349 149.36C303.809 151.05 302.209 149.99 301.939 147.94C301.699 146.08 302.199 142.94 304.079 142.04C305.959 141.14 307.479 142.6 307.349 144.69Z" fill="#FF8B7B"/>
<path d="M304.691 230.14C304.691 230.14 312.691 283.89 317.061 304.03C321.851 326.08 347.591 399.03 347.591 399.03L360.181 396.3C360.181 396.3 342.181 336.84 338.181 306.01C335.081 282.33 328.991 230.12 328.991 230.12L304.691 230.14Z" fill="#136BFB"/>
<path d="M344.571 394.84C344.521 394.84 346.921 399.4 346.921 399.4L361.081 396.33L359.891 392.07L344.571 394.84Z" fill="#263238"/>
<path opacity="0.3" d="M309.74 249.29C318.97 251.1 317.99 285.52 316.88 303.23C314.22 290.71 310.32 266.63 307.66 249.54C308.305 249.222 309.039 249.134 309.74 249.29Z" fill="black"/>
<path d="M291.338 230.14C291.338 230.14 290.338 282.73 291.138 304.14C291.938 326.45 299.728 399.5 299.728 399.5H311.648C311.648 399.5 312.078 327.75 312.648 305.84C313.228 281.96 316.108 230.1 316.108 230.1L291.338 230.14Z" fill="#136BFB"/>
<path d="M297.441 394.8C297.381 394.8 298.111 399.74 298.111 399.74H312.601L313.001 395.33L297.441 394.8Z" fill="#263238"/>
<path d="M304.25 178.34C307.62 187.43 287.81 198.14 287.81 198.14L279.23 187.14C279.23 187.14 285 175.72 292 170.58C300.65 164.24 301.68 171.42 304.25 178.34Z" fill="#136BFB"/>
<path opacity="0.4" d="M304.25 178.34C307.62 187.43 287.81 198.14 287.81 198.14L279.23 187.14C279.23 187.14 285 175.72 292 170.58C300.65 164.24 301.68 171.42 304.25 178.34Z" fill="black"/>
<path d="M381.871 109.33C401.803 109.33 417.961 99.0325 417.961 86.33C417.961 73.6274 401.803 63.33 381.871 63.33C361.939 63.33 345.781 73.6274 345.781 86.33C345.781 99.0325 361.939 109.33 381.871 109.33Z" fill="#136BFB"/>
<path d="M368.85 97.91C366.473 97.9023 364.174 97.057 362.358 95.5226C360.542 93.9881 359.325 91.8628 358.92 89.52C358.522 86.9822 359.095 84.3878 360.524 82.253C361.952 80.1183 364.132 78.5998 366.63 78C368.68 77.5277 370.826 77.7097 372.767 78.5205C374.708 79.3312 376.346 80.73 377.45 82.52L400.62 77.74C401.511 77.5449 402.442 77.693 403.228 78.1546C404.014 78.6162 404.597 79.3573 404.86 80.23C404.981 80.6887 405.008 81.1674 404.938 81.6368C404.868 82.1061 404.703 82.5562 404.453 82.9596C404.203 83.3631 403.873 83.7113 403.484 83.983C403.095 84.2547 402.655 84.4442 402.19 84.54L401.59 84.66C401.501 84.6759 401.417 84.7122 401.344 84.766C401.271 84.8197 401.212 84.8895 401.17 84.97C401.133 85.0516 401.114 85.1403 401.114 85.23C401.114 85.3196 401.133 85.4083 401.17 85.49L401.58 86.55C401.718 86.8935 401.731 87.2743 401.618 87.6266C401.504 87.9789 401.272 88.2807 400.96 88.48C400.714 88.6318 400.506 88.8378 400.352 89.0821C400.198 89.3264 400.102 89.6027 400.07 89.89C400.041 90.2196 399.908 90.5315 399.691 90.7812C399.473 91.0308 399.183 91.2054 398.86 91.28L398.39 91.38C398.064 91.4402 397.728 91.3951 397.429 91.2512C397.131 91.1074 396.886 90.8723 396.73 90.58C396.523 90.2312 396.211 89.9558 395.84 89.7924C395.468 89.6289 395.055 89.5854 394.658 89.6679C394.26 89.7505 393.899 89.955 393.623 90.2529C393.347 90.5508 393.172 90.9274 393.12 91.33C393.092 91.6575 392.961 91.9677 392.745 92.2158C392.53 92.4638 392.241 92.6369 391.92 92.71L391.45 92.81C391.124 92.8686 390.789 92.8228 390.49 92.6791C390.192 92.5354 389.947 92.3012 389.79 92.01C389.64 91.7619 389.439 91.5494 389.199 91.3871C388.959 91.2248 388.686 91.1166 388.4 91.07C388.016 91.0237 387.661 90.8386 387.403 90.5496C387.146 90.2605 387.002 89.8873 387 89.5V88.36C386.996 88.2708 386.973 88.1835 386.932 88.1042C386.891 88.0248 386.834 87.9552 386.763 87.9001C386.693 87.8451 386.612 87.8058 386.525 87.7851C386.438 87.7643 386.348 87.7626 386.26 87.78L378.87 89.3C378.569 91.3473 377.644 93.2521 376.221 94.7551C374.799 96.2581 372.948 97.2864 370.92 97.7C370.239 97.8392 369.545 97.9096 368.85 97.91ZM366.85 78.91C364.582 79.4398 362.599 80.8093 361.3 82.7427C360.001 84.6761 359.483 87.0299 359.85 89.33C360.243 91.4698 361.39 93.3983 363.081 94.7665C364.773 96.1347 366.898 96.8523 369.073 96.7895C371.248 96.7266 373.328 95.8875 374.938 94.424C376.548 92.9604 377.581 90.969 377.85 88.81V88.45L386 86.8C386.234 86.7434 386.477 86.7396 386.713 86.7889C386.948 86.8381 387.17 86.9392 387.361 87.0847C387.553 87.2303 387.71 87.4167 387.82 87.6303C387.931 87.844 387.992 88.0796 388 88.32V89.46C388.002 89.5957 388.051 89.7265 388.139 89.8303C388.226 89.9342 388.347 90.0047 388.48 90.03C388.917 90.0926 389.334 90.2539 389.7 90.5016C390.066 90.7494 390.37 91.0771 390.59 91.46C390.643 91.5679 390.728 91.6566 390.834 91.714C390.94 91.7713 391.061 91.7944 391.18 91.78L391.64 91.68C391.757 91.65 391.861 91.5832 391.936 91.4895C392.012 91.3958 392.055 91.2803 392.06 91.16C392.123 90.5374 392.383 89.9511 392.801 89.4856C393.219 89.0202 393.774 88.6997 394.386 88.5706C394.999 88.4415 395.636 88.5104 396.207 88.7673C396.777 89.0242 397.251 89.4559 397.56 90C397.611 90.1071 397.695 90.1955 397.799 90.2529C397.903 90.3102 398.022 90.3337 398.14 90.32L398.62 90.22C398.735 90.1881 398.837 90.1206 398.91 90.027C398.984 89.9335 399.026 89.819 399.03 89.7C399.08 89.2609 399.229 88.839 399.466 88.4663C399.704 88.0937 400.023 87.7803 400.4 87.55C400.51 87.4705 400.591 87.3565 400.629 87.226C400.667 87.0956 400.66 86.9562 400.61 86.83L400.2 85.77C400.115 85.5514 400.079 85.317 400.095 85.0831C400.11 84.8492 400.176 84.6215 400.288 84.4158C400.401 84.2101 400.557 84.0314 400.745 83.8922C400.934 83.753 401.15 83.6567 401.38 83.61L401.99 83.48C402.32 83.4096 402.633 83.2733 402.909 83.0793C403.185 82.8854 403.42 82.6377 403.598 82.3511C403.776 82.0645 403.895 81.7448 403.947 81.4113C403.999 81.0778 403.983 80.7372 403.9 80.41C403.705 79.7806 403.279 79.2484 402.708 78.9201C402.136 78.5918 401.462 78.4917 400.82 78.64L377 83.59L376.82 83.28C375.863 81.5762 374.377 80.2303 372.588 79.4455C370.798 78.6607 368.802 78.4798 366.9 78.93L366.85 78.91ZM368.85 94.19C367.608 94.2038 366.389 93.8564 365.34 93.19C364.1 92.3759 363.181 91.1569 362.739 89.7408C362.297 88.3247 362.36 86.7993 362.917 85.4244C363.474 84.0496 364.491 82.9105 365.794 82.2014C367.097 81.4923 368.605 81.257 370.062 81.5357C371.519 81.8143 372.834 82.5897 373.784 83.7296C374.733 84.8695 375.258 86.3034 375.268 87.7867C375.278 89.2701 374.774 90.7111 373.841 91.8642C372.907 93.0172 371.603 93.8109 370.15 94.11C369.725 94.187 369.292 94.2205 368.86 94.21L368.85 94.19ZM368.85 82.38C368.478 82.3821 368.106 82.4189 367.74 82.49C367.044 82.6383 366.383 82.9225 365.796 83.3262C365.209 83.7299 364.708 84.2452 364.32 84.8428C363.932 85.4403 363.666 86.1084 363.537 86.8088C363.407 87.5092 363.417 88.2283 363.565 88.925C363.714 89.6216 363.998 90.2822 364.401 90.8691C364.805 91.4559 365.32 91.9575 365.918 92.3452C366.516 92.7329 367.184 92.9991 367.884 93.1286C368.584 93.2581 369.304 93.2483 370 93.1C371.046 92.8822 372.004 92.3598 372.753 91.5984C373.503 90.8371 374.01 89.8709 374.211 88.8218C374.412 87.7726 374.298 86.6874 373.883 85.703C373.468 84.7185 372.771 83.8789 371.88 83.29C370.995 82.7012 369.953 82.3912 368.89 82.4L368.85 82.38Z" fill="white" fill-opacity="0.5"/>
<path opacity="0.6" d="M352.501 122.82C359.051 122.82 364.361 119.435 364.361 115.26C364.361 111.085 359.051 107.7 352.501 107.7C345.951 107.7 340.641 111.085 340.641 115.26C340.641 119.435 345.951 122.82 352.501 122.82Z" fill="#136BFB"/>
<path opacity="0.3" d="M333.632 125.92C336.321 125.92 338.502 124.532 338.502 122.82C338.502 121.108 336.321 119.72 333.632 119.72C330.942 119.72 328.762 121.108 328.762 122.82C328.762 124.532 330.942 125.92 333.632 125.92Z" fill="#136BFB"/>
</svg>
