<svg width="101" height="68" viewBox="0 0 101 68" fill="none" xmlns="http://www.w3.org/2000/svg">
<path d="M1.16058 0.81488C1.60502 2.29636 2.93835 4.4297 4.03465 5.43711C5.13095 6.41488 6.93835 7.36303 9.45687 8.31118C13.6643 9.88155 14.7902 10.4741 16.2421 11.8964C18.0495 13.6741 18.7309 15.0075 19.1754 17.5556C19.768 21.0816 18.8198 23.8371 13.6347 33.526C11.7087 37.1408 10.6717 39.8667 10.0198 42.9482C9.51613 45.4075 9.51613 45.6741 9.96058 48.0741C11.0569 53.6445 13.3087 55.8964 21.1902 59.3334C25.2495 61.0816 26.0198 62.1186 25.9606 65.7038V67.0371L26.2569 66.0001C26.6421 64.6964 26.405 62.2075 25.7828 60.9927C25.2495 59.9853 24.3013 59.3038 20.6865 57.4371C17.0717 55.5408 14.3458 53.3778 13.5161 51.689C11.4421 47.5112 12.1828 42.0297 15.7384 35.5112C20.9828 25.8223 21.605 24.1334 21.605 19.4816C21.605 16.2223 21.5754 15.9853 20.6569 14.1482C19.3828 11.6297 17.8124 10.0001 15.3235 8.60748C14.3458 8.04451 11.3235 7.03711 10.6421 7.03711C9.57539 7.00748 6.0791 5.67414 4.80502 4.78526C4.12354 4.31118 3.05687 3.126 2.43465 2.17785C1.07169 0.0445175 0.86428 -0.162895 1.16058 0.81488Z" fill="#FCFBF8"/>
<path d="M11.235 10.7407C9.66463 11.4814 3.26463 13.8518 3.14611 13.7037C3.05722 13.6444 3.38315 12.9629 3.82759 12.2222C4.27204 11.4518 4.56833 10.7703 4.47944 10.7111C4.21278 10.4444 2.10907 13.4666 1.07204 15.6296C0.0349995 17.7629 -0.0242598 17.9703 0.00536987 20.9629C0.00536987 23.8666 0.0942587 24.1926 1.01278 26.0889C2.61278 29.3185 5.635 32.2814 9.16093 34.0592C9.66463 34.2963 10.4646 34.7111 10.998 35.0074C11.5017 35.274 12.0054 35.4814 12.0943 35.4814C12.1831 35.4814 12.4794 34.9777 12.7757 34.3555C13.0424 33.7629 13.3387 33.1703 13.398 33.0222C13.4572 32.9037 13.2498 32.8148 12.9535 32.8148C12.6572 32.8148 12.1831 32.6074 11.8869 32.4C11.4128 32.0148 11.472 31.9555 12.7757 31.4518C13.5461 31.1851 14.3757 30.8 14.5831 30.6518C15.0869 30.2666 15.9165 28.6666 15.7091 28.4592C15.6498 28.3703 14.2276 28.8444 12.598 29.5259C10.9683 30.2074 9.39796 30.7407 9.1313 30.7407C8.59796 30.7407 6.64241 29.5555 6.64241 29.2296C6.64241 29.1111 7.94611 28.5185 9.54611 27.9259C11.1165 27.3333 12.9535 26.5629 13.635 26.2666C14.2869 25.9703 14.9387 25.7037 15.0572 25.7037C15.6794 25.7037 17.9017 24.4592 17.9017 24.1037C17.9017 23.8666 17.9906 23.4814 18.0794 23.2148C18.3165 22.5629 17.5461 22.5926 16.1831 23.3037C15.5906 23.6 14.2869 24.1333 13.3091 24.4592C12.3313 24.7851 10.0794 25.674 8.27204 26.4148L5.01278 27.7777L4.21278 26.8889C3.7387 26.3851 3.38315 25.8814 3.38315 25.7333C3.38315 25.5259 5.24981 24.7259 10.9387 22.5629C11.5906 22.2963 12.5387 21.9111 13.0128 21.7037C13.5165 21.4963 14.435 21.1407 15.0869 20.874C18.9091 19.3926 19.235 19.1259 18.5239 18.0296C18.2869 17.674 16.0646 18.3555 12.1239 20.0444C10.3757 20.7851 6.90907 22.1777 5.60537 22.6222C4.80537 22.9185 4.00537 23.2148 3.82759 23.3333C2.84981 24.0148 2.46463 23.8963 2.02018 22.8889C1.81278 22.3259 1.60537 21.7629 1.60537 21.6444C1.635 21.3481 2.52389 20.9629 9.75352 18.1481C11.7091 17.3777 13.7239 16.5777 14.198 16.4C14.7017 16.1926 15.5609 15.837 16.1239 15.6296C16.6869 15.4222 17.2794 15.1259 17.398 15.0074C17.7239 14.7407 17.1017 13.5555 16.6276 13.5555C16.4202 13.5555 13.0128 14.8889 9.01278 16.4889C5.01278 18.0889 1.69426 19.3629 1.635 19.3037C1.60537 19.274 1.635 18.5629 1.75352 17.7333C1.9313 16.4296 2.04981 16.2222 2.87944 15.9555C3.41278 15.7777 6.25722 14.6518 9.24981 13.4666C14.5831 11.3629 14.672 11.3333 14.0498 10.8296C13.2498 10.1777 12.4202 10.1777 11.235 10.7407Z" fill="#FCFBF8"/>
<path d="M35.3828 25.1112V35.5112L38.2569 35.4223L41.1013 35.3335L41.0421 33.0816C40.9532 29.7335 41.131 29.2594 42.4939 29.2594C43.5606 29.2594 43.6495 29.3483 45.6347 32.3705L47.6791 35.4816H50.8791C52.8643 35.4816 54.0495 35.3631 54.0495 35.1853C54.0495 35.0075 53.1013 33.526 51.9458 31.8668C50.7902 30.2075 49.7828 28.726 49.7532 28.5483C49.6939 28.3705 50.1976 27.8075 50.8791 27.3335C52.7161 26.0001 53.5458 24.2816 53.5458 21.8816C53.5161 20.8149 53.3976 19.5705 53.2198 19.1557C52.6865 17.7927 51.1458 16.3112 49.5458 15.6001C48.0939 14.9483 47.531 14.889 41.6939 14.8001L35.3828 14.6816V25.1112ZM46.4939 20.252C47.9458 20.9335 48.3013 22.8594 47.1754 23.926C46.6124 24.4297 46.1384 24.5186 43.8569 24.5186H41.1606L41.1902 22.3557C41.1902 21.2001 41.2198 20.1335 41.2495 19.9853C41.368 19.5705 45.4865 19.7779 46.4939 20.252Z" fill="#FCFBF8"/>
<path d="M56.4219 25.1111V35.4814H59.2367H62.0515L62.1108 29.9407L62.1997 24.3703L66.2293 29.5555C68.4515 32.4296 70.4959 34.9185 70.733 35.1259C71.0293 35.3926 71.9478 35.4814 73.5182 35.4222L75.8293 35.3333V25.1111V14.8889H73.0145H70.1997L70.0515 20.1037L69.9034 25.2889L65.8145 20.0148L61.6959 14.7407H59.0589H56.4219V25.1111Z" fill="#FCFBF8"/>
<path d="M86.3174 15.3926C85.4878 16.963 78.0508 34.7704 78.0508 35.2148C78.0508 35.3926 79.1767 35.4815 80.8952 35.4222C84.036 35.3333 83.8286 35.4519 84.836 33.0222L85.4286 31.6296H89.2508H93.1026L93.8434 33.4667L94.5841 35.3333L97.5767 35.4222C99.8878 35.4815 100.569 35.4222 100.569 35.1259C100.569 34.8889 99.8582 33.0519 98.9989 31.037C98.11 28.9926 96.2137 24.4889 94.7619 21.0519L92.1249 14.7407H89.3989C86.8804 14.7407 86.6434 14.8 86.3174 15.3926ZM90.4952 24.6963C90.9989 25.9704 91.3841 27.0667 91.3841 27.0963C91.3841 27.1556 90.4656 27.1852 89.31 27.1852C88.1841 27.1852 87.236 27.0963 87.236 26.9778C87.236 26.3259 89.1915 21.9111 89.3989 22.1185C89.5174 22.237 90.0212 23.3926 90.4952 24.6963Z" fill="#FCFBF8"/>
<path d="M16.3009 35.3926C15.7972 36.4296 15.7972 36.5185 16.3009 36.8741C16.5972 37.0815 17.1305 37.2592 17.5157 37.2592C18.7009 37.2592 18.2565 37.7926 16.6565 38.2963C14.8194 38.8889 14.4639 39.1852 14.1676 40.3407C13.9305 41.3185 13.8713 41.3481 17.9305 39.7481C19.3231 39.1852 20.8342 38.7407 21.2787 38.7407C22.0787 38.7407 24.4194 39.6296 24.4194 39.9555C24.4194 40.0444 23.5898 40.4296 22.5824 40.8148C21.5453 41.1704 20.1824 41.7037 19.5305 41.9704C17.7231 42.7407 16.1231 43.3926 14.5824 43.9555C13.2787 44.4 13.1602 44.5185 13.1602 45.437V46.4148L15.0565 45.7037C16.0935 45.3185 18.1379 44.5185 19.5602 43.9259C21.012 43.3333 23.2046 42.4741 24.4787 42L26.7305 41.1407L27.7972 41.9407C28.3602 42.3852 28.8046 42.8592 28.775 43.0074C28.7157 43.1555 28.1527 43.4518 27.5009 43.6889C26.8787 43.8963 26.0787 44.1926 25.7527 44.3704C25.0713 44.6963 21.9898 45.9111 17.0416 47.8074C15.2046 48.4889 13.6342 49.1407 13.575 49.2C13.4861 49.2592 13.575 49.6741 13.7231 50.0889C14.0787 51.0074 14.375 50.9481 18.6416 49.1407C20.1527 48.4889 29.9898 44.6667 30.1676 44.6667C30.375 44.6667 31.2342 46.2963 31.2342 46.7407C31.2342 47.1259 30.8787 47.2741 22.6416 50.4741C18.9676 51.8963 15.9157 53.1111 15.8268 53.1704C15.7379 53.2592 16.0046 53.5555 16.3898 53.8815C17.2194 54.5629 17.1602 54.5629 21.7527 52.7555C23.6194 52.0148 25.6935 51.2148 26.3453 50.9778C26.9972 50.7111 27.9453 50.3555 28.4194 50.1481C30.375 49.3185 31.6194 48.8148 31.7083 48.8148C31.7676 48.8148 31.8268 49.4667 31.8268 50.2667C31.8268 51.5407 31.7379 51.7778 31.175 51.9259C30.7898 52.0444 30.1083 52.3111 29.6046 52.5185C29.1305 52.7259 27.4416 53.4074 25.9009 54C20.0342 56.2222 19.9453 56.2815 21.249 57.0518C21.9305 57.4667 22.2565 57.4074 26.5231 55.7185C29.0416 54.7111 31.1453 53.9407 31.2046 54C31.2342 54.0592 30.9379 54.8889 30.5231 55.8074C29.812 57.3481 29.7824 57.4667 30.3453 56.9629C30.6713 56.6667 31.4416 55.4222 32.0342 54.237C33.7231 50.8 33.7527 47.0667 32.0342 43.6296C31.1157 41.7926 27.7972 38.7704 25.1305 37.3481C23.175 36.3111 17.8416 34.2963 17.0416 34.2963C16.9231 34.2963 16.5972 34.8 16.3009 35.3926Z" fill="#FCFBF8"/>
<path d="M38.5812 38.0295C37.5442 38.5628 37.159 39.3036 37.159 40.6369C37.159 41.911 37.8997 42.6814 40.0331 43.6888C42.4923 44.8147 43.1442 46.2962 41.8109 47.5702C40.5368 48.7851 38.522 48.311 37.959 46.6814C37.7516 46.0888 36.5664 46.2962 36.5664 46.9184C36.5664 47.7184 38.4627 49.4073 39.5294 49.5851C41.9294 49.9702 44.1516 48.0147 43.8553 45.7332C43.6775 44.311 43.2923 43.8962 40.8034 42.5925C38.3146 41.2888 38.0183 40.8147 38.8183 39.7184C39.6183 38.6517 40.8627 38.474 41.722 39.3332C42.1368 39.6888 42.5812 39.8665 42.8775 39.748C43.4701 39.5406 43.4997 39.3628 42.996 38.711C42.1071 37.5258 40.0627 37.1999 38.5812 38.0295Z" fill="#FCFBF8"/>
<path d="M45.7539 41.9703C45.7539 44.3999 45.8724 46.7406 46.0502 47.1851C46.8502 49.2888 49.4576 50.1777 51.7687 49.1703C53.8428 48.2518 54.0502 47.5999 54.0502 42.1481C54.0502 37.7629 54.0206 37.5555 53.4576 37.5555C52.8946 37.5555 52.865 37.7629 52.865 41.4962C52.865 47.274 52.4502 48.1925 49.8724 48.2221C48.8058 48.2221 48.3909 48.074 47.7984 47.4518C47.1169 46.7406 47.0872 46.474 46.9984 42.1184C46.8798 37.8518 46.8502 37.5555 46.3169 37.5555C45.7835 37.5555 45.7539 37.8221 45.7539 41.9703Z" fill="#FCFBF8"/>
<path d="M56.4219 43.4522V49.4077H57.1626C57.9034 49.4077 57.9034 49.3781 57.9034 46.8892V44.3707H58.7922C61.7256 44.3707 63.533 41.6744 62.17 39.3633C61.4589 38.1781 60.8367 37.8818 58.4959 37.6744L56.4219 37.467V43.4522ZM60.5108 39.5114C60.9552 39.8077 61.1626 40.2522 61.1626 40.9336C61.1626 42.1188 60.4219 42.8596 58.97 43.0966L57.9034 43.2744V41.141V39.0373H58.8811C59.4145 39.0373 60.1552 39.2448 60.5108 39.5114Z" fill="#FCFBF8"/>
<path d="M64.125 43.4818V49.4077H64.8657C65.6065 49.4077 65.6065 49.3781 65.6065 46.9188V44.4596L67.1769 44.2818C68.4213 44.1336 68.8954 43.8966 69.5769 43.1559C70.3176 42.3262 70.4065 42.0299 70.288 40.7559C70.1991 39.9559 69.9028 39.067 69.6065 38.741C68.9546 38.0003 67.3843 37.5559 65.5472 37.5559H64.125V43.4818ZM68.3324 39.541C68.6583 39.8373 68.8657 40.4299 68.8657 41.1707C68.8657 42.2077 68.7472 42.3559 67.8287 42.7707C65.8139 43.6003 65.6065 43.4522 65.6065 41.1114V39.0373H66.7028C67.2954 39.0373 68.0361 39.2448 68.3324 39.541Z" fill="#FCFBF8"/>
<path d="M72.3324 37.7336C72.2139 37.8522 72.125 40.5188 72.125 43.6892V49.4077H74.3472C76.362 49.4077 76.5694 49.3485 76.5694 48.8448C76.5694 48.341 76.3324 48.2522 75.088 48.1633L73.6065 48.0744L73.5176 42.8892C73.4287 38.5633 73.3398 37.704 72.9843 37.6151C72.7472 37.5855 72.4509 37.6151 72.3324 37.7336Z" fill="#FCFBF8"/>
<path d="M77.9912 43.4522L77.9023 49.4077H78.5838H79.2357L79.1764 43.5707C79.0875 38.3262 79.0283 37.704 78.5838 37.6151C78.1098 37.5262 78.0801 38.0299 77.9912 43.4522Z" fill="#FCFBF8"/>
<path d="M81.8129 37.7336C81.6944 37.8522 81.6055 40.5188 81.6055 43.6892V49.4077H84.7166C87.6203 49.4077 87.8277 49.3781 87.8277 48.8151C87.8277 48.2818 87.6203 48.2225 85.4573 48.2225H83.087V45.8225V43.4522L85.2499 43.5114C87.2351 43.5707 87.3832 43.541 87.4721 42.9485C87.561 42.3262 87.4721 42.2966 85.3388 42.2966H83.087V40.667V39.067L85.3981 38.9781C87.4425 38.8892 87.6795 38.8299 87.6795 38.2966C87.6795 37.7633 87.4425 37.704 84.8647 37.6151C83.2944 37.5855 81.9314 37.6151 81.8129 37.7336Z" fill="#FCFBF8"/>
<path d="M91.026 38.4149C90.226 39.126 90.0482 39.4816 90.0482 40.4594C90.0482 41.9408 90.6408 42.5927 92.6853 43.5705C94.7001 44.5483 95.2334 45.0816 95.2334 46.2668C95.2334 47.5705 94.4631 48.2223 92.8927 48.2223C91.826 48.2223 91.589 48.1038 91.1445 47.3334C90.5223 46.2075 89.1593 46.0297 89.4556 47.0964C89.5742 47.4816 90.0482 48.1631 90.5223 48.6668C91.2927 49.4371 91.589 49.5557 93.0408 49.5557C94.5519 49.5557 94.7593 49.4668 95.7075 48.4594C96.4779 47.6001 96.7149 47.0964 96.7149 46.1779C96.7149 44.6371 95.8853 43.6594 93.4853 42.5038C91.7668 41.6446 91.5297 41.4075 91.4408 40.6075C91.2631 38.9483 93.426 38.1186 94.6705 39.3631C95.3223 40.0149 96.1223 39.926 96.1223 39.2149C96.1223 38.4149 94.6408 37.5557 93.2779 37.5557C92.2705 37.5557 91.7668 37.7334 91.026 38.4149Z" fill="#FCFBF8"/>
<path d="M99.2041 48.3703C98.9671 48.9925 99.2634 49.7036 99.7671 49.7036C100.004 49.7036 100.36 49.4962 100.567 49.2592C100.863 48.9036 100.863 48.7258 100.567 48.3703C100.36 48.1332 100.004 47.9258 99.7671 47.9258C99.5597 47.9258 99.293 48.1332 99.2041 48.3703Z" fill="#FCFBF8"/>
</svg>
