<svg width="500" height="500" viewBox="0 0 500 500" fill="none" xmlns="http://www.w3.org/2000/svg">
<path d="M500 382.4H0V382.65H500V382.4Z" fill="#EBEBEB"/>
<path d="M237.001 337.8H43.9109C42.3983 337.797 40.9485 337.195 39.8798 336.124C38.8112 335.053 38.2109 333.603 38.2109 332.09V60.66C38.2241 59.156 38.8301 57.718 39.8974 56.6582C40.9646 55.5985 42.4069 55.0026 43.9109 55H237.001C238.515 55 239.968 55.6016 241.039 56.6724C242.109 57.7433 242.711 59.1956 242.711 60.71V332.09C242.711 333.604 242.109 335.057 241.039 336.128C239.968 337.198 238.515 337.8 237.001 337.8ZM43.9109 55.2C42.4646 55.2026 41.0784 55.7791 40.0566 56.8027C39.0348 57.8264 38.4609 59.2136 38.4609 60.66V332.09C38.4609 333.536 39.0348 334.924 40.0566 335.947C41.0784 336.971 42.4646 337.547 43.9109 337.55H237.001C238.448 337.547 239.835 336.971 240.859 335.948C241.882 334.924 242.458 333.537 242.461 332.09V60.66C242.458 59.2127 241.882 57.8255 240.859 56.8021C239.835 55.7787 238.448 55.2026 237.001 55.2H43.9109Z" fill="#EBEBEB"/>
<path d="M453.31 337.8H260.21C258.696 337.797 257.246 337.195 256.175 336.125C255.105 335.054 254.503 333.604 254.5 332.09V60.66C254.516 59.1551 255.124 57.7171 256.193 56.6576C257.262 55.5981 258.705 55.0025 260.21 55H453.31C454.812 55.0052 456.252 55.6022 457.317 56.6617C458.382 57.7212 458.987 59.1578 459 60.66V332.09C459 333.601 458.401 335.05 457.335 336.121C456.268 337.191 454.821 337.795 453.31 337.8ZM260.21 55.2C258.763 55.2026 257.375 55.7787 256.352 56.8021C255.329 57.8255 254.753 59.2127 254.75 60.66V332.09C254.753 333.537 255.329 334.924 256.352 335.948C257.375 336.971 258.763 337.547 260.21 337.55H453.31C454.757 337.547 456.145 336.971 457.168 335.948C458.191 334.924 458.767 333.537 458.77 332.09V60.66C458.767 59.2127 458.191 57.8255 457.168 56.8021C456.145 55.7787 454.757 55.2026 453.31 55.2H260.21Z" fill="#EBEBEB"/>
<path d="M449.898 398.49H423.898V398.74H449.898V398.49Z" fill="#EBEBEB"/>
<path d="M356.03 401.21H311V401.46H356.03V401.21Z" fill="#EBEBEB"/>
<path d="M422.899 389.21H362.109V389.46H422.899V389.21Z" fill="#EBEBEB"/>
<path d="M71.6909 390.89H52.4609V391.14H71.6909V390.89Z" fill="#EBEBEB"/>
<path d="M135.892 390.89H80.6016V391.14H135.892V390.89Z" fill="#EBEBEB"/>
<path d="M244.142 395.11H169.672V395.36H244.142V395.11Z" fill="#EBEBEB"/>
<path d="M378.59 377.28H386.59V229.23H378.59V377.28Z" fill="#F0F0F0"/>
<path d="M340.198 382.38H384.488V377.27H340.198V382.38Z" fill="#F0F0F0"/>
<path d="M378.598 229.22H338.078V377.27H378.598V229.22Z" fill="#F5F5F5"/>
<path d="M374.278 306.32H342.398V332.76H374.278V306.32Z" fill="#F0F0F0"/>
<path d="M374.278 340.92H342.398V367.36H374.278V340.92Z" fill="#F0F0F0"/>
<path d="M354.092 321.35H362.582C363.233 321.35 363.762 320.822 363.762 320.17V318.9C363.762 318.248 363.233 317.72 362.582 317.72H354.092C353.44 317.72 352.912 318.248 352.912 318.9V320.17C352.912 320.822 353.44 321.35 354.092 321.35Z" fill="#F5F5F5"/>
<path d="M354.092 355.95H362.582C363.233 355.95 363.762 355.422 363.762 354.77V353.5C363.762 352.848 363.233 352.32 362.582 352.32H354.092C353.44 352.32 352.912 352.848 352.912 353.5V354.77C352.912 355.422 353.44 355.95 354.092 355.95Z" fill="#F5F5F5"/>
<path d="M374.278 237.39H342.398V263.83H374.278V237.39Z" fill="#F0F0F0"/>
<path d="M374.278 271.71H342.398V298.15H374.278V271.71Z" fill="#F0F0F0"/>
<path d="M354.092 252.42H362.582C363.233 252.42 363.762 251.892 363.762 251.24V249.97C363.762 249.318 363.233 248.79 362.582 248.79H354.092C353.44 248.79 352.912 249.318 352.912 249.97V251.24C352.912 251.892 353.44 252.42 354.092 252.42Z" fill="#F5F5F5"/>
<path d="M354.092 286.75H362.582C363.233 286.75 363.762 286.222 363.762 285.57V284.3C363.762 283.648 363.233 283.12 362.582 283.12H354.092C353.44 283.12 352.912 283.648 352.912 284.3V285.57C352.912 286.222 353.44 286.75 354.092 286.75Z" fill="#F5F5F5"/>
<path d="M422.941 377.28H446.941V229.23H422.941V377.28Z" fill="#F0F0F0"/>
<path d="M384.519 382.38H444.469V377.27H384.519V382.38Z" fill="#F0F0F0"/>
<path d="M422.942 229.22H382.422V377.27H422.942V229.22Z" fill="#F5F5F5"/>
<path d="M418.618 306.32H386.738V332.76H418.618V306.32Z" fill="#F0F0F0"/>
<path d="M418.618 340.92H386.738V367.36H418.618V340.92Z" fill="#F0F0F0"/>
<path d="M398.432 321.35H406.922C407.573 321.35 408.102 320.822 408.102 320.17V318.9C408.102 318.248 407.573 317.72 406.922 317.72H398.432C397.78 317.72 397.252 318.248 397.252 318.9V320.17C397.252 320.822 397.78 321.35 398.432 321.35Z" fill="#F5F5F5"/>
<path d="M398.432 355.95H406.922C407.573 355.95 408.102 355.422 408.102 354.77V353.5C408.102 352.848 407.573 352.32 406.922 352.32H398.432C397.78 352.32 397.252 352.848 397.252 353.5V354.77C397.252 355.422 397.78 355.95 398.432 355.95Z" fill="#F5F5F5"/>
<path d="M418.618 237.39H386.738V263.83H418.618V237.39Z" fill="#F0F0F0"/>
<path d="M418.618 271.71H386.738V298.15H418.618V271.71Z" fill="#F0F0F0"/>
<path d="M398.432 252.42H406.922C407.573 252.42 408.102 251.892 408.102 251.24V249.97C408.102 249.318 407.573 248.79 406.922 248.79H398.432C397.78 248.79 397.252 249.318 397.252 249.97V251.24C397.252 251.892 397.78 252.42 398.432 252.42Z" fill="#F5F5F5"/>
<path d="M398.432 286.75H406.922C407.573 286.75 408.102 286.222 408.102 285.57V284.3C408.102 283.648 407.573 283.12 406.922 283.12H398.432C397.78 283.12 397.252 283.648 397.252 284.3V285.57C397.252 286.222 397.78 286.75 398.432 286.75Z" fill="#F5F5F5"/>
<path d="M292.63 198.32L427.34 198.32V80.0601L292.63 80.0601V198.32Z" fill="#E6E6E6"/>
<path d="M278.189 75.46H436.059C436.415 75.46 436.756 75.6011 437.007 75.8524C437.258 76.1037 437.399 76.4446 437.399 76.8C437.397 77.1536 437.254 77.4919 437.003 77.741C436.752 77.9902 436.413 78.13 436.059 78.13H278.189C277.837 78.1273 277.501 77.9864 277.252 77.7375C277.003 77.4887 276.862 77.1519 276.859 76.8C276.859 76.4463 276.999 76.107 277.248 75.856C277.497 75.6049 277.836 75.4626 278.189 75.46Z" fill="#E6E6E6"/>
<path d="M286.92 198.32L424.68 198.32V80.0601L286.92 80.0601V198.32Z" fill="#F0F0F0"/>
<path d="M292.631 198.32H427.341V202.11H288.691L292.631 198.32Z" fill="#E6E6E6"/>
<path d="M277.389 198.32H415.149L411.209 202.11H273.449L277.389 198.32Z" fill="#F0F0F0"/>
<path d="M416.672 190.32V88.0601L294.922 88.0601V190.32H416.672Z" fill="#FAFAFA"/>
<path d="M389.031 190.32L342.061 88.0601H319.891L366.861 190.32H389.031Z" fill="white"/>
<path d="M362.1 190.32L315.13 88.0601H306.48L353.45 190.32H362.1Z" fill="white"/>
<path d="M295.93 190.32V88.0601H294.91V190.32H295.93Z" fill="#E6E6E6"/>
<g opacity="0.4">
<path d="M416.57 170.65H430.34V73.0599H416.57V170.65Z" fill="#F0F0F0"/>
<path d="M411.211 170.65H421.941V73.0599H411.211V170.65Z" fill="#E6E6E6"/>
<path d="M402.812 170.65H416.582V73.0599H402.812V170.65Z" fill="#F0F0F0"/>
<path d="M397.442 170.65H408.172V73.0599H397.442V170.65Z" fill="#E6E6E6"/>
<path d="M389.031 170.65H402.801V73.0599H389.031V170.65Z" fill="#F0F0F0"/>
</g>
<g opacity="0.4">
<path d="M300.04 170.65H307.98V73.0599H300.04V170.65Z" fill="#F0F0F0"/>
<path d="M296.949 170.65H303.129V73.0599H296.949V170.65Z" fill="#E6E6E6"/>
<path d="M292.099 170.65H300.039V73.0599H292.099V170.65Z" fill="#F0F0F0"/>
<path d="M289.019 170.65H295.199V73.0599H289.019V170.65Z" fill="#E6E6E6"/>
<path d="M284.158 170.65H292.098V73.0599H284.158V170.65Z" fill="#F0F0F0"/>
</g>
<path d="M164.219 151.7H183.279L181.029 103.36H164.219V151.7Z" fill="#F5F5F5"/>
<path d="M194.05 154.31L198.16 175.78H194.05L168.84 154.31H194.05Z" fill="#F5F5F5"/>
<path d="M198.159 154.31V175.78L172.949 154.31H198.159Z" fill="#E6E6E6"/>
<path d="M95.1787 154.31L99.2887 175.78H95.1787L69.9688 154.31H95.1787Z" fill="#F5F5F5"/>
<path d="M99.2881 154.31V175.78L74.0781 154.31H99.2881Z" fill="#E6E6E6"/>
<path d="M216.67 151.77H189.25V154.87H216.67V151.77Z" fill="#E6E6E6"/>
<path d="M52.93 154.87L189.25 154.87V151.77L52.93 151.77V154.87Z" fill="#F5F5F5"/>
<path d="M136.211 151.7H177.131L182.191 93.1201H141.271L136.211 151.7Z" fill="#E6E6E6"/>
<path d="M134.09 151.7H175.01L180.07 93.1201H139.15L134.09 151.7Z" fill="#F0F0F0"/>
<path d="M171.581 145.21L176.211 99.6001H142.591L137.961 145.21H171.581Z" fill="white"/>
<path d="M117.891 151.7H131.021L129.471 118.41H117.891V151.7Z" fill="#E0E0E0"/>
<path d="M98.6094 151.7H126.779L130.269 111.36H102.089L98.6094 151.7Z" fill="#F0F0F0"/>
<path d="M97.1484 151.7H125.328L128.808 111.36H100.628L97.1484 151.7Z" fill="#F5F5F5"/>
<path d="M122.959 147.23L126.139 115.83H102.999L99.8086 147.23H122.959Z" fill="#E0E0E0"/>
<path d="M262.359 236.44C262.453 237.558 262.212 238.679 261.668 239.66C261.124 240.641 260.302 241.439 259.304 241.953C258.307 242.466 257.179 242.672 256.065 242.545C254.95 242.417 253.898 241.962 253.042 241.236C252.187 240.511 251.565 239.548 251.257 238.469C250.949 237.39 250.968 236.244 251.311 235.176C251.654 234.108 252.307 233.166 253.186 232.469C254.065 231.772 255.131 231.351 256.249 231.26C256.991 231.198 257.737 231.283 258.446 231.511C259.154 231.738 259.811 232.102 260.378 232.583C260.946 233.064 261.413 233.653 261.753 234.314C262.093 234.976 262.299 235.698 262.359 236.44Z" fill="#E0E0E0"/>
<path d="M272.891 239.4C272.984 240.518 272.743 241.639 272.2 242.62C271.656 243.601 270.833 244.399 269.835 244.913C268.838 245.426 267.711 245.632 266.596 245.505C265.481 245.377 264.429 244.922 263.574 244.196C262.718 243.471 262.097 242.508 261.788 241.429C261.48 240.35 261.499 239.204 261.842 238.136C262.186 237.068 262.838 236.126 263.717 235.429C264.596 234.732 265.662 234.311 266.781 234.22C268.277 234.098 269.761 234.575 270.907 235.547C272.052 236.518 272.766 237.904 272.891 239.4Z" fill="#E0E0E0"/>
<path d="M280.501 236C280.592 237.118 280.35 238.238 279.805 239.218C279.259 240.198 278.436 240.994 277.438 241.506C276.44 242.018 275.313 242.223 274.199 242.094C273.085 241.965 272.034 241.509 271.179 240.783C270.324 240.057 269.704 239.094 269.397 238.015C269.089 236.936 269.109 235.791 269.453 234.723C269.797 233.656 270.449 232.714 271.328 232.018C272.207 231.321 273.273 230.901 274.391 230.81C275.889 230.691 277.373 231.17 278.518 232.143C279.663 233.116 280.376 234.503 280.501 236Z" fill="#E0E0E0"/>
<path d="M288.529 238.12C288.618 239.235 288.374 240.352 287.829 241.329C287.284 242.306 286.462 243.099 285.466 243.609C284.47 244.119 283.346 244.322 282.234 244.193C281.123 244.064 280.075 243.609 279.222 242.884C278.37 242.16 277.751 241.2 277.444 240.124C277.137 239.048 277.156 237.905 277.498 236.84C277.84 235.775 278.49 234.835 279.365 234.139C280.241 233.443 281.304 233.023 282.419 232.93C283.161 232.868 283.908 232.954 284.617 233.182C285.326 233.409 285.983 233.775 286.551 234.257C287.118 234.739 287.585 235.328 287.925 235.991C288.264 236.654 288.469 237.378 288.529 238.12Z" fill="#E0E0E0"/>
<path d="M295.741 239C295.741 239 295.081 254.74 269.801 254.74C244.521 254.74 243.801 239 243.801 239H295.741Z" fill="#F0F0F0"/>
<path d="M59.8803 382.4H69.0703L69.0703 254.77H59.8803L59.8803 382.4Z" fill="#E6E6E6"/>
<path d="M57.4298 382.4H62.8398L62.8398 254.77H57.4298L57.4298 382.4Z" fill="#F0F0F0"/>
<path d="M186.21 254.77H55.75V264.34H186.21V254.77Z" fill="#F0F0F0"/>
<path d="M309.759 382.4H318.949V254.77H309.759V382.4Z" fill="#E6E6E6"/>
<path d="M308.039 382.4H313.449V254.77H308.039V382.4Z" fill="#F0F0F0"/>
<path d="M320.589 254.77H190.129V264.34H320.589V254.77Z" fill="#E6E6E6"/>
<path d="M186.982 382.4H196.172L196.172 254.77H186.982L186.982 382.4Z" fill="#E6E6E6"/>
<path d="M184.531 382.4H189.941L189.941 254.77H184.531L184.531 382.4Z" fill="#F0F0F0"/>
<path d="M217.141 212.32H149.031L136.891 252.54H205.011L217.141 212.32Z" fill="#E6E6E6"/>
<path d="M205.011 252.54L204.741 254.77H136.621L136.891 252.54H205.011Z" fill="#E6E6E6"/>
<path d="M215.051 212.32H146.931L134.801 252.54H202.911L215.051 212.32Z" fill="#F0F0F0"/>
<path d="M201.578 250.71L212.598 214.16H148.268L137.238 250.71H201.578Z" fill="white"/>
<path d="M185.169 252.54L184.889 254.77H109.879L110.149 252.54H185.169Z" fill="#F0F0F0"/>
<path d="M249.999 427.56C357.082 427.56 443.889 422.492 443.889 416.24C443.889 409.988 357.082 404.92 249.999 404.92C142.917 404.92 56.1094 409.988 56.1094 416.24C56.1094 422.492 142.917 427.56 249.999 427.56Z" fill="#F5F5F5"/>
<path d="M377.548 109.15H262.458C258.51 109.215 254.729 110.749 251.852 113.452C248.974 116.156 247.208 119.834 246.898 123.77L228.998 399.33C228.852 401.206 229.098 403.092 229.721 404.868C230.344 406.644 231.33 408.271 232.615 409.645C233.901 411.02 235.459 412.111 237.19 412.851C238.92 413.59 240.786 413.961 242.668 413.94H357.798C361.744 413.878 365.526 412.346 368.403 409.644C371.281 406.942 373.047 403.265 373.358 399.33L386.198 201.27C386.743 201.08 387.222 200.736 387.577 200.28C387.932 199.824 388.147 199.275 388.198 198.7L390.498 163.26C390.538 162.709 390.398 162.161 390.098 161.697C389.799 161.233 389.356 160.88 388.838 160.69L391.228 123.77C391.374 121.892 391.127 120.005 390.504 118.228C389.88 116.451 388.894 114.823 387.607 113.448C386.321 112.072 384.762 110.98 383.03 110.24C381.298 109.5 379.431 109.129 377.548 109.15Z" fill="#136BFB"/>
<path d="M237.579 180.5H239.839C240.538 180.487 241.208 180.215 241.718 179.737C242.228 179.258 242.542 178.607 242.599 177.91L243.599 163.11C243.624 162.777 243.58 162.442 243.468 162.128C243.357 161.813 243.182 161.524 242.953 161.281C242.725 161.037 242.448 160.844 242.141 160.713C241.834 160.582 241.503 160.516 241.169 160.52H238.919C238.219 160.53 237.548 160.801 237.038 161.281C236.527 161.76 236.214 162.412 236.159 163.11L235.159 177.91C235.134 178.242 235.178 178.576 235.289 178.89C235.4 179.204 235.574 179.492 235.801 179.735C236.029 179.979 236.304 180.172 236.61 180.304C236.916 180.435 237.246 180.502 237.579 180.5Z" fill="#136BFB"/>
<path d="M235.868 206.92H238.118C238.82 206.908 239.492 206.634 240.004 206.154C240.516 205.673 240.831 205.02 240.888 204.32L241.888 189.53C241.913 189.197 241.869 188.863 241.757 188.548C241.646 188.233 241.471 187.944 241.242 187.701C241.014 187.457 240.737 187.264 240.43 187.133C240.123 187.002 239.792 186.936 239.458 186.94H237.208C236.507 186.95 235.835 187.221 235.323 187.7C234.811 188.179 234.495 188.831 234.438 189.53L233.438 204.32C233.41 204.654 233.452 204.99 233.562 205.307C233.672 205.624 233.847 205.914 234.076 206.159C234.305 206.404 234.583 206.598 234.892 206.729C235.2 206.861 235.533 206.925 235.868 206.92Z" fill="#136BFB"/>
<path d="M351.68 413.94H236.59C234.708 413.961 232.842 413.59 231.112 412.85C229.381 412.111 227.823 411.02 226.537 409.645C225.251 408.271 224.266 406.644 223.643 404.868C223.02 403.092 222.774 401.206 222.92 399.33L240.78 123.77C241.092 119.833 242.861 116.154 245.74 113.451C248.618 110.748 252.401 109.215 256.35 109.15H371.43C373.312 109.13 375.178 109.503 376.909 110.243C378.639 110.984 380.197 112.076 381.483 113.451C382.768 114.826 383.754 116.454 384.376 118.23C384.999 120.007 385.245 121.893 385.1 123.77L367.24 399.33C366.929 403.265 365.162 406.942 362.285 409.644C359.408 412.346 355.626 413.878 351.68 413.94Z" fill="#263238"/>
<path opacity="0.2" d="M301.957 402.223C305.989 398.32 306.292 392.094 302.635 388.316C298.978 384.538 292.746 384.64 288.714 388.543C284.682 392.446 284.379 398.672 288.036 402.449C291.693 406.227 297.925 406.126 301.957 402.223Z" fill="white"/>
<path d="M362.079 378.17H231.249C230.803 378.17 230.363 378.078 229.954 377.901C229.545 377.723 229.177 377.464 228.873 377.139C228.568 376.813 228.334 376.429 228.183 376.01C228.033 375.59 227.97 375.145 227.999 374.7L243.309 138.38C243.377 137.564 243.748 136.803 244.35 136.247C244.952 135.692 245.74 135.382 246.559 135.38H377.399C377.844 135.381 378.285 135.472 378.694 135.65C379.103 135.827 379.471 136.086 379.775 136.412C380.08 136.737 380.314 137.121 380.465 137.54C380.615 137.96 380.678 138.406 380.649 138.85L365.329 375.12C365.276 375.946 364.91 376.721 364.307 377.287C363.703 377.854 362.907 378.169 362.079 378.17Z" fill="white"/>
<path opacity="0.2" d="M325.577 285.026C340.212 270.859 341.313 248.257 328.038 234.543C314.762 220.83 292.136 221.197 277.502 235.364C262.867 249.531 261.766 272.132 275.042 285.846C288.317 299.56 310.943 299.193 325.577 285.026Z" fill="#136BFB"/>
<path opacity="0.2" d="M297.998 315.26C267.628 315.26 244.518 290.55 246.488 260.18C248.458 229.81 274.758 205.1 305.138 205.1C335.518 205.1 358.618 229.81 356.648 260.18C354.678 290.55 328.338 315.26 297.998 315.26ZM304.998 206.1C275.178 206.1 249.348 230.36 247.418 260.18C245.488 290 268.168 314.26 297.988 314.26C327.808 314.26 353.638 290 355.578 260.18C357.518 230.36 334.858 206.1 304.998 206.1Z" fill="#136BFB"/>
<path d="M293.001 277.49L290.001 271.7C283.501 259.09 268.531 247.82 263.301 244.54L268.241 237.15C274.431 241.03 286.801 250.64 294.561 262.06C308.911 245.06 329.191 227.55 356.341 208.66L360.971 215.66C331.971 235.84 311.101 254.29 297.221 272.07L293.001 277.49Z" fill="#136BFB"/>
<path opacity="0.2" d="M291.58 124.88C293.211 123.302 293.331 120.78 291.849 119.248C290.366 117.717 287.842 117.755 286.211 119.334C284.58 120.913 284.46 123.434 285.943 124.966C287.425 126.497 289.949 126.459 291.58 124.88Z" fill="white"/>
<path opacity="0.2" d="M302.912 118.12H336.002C336.516 118.114 337.026 118.216 337.498 118.418C337.971 118.621 338.396 118.92 338.747 119.297C339.097 119.674 339.365 120.119 339.532 120.605C339.7 121.092 339.765 121.608 339.722 122.12C339.64 123.195 339.16 124.201 338.375 124.94C337.591 125.68 336.559 126.101 335.482 126.12H302.402C301.887 126.124 301.378 126.022 300.905 125.819C300.433 125.616 300.008 125.317 299.657 124.94C299.306 124.564 299.037 124.119 298.868 123.634C298.698 123.148 298.631 122.633 298.672 122.12C298.754 121.045 299.233 120.04 300.018 119.3C300.802 118.56 301.834 118.139 302.912 118.12Z" fill="white"/>
<path d="M179.739 192C178.049 193.73 176.239 195.64 174.569 197.54C172.899 199.44 171.229 201.39 169.659 203.39C168.089 205.39 166.659 207.39 165.179 209.5L164.179 211.07L163.179 212.66C162.849 213.19 162.549 213.73 162.259 214.28L161.459 215.75C161.133 216.591 160.947 217.479 160.909 218.38C160.829 219.539 160.829 220.701 160.909 221.86C161.105 224.36 161.439 226.847 161.909 229.31C162.349 231.83 162.909 234.36 163.499 236.88C164.089 239.4 164.739 241.95 165.399 244.43L161.699 245.82C159.426 240.929 157.52 235.875 155.999 230.7C155.227 228.033 154.635 225.317 154.229 222.57C154.027 221.105 153.923 219.629 153.919 218.15C153.896 216.408 154.191 214.676 154.789 213.04C155.019 212.48 155.139 212.26 155.299 211.92L155.759 210.97C156.059 210.34 156.369 209.71 156.759 209.1L157.759 207.26L158.819 205.47C160.232 203.112 161.771 200.832 163.429 198.64C165.069 196.45 166.769 194.32 168.559 192.26C170.349 190.2 172.159 188.26 174.239 186.26L179.739 192Z" fill="#B55B52"/>
<path d="M180.172 180C174.752 180.24 169.602 189.24 169.602 189.24L176.762 203.85C176.762 203.85 186.462 195.77 186.582 187.85C186.662 182.66 185.502 179.75 180.172 180Z" fill="#136BFB"/>
<path opacity="0.7" d="M180.172 180C174.752 180.24 169.602 189.24 169.602 189.24L176.762 203.85C176.762 203.85 186.462 195.77 186.582 187.85C186.662 182.66 185.502 179.75 180.172 180Z" fill="white"/>
<path opacity="0.2" d="M181.459 190.5C179.879 192.89 179.119 199.09 178.879 201.85C181.265 199.53 183.288 196.863 184.879 193.94C183.809 191.27 182.499 188.93 181.459 190.5Z" fill="black"/>
<path d="M164.331 242.91L170.921 244.91L166.531 249.35C166.531 249.35 161.781 247.88 161.121 244.65L164.331 242.91Z" fill="#B55B52"/>
<path d="M174.911 249.94L173.801 254.19L166.531 249.31L170.921 244.87L174.911 249.94Z" fill="#B55B52"/>
<path d="M218.271 162.65C218.061 163.24 218.211 163.84 218.601 163.98C218.991 164.12 219.471 163.77 219.671 163.18C219.871 162.59 219.731 161.98 219.341 161.84C218.951 161.7 218.481 162.05 218.271 162.65Z" fill="#263238"/>
<path d="M219.16 161.81L220.73 161.94C220.73 161.94 219.61 162.77 219.16 161.81Z" fill="#263238"/>
<path d="M218.571 163.41C218.63 164.966 218.899 166.507 219.371 167.99C218.989 168.09 218.591 168.106 218.202 168.037C217.814 167.968 217.445 167.815 217.121 167.59L218.571 163.41Z" fill="#A02724"/>
<path d="M220.208 160.34C220.137 160.33 220.07 160.299 220.017 160.251C219.963 160.203 219.925 160.14 219.908 160.07C219.799 159.618 219.588 159.197 219.291 158.838C218.995 158.48 218.621 158.193 218.198 158C218.107 157.966 218.033 157.898 217.992 157.81C217.951 157.722 217.946 157.622 217.978 157.53C217.994 157.484 218.018 157.442 218.051 157.406C218.083 157.37 218.122 157.341 218.166 157.32C218.21 157.3 218.258 157.288 218.306 157.286C218.355 157.285 218.403 157.293 218.448 157.31C218.992 157.547 219.473 157.908 219.852 158.365C220.231 158.822 220.497 159.361 220.628 159.94C220.64 159.987 220.643 160.037 220.635 160.085C220.628 160.133 220.612 160.179 220.587 160.221C220.562 160.263 220.529 160.3 220.489 160.329C220.45 160.357 220.405 160.378 220.358 160.39L220.208 160.34Z" fill="#263238"/>
<path d="M197.73 165.16C197.87 169.89 197.39 178.4 193.73 180.81C193.73 180.81 194.22 185.67 202.73 187.32C212.08 189.13 207.96 183.57 207.96 183.57C203.06 181.37 203.81 177.63 205.28 174.27L197.73 165.16Z" fill="#B55B52"/>
<path d="M225.52 197.53C226.36 199.82 227.32 202.3 228.34 204.65C229.36 207 230.34 209.38 231.53 211.65C232.72 213.92 233.88 216.2 235.14 218.41C235.79 219.5 236.44 220.59 237.14 221.63C237.48 222.17 237.83 222.69 238.2 223.18L238.74 223.94L239.01 224.33L239.15 224.52L239.24 224.62C239.89 225.36 240.637 226.009 241.46 226.55C242.451 227.227 243.479 227.848 244.54 228.41C246.73 229.59 249.08 230.66 251.47 231.67C253.86 232.68 256.3 233.67 258.77 234.54C261.24 235.41 263.77 236.33 266.2 237.18L265.27 241.03C259.911 240.134 254.616 238.888 249.42 237.3C246.759 236.489 244.148 235.524 241.6 234.41C240.263 233.817 238.961 233.149 237.7 232.41C236.236 231.576 234.91 230.52 233.77 229.28L233.53 229.01L233.36 228.8L233.03 228.39L232.37 227.55C231.92 227 231.49 226.44 231.09 225.87C230.24 224.74 229.46 223.58 228.69 222.41C227.172 220.089 225.774 217.693 224.5 215.23C223.23 212.78 222.03 210.31 220.93 207.79C219.83 205.27 218.84 202.79 217.93 200.03L225.52 197.53Z" fill="#B55B52"/>
<path d="M264.878 237.16L270.778 234.88L270.488 241.69C270.488 241.69 265.708 242.96 263.488 240.55L264.878 237.16Z" fill="#B55B52"/>
<path d="M275.228 237.22L277.248 241.57L270.488 241.69L270.778 234.88L275.228 237.22Z" fill="#B55B52"/>
<path d="M177.379 407.89L185.189 408.47L187.509 390.54L179.699 389.96L177.379 407.89Z" fill="#B55B52"/>
<path d="M115.52 367.33L120.62 373.39L135.76 363.66L130.66 357.6L115.52 367.33Z" fill="#B55B52"/>
<path d="M123 372.61L118.89 364.71C118.825 364.573 118.711 364.465 118.571 364.406C118.431 364.347 118.274 364.341 118.13 364.39L111.6 366.65C111.436 366.716 111.288 366.816 111.166 366.943C111.043 367.071 110.949 367.222 110.89 367.389C110.83 367.555 110.806 367.732 110.82 367.908C110.834 368.084 110.885 368.255 110.97 368.41C112.45 371.14 113.3 372.41 115.1 375.86C116.22 377.99 117.63 381.23 119.16 384.18C120.69 387.13 123.61 385.82 123.23 384.45C121.51 378.34 122.65 376.65 123.23 374C123.312 373.524 123.231 373.034 123 372.61Z" fill="#263238"/>
<path d="M185.68 407.36H176.9C176.749 407.358 176.602 407.411 176.486 407.508C176.371 407.605 176.294 407.741 176.27 407.89L175.09 414.83C175.066 415.003 175.079 415.179 175.128 415.347C175.178 415.515 175.263 415.669 175.378 415.801C175.493 415.933 175.634 416.039 175.793 416.111C175.953 416.183 176.125 416.22 176.3 416.22C179.37 416.17 180.84 415.99 184.7 415.99C187.08 415.99 191.98 416.24 195.26 416.24C198.54 416.24 198.8 413 197.44 412.7C191.35 411.39 188.99 409.57 186.97 407.84C186.614 407.527 186.154 407.356 185.68 407.36Z" fill="#263238"/>
<path opacity="0.2" d="M187.511 390.54L186.221 400.51L178.441 399.73L179.701 389.97L187.511 390.54Z" fill="black"/>
<path opacity="0.2" d="M130.659 357.6L135.759 363.66L129.489 367.69L124.199 361.75L130.659 357.6Z" fill="black"/>
<path d="M178 227.55L209.32 233.62C224.12 190.05 220.58 188.62 220.58 188.62C218.279 187.377 215.905 186.275 213.47 185.32L213.04 185.16C211.04 184.43 210.62 184.32 207.94 183.54C203.32 182.45 199.03 181.54 193.72 180.79L192.72 180.65C191.72 180.53 190.8 180.43 189.88 180.34C189.26 180.27 188.64 180.23 188.05 180.19L186.05 180.08C182.63 179.91 180.18 179.96 180.18 179.96C181.9 207.17 180.59 215 178 227.55Z" fill="#136BFB"/>
<path opacity="0.7" d="M178 227.55L209.32 233.62C224.12 190.05 220.58 188.62 220.58 188.62C218.279 187.377 215.905 186.275 213.47 185.32L213.04 185.16C211.04 184.43 210.62 184.32 207.94 183.54C203.32 182.45 199.03 181.54 193.72 180.79L192.72 180.65C191.72 180.53 190.8 180.43 189.88 180.34C189.26 180.27 188.64 180.23 188.05 180.19L186.05 180.08C182.63 179.91 180.18 179.96 180.18 179.96C181.9 207.17 180.59 215 178 227.55Z" fill="white"/>
<path opacity="0.2" d="M216.08 198.79L213.25 198.33C213.25 202.06 214.67 208.46 216.05 212.53C217.22 208.53 218.13 205.24 218.82 202.47L216.08 198.79Z" fill="black"/>
<path d="M219.489 188.09C224.119 189.57 227.489 198.73 228.749 202.68L219.749 213.25C219.749 213.25 210.529 200 211.999 195.89C213.439 191.61 217.249 187.36 219.489 188.09Z" fill="#136BFB"/>
<path opacity="0.7" d="M219.489 188.09C224.119 189.57 227.489 198.73 228.749 202.68L219.749 213.25C219.749 213.25 210.529 200 211.999 195.89C213.439 191.61 217.249 187.36 219.489 188.09Z" fill="white"/>
<path d="M222.491 154.27C221.561 157 217.491 158.09 213.441 156.72C209.391 155.35 206.831 152 207.761 149.27C208.691 146.54 212.761 145.45 216.761 146.83C220.761 148.21 223.411 151.54 222.491 154.27Z" fill="#263238"/>
<path d="M199.001 153.52C196.921 160.96 195.881 164.06 198.261 169.18C201.841 176.89 211.421 178.1 215.681 171.49C219.511 165.55 222.271 154.38 216.151 148.79C214.86 147.542 213.265 146.652 211.525 146.208C209.784 145.765 207.958 145.782 206.226 146.26C204.495 146.738 202.918 147.658 201.651 148.932C200.384 150.205 199.471 151.786 199.001 153.52Z" fill="#B55B52"/>
<path d="M210.618 144.83C207.618 146.55 201.248 135.78 193.338 144.83C187.678 151.32 191.288 160.83 191.288 160.83C191.288 160.83 186.778 152.9 183.178 156.77C178.478 161.77 183.338 179.66 198.838 178.43C214.338 177.2 212.838 164.62 212.838 164.62C212.838 164.62 220.098 157.24 219.738 150.62C219.468 145.66 215.618 142 210.618 144.83Z" fill="#263238"/>
<path d="M212.5 159.91C212.114 161.295 212.162 162.764 212.64 164.12C213.28 166.03 214.75 166.04 215.53 164.72C216.31 163.4 216.74 161.11 215.63 159.57C214.52 158.03 213 158.38 212.5 159.91Z" fill="#B55B52"/>
<path d="M201.001 232C201.001 232 197.661 243.58 193.371 258.86C190.521 269.04 187.241 280.86 184.251 291.99C182.541 298.36 180.931 304.5 179.541 309.99C171.681 341.04 132.481 367.73 132.481 367.73L124.891 359.38C124.891 359.38 151.231 337.2 158.891 308.23C174.361 249.42 165.661 239.5 177.991 227.55L201.001 232Z" fill="#263238"/>
<path opacity="0.2" d="M197.619 242.38C196.459 246.87 194.999 252.54 193.389 258.88C190.539 269.06 187.259 280.88 184.269 292.01C182.989 277.81 182.269 251.7 192.719 243.58C194.779 242 196.409 241.67 197.619 242.38Z" fill="black"/>
<path d="M133.128 368.93L123.648 358.5L126.518 355.62L138.148 366.58L133.128 368.93Z" fill="#136BFB"/>
<path opacity="0.7" d="M133.128 368.93L123.648 358.5L126.518 355.62L138.148 366.58L133.128 368.93Z" fill="white"/>
<path d="M124.431 376.85C124.335 376.848 124.241 376.831 124.151 376.8C123.221 376.46 122.631 374.68 122.361 373.65C122.352 373.615 122.354 373.578 122.367 373.544C122.379 373.51 122.401 373.481 122.431 373.46C122.46 373.439 122.495 373.427 122.531 373.427C122.567 373.427 122.602 373.439 122.631 373.46C122.911 373.62 125.371 375.06 125.421 376.07C125.429 376.18 125.407 376.29 125.358 376.389C125.309 376.487 125.234 376.571 125.141 376.63C124.936 376.783 124.686 376.86 124.431 376.85ZM122.841 374C123.251 375.35 123.771 376.26 124.281 376.44C124.39 376.474 124.506 376.48 124.617 376.457C124.729 376.434 124.834 376.384 124.921 376.31C125.051 376.22 125.061 376.13 125.051 376.07C125.001 375.55 123.811 374.61 122.841 374Z" fill="#136BFB"/>
<path d="M208.818 233.62C208.818 233.62 210.818 295.44 206.398 318.73C201.858 343 187.998 398 187.998 398L176.738 396.55C176.738 396.55 183.858 340.89 186.888 316.83C190.178 290.59 185.888 229.14 185.888 229.14L208.818 233.62Z" fill="#263238"/>
<path d="M190.421 398.69L174.371 396.62L174.561 392.8L192.031 393.56L190.421 398.69Z" fill="#136BFB"/>
<path opacity="0.7" d="M190.421 398.69L174.371 396.62L174.561 392.8L192.031 393.56L190.421 398.69Z" fill="white"/>
<path d="M124.812 374.43C123.981 374.39 123.17 374.161 122.442 373.76C122.414 373.743 122.392 373.72 122.376 373.692C122.36 373.664 122.352 373.632 122.352 373.6C122.356 373.568 122.367 373.537 122.384 373.509C122.402 373.482 122.425 373.458 122.452 373.44C122.542 373.44 124.452 372.39 125.552 372.8C125.689 372.85 125.815 372.93 125.918 373.033C126.022 373.137 126.102 373.262 126.152 373.4C126.217 373.533 126.236 373.684 126.205 373.83C126.175 373.975 126.096 374.105 125.982 374.2C125.626 374.4 125.216 374.481 124.812 374.43ZM122.942 373.62C123.812 374.02 125.332 374.24 125.752 373.91C125.822 373.85 125.892 373.76 125.752 373.53C125.722 373.442 125.672 373.361 125.606 373.295C125.541 373.229 125.46 373.18 125.372 373.15C124.533 373.056 123.685 373.22 122.942 373.62Z" fill="#136BFB"/>
<path d="M188.579 408.72C187.755 408.703 186.935 408.609 186.129 408.44C186.09 408.436 186.055 408.419 186.027 408.391C186 408.364 185.983 408.328 185.979 408.29C185.973 408.252 185.979 408.213 185.997 408.179C186.015 408.144 186.044 408.117 186.079 408.1C186.439 407.91 189.599 406.32 190.539 406.85C190.628 406.899 190.703 406.972 190.756 407.06C190.809 407.147 190.837 407.248 190.839 407.35C190.858 407.517 190.835 407.686 190.773 407.841C190.71 407.997 190.609 408.134 190.479 408.24C189.917 408.608 189.248 408.777 188.579 408.72ZM186.749 408.18C188.469 408.47 189.749 408.39 190.239 407.97C190.323 407.896 190.388 407.803 190.428 407.698C190.468 407.594 190.482 407.481 190.469 407.37C190.472 407.33 190.463 407.289 190.443 407.254C190.424 407.218 190.394 407.189 190.359 407.17C189.849 406.89 188.049 407.56 186.749 408.18Z" fill="#136BFB"/>
<path d="M186.171 408.45C186.135 408.46 186.097 408.46 186.061 408.45C186.034 408.431 186.013 408.406 185.999 408.376C185.985 408.346 185.978 408.313 185.981 408.28C185.981 408.14 186.371 404.76 188.261 404.96C188.761 405.01 188.911 405.26 188.941 405.47C189.081 406.35 187.191 408.05 186.241 408.47L186.171 408.45ZM188.111 405.28C186.991 405.28 186.541 407.13 186.401 407.93C187.401 407.35 188.661 406.02 188.581 405.49C188.581 405.49 188.581 405.32 188.221 405.29L188.111 405.28Z" fill="#136BFB"/>
<path d="M177.799 225.64L175.929 228.15C175.789 228.35 176.009 228.62 176.369 228.69L209.219 235.05C209.499 235.05 209.759 235.05 209.799 234.84L210.549 232.1C210.549 231.92 210.379 231.7 210.069 231.64L178.349 225.5C178.253 225.474 178.152 225.474 178.056 225.498C177.96 225.523 177.871 225.572 177.799 225.64Z" fill="#136BFB"/>
<path d="M181.48 230L180.63 229.83C180.46 229.83 180.35 229.69 180.38 229.59L181.38 226.04C181.38 225.94 181.58 225.88 181.74 225.91L182.59 226.08C182.76 226.08 182.88 226.22 182.85 226.32L181.85 229.87C181.81 230 181.65 230 181.48 230Z" fill="#263238"/>
<path d="M202.929 234.19L202.079 234.03C201.909 234.03 201.799 233.88 201.829 233.78L202.829 230.24C202.829 230.13 203.019 230.07 203.189 230.11L204.039 230.27C204.199 230.27 204.319 230.42 204.289 230.52L203.289 234.06C203.259 234.17 203.099 234.23 202.929 234.19Z" fill="#263238"/>
</svg>
