<svg width="501" height="500" viewBox="0 0 501 500" fill="none" xmlns="http://www.w3.org/2000/svg">
<g clip-path="url(#clip0_21507_19935)">
<path d="M500.5 382.4H0.5V382.65H500.5V382.4Z" fill="#EBEBEB"/>
<path d="M322.018 396.34H288.898V396.59H322.018V396.34Z" fill="#EBEBEB"/>
<path d="M416.268 393.63H407.578V393.88H416.268V393.63Z" fill="#EBEBEB"/>
<path d="M397.092 389.21H328.172V389.46H397.092V389.21Z" fill="#EBEBEB"/>
<path d="M225.64 395.11H195.34V395.36H225.64V395.11Z" fill="#EBEBEB"/>
<path d="M186.439 395.11H167.219V395.36H186.439V395.11Z" fill="#EBEBEB"/>
<path d="M99.8009 390.89H52.9609V391.14H99.8009V390.89Z" fill="#EBEBEB"/>
<path d="M237.501 337.8H44.4109C42.8983 337.797 41.4485 337.195 40.3798 336.124C39.3112 335.053 38.7109 333.603 38.7109 332.09V60.66C38.7241 59.156 39.3301 57.718 40.3974 56.6582C41.4646 55.5985 42.9069 55.0026 44.4109 55H237.501C239.015 55 240.468 55.6016 241.539 56.6724C242.609 57.7433 243.211 59.1956 243.211 60.71V332.09C243.211 333.604 242.609 335.057 241.539 336.128C240.468 337.198 239.015 337.8 237.501 337.8ZM44.4109 55.2C42.9646 55.2026 41.5784 55.7791 40.5566 56.8027C39.5348 57.8264 38.9609 59.2136 38.9609 60.66V332.09C38.9609 333.536 39.5348 334.924 40.5566 335.947C41.5784 336.971 42.9646 337.547 44.4109 337.55H237.501C238.948 337.547 240.335 336.971 241.359 335.948C242.382 334.924 242.958 333.537 242.961 332.09V60.66C242.958 59.2127 242.382 57.8255 241.359 56.8021C240.335 55.7787 238.948 55.2026 237.501 55.2H44.4109Z" fill="#EBEBEB"/>
<path d="M453.81 337.8H260.71C259.196 337.797 257.746 337.195 256.675 336.125C255.605 335.054 255.003 333.604 255 332.09V60.66C255.016 59.1551 255.624 57.7171 256.693 56.6576C257.762 55.5981 259.205 55.0025 260.71 55H453.81C455.312 55.0052 456.752 55.6022 457.817 56.6617C458.882 57.7212 459.487 59.1578 459.5 60.66V332.09C459.5 333.601 458.901 335.05 457.835 336.121C456.768 337.191 455.321 337.795 453.81 337.8ZM260.71 55.2C259.263 55.2026 257.875 55.7787 256.852 56.8021C255.829 57.8255 255.253 59.2127 255.25 60.66V332.09C255.253 333.537 255.829 334.924 256.852 335.948C257.875 336.971 259.263 337.547 260.71 337.55H453.81C455.257 337.547 456.645 336.971 457.668 335.948C458.691 334.924 459.267 333.537 459.27 332.09V60.66C459.267 59.2127 458.691 57.8255 457.668 56.8021C456.645 55.7787 455.257 55.2026 453.81 55.2H260.71Z" fill="#EBEBEB"/>
<path d="M57.8389 234.75L228.129 234.75L228.129 77.97L57.8389 77.97L57.8389 234.75Z" fill="#E6E6E6"/>
<path d="M53.7911 234.75L226.371 234.75L226.371 77.97L53.7911 77.97L53.7911 234.75Z" fill="#F5F5F5"/>
<path d="M219.121 226.91V85.81L61.0511 85.81V226.91H219.121Z" fill="#FAFAFA"/>
<path d="M199.591 226.9L146.431 85.81H124.051L177.211 226.9H199.591Z" fill="white"/>
<path d="M170.861 226.9L117.711 85.81H102.301L155.451 226.9H170.861Z" fill="white"/>
<path d="M123.211 226.91L123.211 85.81H114.551L114.551 226.91H123.211Z" fill="#E6E6E6"/>
<path d="M171.41 226.9V85.8H162.75V226.9H171.41Z" fill="#E6E6E6"/>
<path d="M121.66 231.87L121.66 79.97H110.72L110.72 231.87H121.66Z" fill="#F5F5F5"/>
<path d="M169.852 231.88V79.98H158.912V231.88H169.852Z" fill="#F5F5F5"/>
<path d="M61.8203 226.91L61.8203 85.81H61.0503L61.0503 226.91H61.8203Z" fill="#E6E6E6"/>
<path d="M446.381 79.4H271.191V201.94H446.381V79.4Z" fill="#EBEBEB"/>
<path d="M446.372 201.94H447.852V79.4H446.372V201.94Z" fill="#E0E0E0"/>
<path d="M440.238 195.8V85.53L277.328 85.53V195.8H440.238Z" fill="white" fill-opacity="0.5"/>
<path d="M278.551 195.8V85.53H277.331V195.8H278.551Z" fill="#E0E0E0"/>
<path d="M420.851 97.43H381.051V153.35H420.851V97.43Z" fill="#F5F5F5"/>
<path d="M329.89 107.79H290.09V163.71H329.89V107.79Z" fill="#F5F5F5"/>
<path d="M393.312 121.7H353.512V177.62H393.312V121.7Z" fill="#EBEBEB"/>
<path d="M338.731 124.16H323.191V139.7H338.731V124.16Z" fill="#F5F5F5"/>
<path d="M334.22 155.94H318.68V171.48H334.22V155.94Z" fill="#F0F0F0"/>
<path d="M409.602 375.21C409.602 373.788 410.024 372.397 410.814 371.214C411.604 370.032 412.728 369.11 414.042 368.566C415.357 368.022 416.803 367.881 418.198 368.159C419.593 368.437 420.874 369.123 421.879 370.129C422.884 371.136 423.568 372.418 423.845 373.813C424.121 375.209 423.977 376.655 423.431 377.968C422.886 379.282 421.963 380.404 420.779 381.193C419.595 381.982 418.204 382.402 416.782 382.4C414.876 382.397 413.05 381.639 411.704 380.291C410.358 378.942 409.602 377.115 409.602 375.21Z" fill="#E0E0E0"/>
<path d="M421.719 375.21C421.719 373.788 422.14 372.398 422.93 371.215C423.721 370.033 424.843 369.112 426.157 368.567C427.471 368.023 428.917 367.881 430.311 368.158C431.706 368.436 432.987 369.12 433.993 370.126C434.998 371.131 435.683 372.413 435.961 373.807C436.238 375.202 436.096 376.648 435.551 377.962C435.007 379.275 434.086 380.398 432.903 381.188C431.721 381.978 430.331 382.4 428.909 382.4C427.002 382.4 425.173 381.643 423.825 380.294C422.476 378.946 421.719 377.117 421.719 375.21Z" fill="#E0E0E0"/>
<path d="M223.172 375.21C223.172 373.788 223.594 372.398 224.384 371.215C225.174 370.033 226.297 369.112 227.61 368.567C228.924 368.023 230.37 367.881 231.765 368.158C233.159 368.436 234.44 369.12 235.446 370.126C236.452 371.131 237.136 372.413 237.414 373.807C237.691 375.202 237.549 376.648 237.005 377.962C236.46 379.275 235.539 380.398 234.356 381.188C233.174 381.978 231.784 382.4 230.362 382.4C228.455 382.4 226.626 381.643 225.278 380.294C223.929 378.946 223.172 377.117 223.172 375.21Z" fill="#E0E0E0"/>
<path d="M235.301 375.21C235.301 373.788 235.722 372.399 236.512 371.217C237.301 370.034 238.424 369.113 239.737 368.568C241.05 368.024 242.495 367.881 243.89 368.157C245.284 368.434 246.565 369.118 247.571 370.122C248.577 371.127 249.263 372.407 249.541 373.801C249.82 375.195 249.679 376.641 249.136 377.955C248.594 379.269 247.674 380.392 246.493 381.183C245.312 381.975 243.922 382.398 242.501 382.4C241.556 382.401 240.62 382.216 239.746 381.856C238.873 381.495 238.079 380.965 237.41 380.298C236.742 379.63 236.211 378.837 235.849 377.964C235.487 377.091 235.301 376.155 235.301 375.21Z" fill="#E0E0E0"/>
<path d="M422.029 376.2H439.039V223H422.029V376.2Z" fill="#EBEBEB"/>
<path d="M422.039 223H221.699V376.2H422.039V223Z" fill="#F5F5F5"/>
<path d="M415.521 229.29H228.211V369.92H415.521V229.29Z" fill="#EBEBEB"/>
<path d="M412.859 288.43H230.879V367.32H412.859V288.43Z" fill="#F5F5F5"/>
<path d="M412.859 232.25H230.879V286.44H412.859V232.25Z" fill="#F5F5F5"/>
<path d="M263.99 289.77H379.75C380.104 289.767 380.442 289.625 380.691 289.374C380.94 289.123 381.08 288.784 381.08 288.43C381.078 288.078 380.937 287.741 380.688 287.492C380.439 287.244 380.102 287.103 379.75 287.1H263.99C263.638 287.103 263.301 287.244 263.053 287.492C262.804 287.741 262.663 288.078 262.66 288.43C262.66 288.784 262.8 289.123 263.049 289.374C263.298 289.625 263.636 289.767 263.99 289.77Z" fill="#EBEBEB"/>
<path d="M263.99 233.58H379.75C380.102 233.577 380.439 233.436 380.688 233.188C380.937 232.939 381.078 232.602 381.08 232.25C381.08 231.896 380.94 231.557 380.691 231.306C380.442 231.055 380.104 230.913 379.75 230.91H263.99C263.636 230.913 263.298 231.055 263.049 231.306C262.8 231.557 262.66 231.896 262.66 232.25C262.663 232.602 262.804 232.939 263.053 233.188C263.301 233.436 263.638 233.577 263.99 233.58Z" fill="#EBEBEB"/>
<path d="M152.63 304.17H64.4102V382.39H152.63V304.17Z" fill="#F5F5F5"/>
<path d="M152.632 382.4H186.922V304.18H152.632V382.4Z" fill="#EBEBEB"/>
<path d="M154.539 290.45H60.0586V304.17H154.539V290.45Z" fill="#EBEBEB"/>
<path d="M154.532 304.18H191.262V290.46H154.532V304.18Z" fill="#E0E0E0"/>
<path d="M250.499 427.56C357.582 427.56 444.389 422.492 444.389 416.24C444.389 409.988 357.582 404.92 250.499 404.92C143.417 404.92 56.6094 409.988 56.6094 416.24C56.6094 422.492 143.417 427.56 250.499 427.56Z" fill="#F5F5F5"/>
<path d="M409.191 186.89H408.191V198.81H409.191V186.89Z" fill="#136BFB"/>
<path d="M409.191 152.75H408.191V178.55H409.191V152.75Z" fill="#136BFB"/>
<path d="M394.67 131.91H154.9C150.951 131.91 147.75 135.111 147.75 139.06V268.04C147.75 271.989 150.951 275.19 154.9 275.19H394.67C398.619 275.19 401.82 271.989 401.82 268.04V139.06C401.82 135.111 398.619 131.91 394.67 131.91Z" fill="#E0E0E0"/>
<path d="M398.318 128.26H158.548C154.6 128.26 151.398 131.461 151.398 135.41V264.39C151.398 268.339 154.6 271.54 158.548 271.54H398.318C402.267 271.54 405.468 268.339 405.468 264.39V135.41C405.468 131.461 402.267 128.26 398.318 128.26Z" fill="white" fill-opacity="0.5"/>
<path d="M398.328 272H158.548C156.52 271.997 154.576 271.191 153.142 269.756C151.708 268.322 150.901 266.378 150.898 264.35V135.35C150.901 133.322 151.708 131.378 153.142 129.944C154.576 128.509 156.52 127.703 158.548 127.7H398.328C400.357 127.703 402.301 128.509 403.735 129.944C405.169 131.378 405.976 133.322 405.978 135.35V264.35C405.976 266.378 405.169 268.322 403.735 269.756C402.301 271.191 400.357 271.997 398.328 272ZM158.548 128.76C156.786 128.763 155.096 129.464 153.849 130.711C152.603 131.957 151.901 133.647 151.898 135.41V264.41C151.901 266.173 152.603 267.863 153.849 269.109C155.096 270.356 156.786 271.057 158.548 271.06H398.328C400.091 271.057 401.781 270.356 403.028 269.109C404.274 267.863 404.976 266.173 404.978 264.41V135.41C404.976 133.647 404.274 131.957 403.028 130.711C401.781 129.464 400.091 128.763 398.328 128.76H158.548Z" fill="#136BFB"/>
<path d="M263.302 190.49H170.892C169.904 190.487 168.958 190.093 168.261 189.394C167.563 188.695 167.172 187.748 167.172 186.76V174C167.172 173.012 167.563 172.065 168.261 171.366C168.958 170.667 169.904 170.273 170.892 170.27H263.302C264.289 170.273 265.236 170.667 265.933 171.366C266.63 172.065 267.022 173.012 267.022 174V186.73C267.026 187.222 266.933 187.709 266.748 188.164C266.562 188.62 266.289 189.034 265.944 189.383C265.598 189.733 265.187 190.01 264.733 190.2C264.28 190.39 263.793 190.489 263.302 190.49ZM170.892 171.3C170.17 171.303 169.478 171.591 168.968 172.103C168.458 172.615 168.172 173.308 168.172 174.03V186.76C168.171 187.118 168.24 187.473 168.376 187.804C168.512 188.135 168.712 188.436 168.965 188.69C169.218 188.943 169.518 189.145 169.849 189.282C170.179 189.419 170.534 189.49 170.892 189.49H263.302C263.66 189.49 264.014 189.419 264.345 189.282C264.676 189.145 264.976 188.943 265.229 188.69C265.481 188.436 265.682 188.135 265.818 187.804C265.954 187.473 266.023 187.118 266.022 186.76V174C266.022 173.278 265.736 172.585 265.226 172.073C264.716 171.561 264.024 171.273 263.302 171.27L170.892 171.3Z" fill="#E0E0E0"/>
<path d="M311.982 217.48H170.892C169.906 217.477 168.961 217.085 168.264 216.388C167.567 215.69 167.175 214.746 167.172 213.76V201C167.172 200.012 167.563 199.065 168.261 198.366C168.958 197.667 169.904 197.273 170.892 197.27H311.982C312.969 197.273 313.916 197.667 314.613 198.366C315.31 199.065 315.702 200.012 315.702 201V213.74C315.703 214.23 315.608 214.715 315.422 215.168C315.236 215.621 314.962 216.033 314.616 216.38C314.271 216.728 313.861 217.004 313.409 217.192C312.956 217.381 312.472 217.479 311.982 217.48ZM170.892 198.29C170.17 198.293 169.478 198.581 168.968 199.093C168.458 199.605 168.172 200.298 168.172 201.02V213.76C168.172 214.481 168.458 215.173 168.969 215.683C169.479 216.193 170.17 216.48 170.892 216.48H311.982C312.703 216.48 313.395 216.193 313.905 215.683C314.415 215.173 314.702 214.481 314.702 213.76V201C314.702 200.278 314.416 199.585 313.906 199.073C313.396 198.561 312.704 198.273 311.982 198.27L170.892 198.29Z" fill="#E0E0E0"/>
<path d="M171.961 211.4C171.828 211.4 171.701 211.347 171.607 211.254C171.514 211.16 171.461 211.033 171.461 210.9V203.9C171.461 203.767 171.514 203.64 171.607 203.546C171.701 203.453 171.828 203.4 171.961 203.4C172.094 203.4 172.221 203.453 172.314 203.546C172.408 203.64 172.461 203.767 172.461 203.9V210.9C172.461 211.033 172.408 211.16 172.314 211.254C172.221 211.347 172.094 211.4 171.961 211.4Z" fill="#E0E0E0"/>
<path d="M374.071 190.49H281.661C280.674 190.487 279.728 190.093 279.03 189.394C278.333 188.695 277.941 187.748 277.941 186.76V174C277.941 173.012 278.333 172.065 279.03 171.366C279.728 170.667 280.674 170.273 281.661 170.27H374.071C375.059 170.273 376.005 170.667 376.702 171.366C377.4 172.065 377.791 173.012 377.791 174V186.73C377.795 187.222 377.702 187.709 377.517 188.164C377.332 188.62 377.059 189.034 376.713 189.383C376.367 189.733 375.956 190.01 375.503 190.2C375.049 190.39 374.563 190.489 374.071 190.49ZM281.661 171.3C280.939 171.303 280.247 171.591 279.737 172.103C279.228 172.615 278.941 173.308 278.941 174.03V186.76C278.94 187.118 279.009 187.473 279.146 187.804C279.282 188.135 279.482 188.436 279.735 188.69C279.987 188.943 280.288 189.145 280.618 189.282C280.949 189.419 281.303 189.49 281.661 189.49H374.071C374.429 189.49 374.784 189.419 375.115 189.282C375.445 189.145 375.746 188.943 375.998 188.69C376.251 188.436 376.451 188.135 376.587 187.804C376.723 187.473 376.793 187.118 376.791 186.76V174C376.791 173.278 376.505 172.585 375.995 172.073C375.486 171.561 374.794 171.273 374.071 171.27L281.661 171.3Z" fill="#E0E0E0"/>
<path opacity="0.2" d="M231.012 152.75H171.782C170.693 152.747 169.649 152.314 168.879 151.543C168.108 150.773 167.675 149.729 167.672 148.64C167.675 147.551 168.108 146.507 168.879 145.737C169.649 144.967 170.693 144.533 171.782 144.53H231.012C232.101 144.533 233.145 144.967 233.915 145.737C234.685 146.507 235.119 147.551 235.122 148.64C235.119 149.729 234.685 150.773 233.915 151.543C233.145 152.314 232.101 152.747 231.012 152.75Z" fill="#136BFB"/>
<path opacity="0.2" d="M247.308 232H183.128C182.694 231.997 182.279 231.824 181.972 231.517C181.665 231.21 181.491 230.794 181.488 230.36C181.491 229.926 181.665 229.51 181.972 229.203C182.279 228.896 182.694 228.723 183.128 228.72H247.308C247.741 228.723 248.156 228.897 248.461 229.204C248.767 229.511 248.938 229.927 248.938 230.36C248.938 230.793 248.767 231.209 248.461 231.516C248.156 231.823 247.741 231.997 247.308 232Z" fill="#136BFB"/>
<path d="M170.982 233.7C172.81 233.7 174.292 232.218 174.292 230.39C174.292 228.562 172.81 227.08 170.982 227.08C169.154 227.08 167.672 228.562 167.672 230.39C167.672 232.218 169.154 233.7 170.982 233.7Z" fill="#136BFB"/>
<path d="M282.73 184.41C282.598 184.41 282.471 184.357 282.377 184.264C282.283 184.17 282.23 184.043 282.23 183.91V176.91C282.23 176.777 282.283 176.65 282.377 176.556C282.471 176.463 282.598 176.41 282.73 176.41C282.863 176.41 282.99 176.463 283.084 176.556C283.178 176.65 283.23 176.777 283.23 176.91V183.91C283.23 184.043 283.178 184.17 283.084 184.264C282.99 184.357 282.863 184.41 282.73 184.41Z" fill="#E0E0E0"/>
<path d="M171.961 184.41C171.828 184.41 171.701 184.357 171.607 184.264C171.514 184.17 171.461 184.043 171.461 183.91V176.91C171.461 176.777 171.514 176.65 171.607 176.556C171.701 176.463 171.828 176.41 171.961 176.41C172.094 176.41 172.221 176.463 172.314 176.556C172.408 176.65 172.461 176.777 172.461 176.91V183.91C172.461 184.043 172.408 184.17 172.314 184.264C172.221 184.357 172.094 184.41 171.961 184.41Z" fill="#E0E0E0"/>
<g opacity="0.6">
<path d="M175.941 183.38V177.23H180.091V178H176.761V179.9H179.641V180.63H176.761V183.42L175.941 183.38Z" fill="#263238"/>
<path d="M181.051 178.1V177.23H181.801V178.1H181.051ZM181.051 183.38V178.93H181.801V183.38H181.051Z" fill="#263238"/>
<path d="M182.941 183.38V178.93H183.621V179.6C183.74 179.364 183.903 179.154 184.101 178.98C184.246 178.881 184.417 178.829 184.591 178.83C184.865 178.837 185.132 178.92 185.361 179.07L185.101 179.77C184.936 179.667 184.746 179.611 184.551 179.61C184.39 179.608 184.233 179.657 184.101 179.75C183.968 179.858 183.87 180.005 183.821 180.17C183.739 180.456 183.699 180.752 183.701 181.05V183.38H182.941Z" fill="#263238"/>
<path d="M185.5 182.05L186.24 181.93C186.268 182.195 186.393 182.441 186.59 182.62C186.823 182.794 187.11 182.879 187.4 182.86C187.673 182.88 187.945 182.806 188.17 182.65C188.245 182.589 188.306 182.513 188.349 182.427C188.392 182.341 188.416 182.246 188.42 182.15C188.421 182.07 188.402 181.991 188.363 181.921C188.325 181.851 188.268 181.792 188.2 181.75C187.952 181.63 187.69 181.542 187.42 181.49C187.028 181.4 186.643 181.28 186.27 181.13C186.072 181.04 185.905 180.894 185.79 180.71C185.678 180.53 185.619 180.322 185.62 180.11C185.617 179.914 185.662 179.721 185.751 179.547C185.84 179.372 185.97 179.222 186.13 179.11C186.276 179.009 186.438 178.935 186.61 178.89C186.821 178.829 187.04 178.798 187.26 178.8C187.573 178.793 187.885 178.844 188.18 178.95C188.413 179.026 188.618 179.169 188.77 179.36C188.906 179.568 188.995 179.804 189.03 180.05L188.29 180.15C188.264 179.94 188.16 179.748 188 179.61C187.802 179.471 187.562 179.404 187.32 179.42C187.058 179.394 186.795 179.454 186.57 179.59C186.505 179.635 186.451 179.695 186.413 179.764C186.375 179.833 186.353 179.911 186.35 179.99C186.347 180.085 186.379 180.177 186.44 180.25C186.518 180.343 186.617 180.415 186.73 180.46L187.4 180.65C187.773 180.745 188.14 180.862 188.5 181C188.701 181.078 188.873 181.216 188.993 181.394C189.112 181.573 189.174 181.785 189.17 182C189.171 182.254 189.094 182.501 188.95 182.71C188.795 182.938 188.576 183.116 188.32 183.22C188.025 183.352 187.704 183.417 187.38 183.41C186.912 183.442 186.447 183.315 186.06 183.05C185.759 182.795 185.56 182.44 185.5 182.05Z" fill="#263238"/>
<path d="M191.75 182.7L191.85 183.37C191.662 183.411 191.471 183.434 191.28 183.44C191.062 183.448 190.846 183.403 190.65 183.31C190.509 183.23 190.397 183.107 190.33 182.96C190.251 182.67 190.22 182.37 190.24 182.07V179.51H189.68V178.93H190.24V177.83L190.99 177.37V178.93H191.75V179.51H190.99V182.12C190.966 182.256 190.966 182.394 190.99 182.53C191.015 182.593 191.061 182.646 191.12 182.68C191.202 182.699 191.287 182.699 191.37 182.68L191.75 182.7Z" fill="#263238"/>
<path d="M194.871 183.38V178.93H195.551V179.56C195.7 179.324 195.909 179.132 196.157 179.004C196.405 178.875 196.682 178.815 196.961 178.83C197.215 178.823 197.467 178.871 197.701 178.97C197.902 179.048 198.078 179.18 198.211 179.35C198.327 179.518 198.406 179.709 198.441 179.91C198.463 180.153 198.463 180.397 198.441 180.64V183.38H197.691V180.67C197.702 180.436 197.671 180.203 197.601 179.98C197.541 179.828 197.432 179.701 197.291 179.62C197.131 179.525 196.947 179.476 196.761 179.48C196.455 179.473 196.158 179.584 195.931 179.79C195.796 179.949 195.695 180.134 195.635 180.333C195.574 180.533 195.556 180.743 195.581 180.95V183.38H194.871Z" fill="#263238"/>
<path d="M202.5 182.83C202.26 183.036 201.991 183.205 201.7 183.33C201.432 183.432 201.147 183.482 200.86 183.48C200.455 183.507 200.054 183.378 199.74 183.12C199.61 183.005 199.507 182.864 199.438 182.705C199.369 182.546 199.335 182.373 199.34 182.2C199.339 181.994 199.39 181.791 199.49 181.61C199.584 181.435 199.718 181.284 199.88 181.17C200.044 181.058 200.227 180.977 200.42 180.93C200.641 180.878 200.865 180.838 201.09 180.81C201.548 180.769 202 180.682 202.44 180.55V180.36C202.453 180.243 202.442 180.124 202.405 180.012C202.369 179.9 202.309 179.797 202.23 179.71C201.985 179.521 201.679 179.428 201.37 179.45C201.097 179.428 200.823 179.495 200.59 179.64C200.389 179.808 200.254 180.042 200.21 180.3L199.47 180.2C199.525 179.923 199.637 179.66 199.8 179.43C199.992 179.227 200.233 179.079 200.5 179C200.823 178.896 201.161 178.845 201.5 178.85C201.816 178.839 202.13 178.883 202.43 178.98C202.63 179.046 202.81 179.163 202.95 179.32C203.07 179.467 203.149 179.643 203.18 179.83C203.202 180.063 203.202 180.297 203.18 180.53V181.53C203.153 181.973 203.153 182.417 203.18 182.86C203.213 183.049 203.278 183.232 203.37 183.4H202.58C202.523 183.216 202.496 183.023 202.5 182.83ZM202.44 181.14C202.044 181.288 201.631 181.385 201.21 181.43C200.985 181.45 200.762 181.5 200.55 181.58C200.431 181.632 200.327 181.715 200.25 181.82C200.182 181.928 200.148 182.053 200.15 182.18C200.148 182.277 200.167 182.373 200.207 182.461C200.246 182.55 200.306 182.628 200.38 182.69C200.57 182.833 200.804 182.904 201.04 182.89C201.312 182.892 201.58 182.827 201.82 182.7C202.038 182.579 202.212 182.394 202.32 182.17C202.412 181.931 202.453 181.676 202.44 181.42V181.14Z" fill="#263238"/>
<path d="M204.41 183.38V178.93H205.09V179.55C205.224 179.331 205.414 179.152 205.64 179.03C205.88 178.892 206.153 178.822 206.43 178.83C206.714 178.82 206.994 178.889 207.24 179.03C207.453 179.165 207.612 179.37 207.69 179.61C207.833 179.371 208.035 179.174 208.277 179.037C208.519 178.9 208.792 178.829 209.07 178.83C209.253 178.819 209.435 178.845 209.607 178.907C209.779 178.969 209.937 179.065 210.07 179.19C210.334 179.505 210.464 179.911 210.43 180.32V183.38H209.68V180.57C209.693 180.351 209.669 180.131 209.61 179.92C209.559 179.786 209.463 179.673 209.34 179.6C209.204 179.518 209.048 179.477 208.89 179.48C208.746 179.476 208.602 179.501 208.468 179.554C208.334 179.608 208.212 179.688 208.11 179.79C207.995 179.928 207.908 180.087 207.855 180.259C207.802 180.431 207.783 180.611 207.8 180.79V183.38H207.04V180.49C207.059 180.224 206.996 179.959 206.86 179.73C206.789 179.642 206.697 179.572 206.592 179.529C206.487 179.485 206.373 179.468 206.26 179.48C206.051 179.479 205.847 179.538 205.67 179.65C205.487 179.763 205.349 179.936 205.28 180.14C205.183 180.44 205.139 180.755 205.15 181.07V183.38H204.41Z" fill="#263238"/>
<path d="M214.6 181.94L215.38 182.04C215.282 182.461 215.042 182.836 214.7 183.1C214.272 183.381 213.762 183.512 213.252 183.472C212.742 183.432 212.259 183.224 211.88 182.88C211.477 182.412 211.272 181.806 211.31 181.19C211.27 180.558 211.474 179.936 211.88 179.45C212.072 179.248 212.306 179.088 212.564 178.981C212.822 178.874 213.1 178.823 213.38 178.83C213.652 178.82 213.923 178.868 214.175 178.971C214.427 179.075 214.653 179.231 214.84 179.43C215.243 179.905 215.447 180.518 215.41 181.14C215.414 181.207 215.414 181.273 215.41 181.34H212.1C212.092 181.754 212.238 182.157 212.51 182.47C212.629 182.597 212.773 182.697 212.933 182.764C213.093 182.831 213.266 182.864 213.44 182.86C213.694 182.864 213.942 182.787 214.15 182.64C214.363 182.455 214.52 182.212 214.6 181.94ZM212.13 180.72H214.61C214.601 180.419 214.503 180.127 214.33 179.88C214.217 179.74 214.074 179.628 213.911 179.553C213.747 179.479 213.569 179.443 213.39 179.45C213.229 179.446 213.07 179.474 212.92 179.533C212.771 179.591 212.635 179.679 212.52 179.79C212.276 180.039 212.137 180.372 212.13 180.72Z" fill="#263238"/>
</g>
<g opacity="0.6">
<path d="M175.922 210.37V204.23H180.362V205H176.732V206.88H180.132V207.6H176.732V209.69H180.502V210.42L175.922 210.37Z" fill="#263238"/>
<path d="M181.5 210.37V205.92H182.17V206.54C182.313 206.325 182.505 206.147 182.73 206.02C182.971 205.885 183.244 205.816 183.52 205.82C183.803 205.81 184.084 205.879 184.33 206.02C184.54 206.158 184.698 206.362 184.78 206.6C184.921 206.362 185.121 206.165 185.362 206.028C185.602 205.891 185.874 205.82 186.15 205.82C186.333 205.811 186.516 205.838 186.688 205.902C186.86 205.966 187.017 206.064 187.15 206.19C187.413 206.501 187.543 206.904 187.51 207.31V210.37H186.76V207.57C186.77 207.347 186.743 207.124 186.68 206.91C186.629 206.779 186.538 206.667 186.42 206.59C186.281 206.507 186.122 206.465 185.96 206.47C185.669 206.466 185.389 206.578 185.18 206.78C184.953 207.062 184.842 207.419 184.87 207.78V210.37H184.12V207.48C184.139 207.214 184.076 206.949 183.94 206.72C183.865 206.634 183.77 206.567 183.664 206.523C183.559 206.48 183.444 206.462 183.33 206.47C183.121 206.471 182.917 206.529 182.74 206.64C182.557 206.753 182.419 206.926 182.35 207.13C182.259 207.431 182.218 207.745 182.23 208.06V210.37H181.5Z" fill="#263238"/>
<path d="M191.582 209.82C191.343 210.032 191.069 210.201 190.772 210.32C190.507 210.421 190.226 210.472 189.942 210.47C189.534 210.496 189.13 210.368 188.812 210.11C188.685 209.996 188.585 209.855 188.517 209.698C188.45 209.541 188.418 209.371 188.422 209.2C188.42 208.99 188.471 208.784 188.572 208.6C188.666 208.425 188.8 208.274 188.962 208.16C189.129 208.052 189.311 207.971 189.502 207.92C189.723 207.867 189.947 207.827 190.172 207.8C190.628 207.765 191.077 207.678 191.512 207.54C191.516 207.477 191.516 207.413 191.512 207.35C191.526 207.232 191.514 207.113 191.476 207C191.438 206.888 191.375 206.785 191.292 206.7C191.051 206.51 190.748 206.418 190.442 206.44C190.166 206.422 189.89 206.488 189.652 206.63C189.455 206.799 189.324 207.033 189.282 207.29L188.542 207.19C188.597 206.913 188.709 206.65 188.872 206.42C189.049 206.212 189.282 206.06 189.542 205.98C189.863 205.866 190.202 205.812 190.542 205.82C190.858 205.809 191.172 205.853 191.472 205.95C191.675 206.016 191.858 206.133 192.002 206.29C192.114 206.442 192.193 206.616 192.232 206.8C192.249 207.033 192.249 207.267 192.232 207.5V208.5C192.216 208.944 192.233 209.388 192.282 209.83C192.311 210.02 192.375 210.204 192.472 210.37H191.682C191.616 210.194 191.582 210.008 191.582 209.82ZM191.512 208.14C191.114 208.279 190.701 208.373 190.282 208.42C190.061 208.448 189.843 208.498 189.632 208.57C189.51 208.622 189.406 208.709 189.332 208.82C189.261 208.923 189.222 209.045 189.222 209.17C189.221 209.267 189.241 209.362 189.281 209.451C189.32 209.539 189.379 209.617 189.452 209.68C189.644 209.825 189.882 209.896 190.122 209.88C190.391 209.882 190.656 209.817 190.892 209.69C191.111 209.575 191.286 209.393 191.392 209.17C191.484 208.928 191.525 208.669 191.512 208.41V208.14Z" fill="#263238"/>
<path d="M193.5 205.09V204.23H194.26V205.09H193.5ZM193.5 210.37V205.92H194.26V210.37H193.5Z" fill="#263238"/>
<path d="M195.344 210.37V204.23H196.094V210.37H195.344Z" fill="#263238"/>
</g>
<g opacity="0.6">
<path d="M286.641 183.38V177.23H287.501V182.65H290.501V183.38H286.641Z" fill="#263238"/>
<path d="M294.251 182.83C294.009 183.039 293.736 183.208 293.441 183.33C293.176 183.431 292.894 183.482 292.611 183.48C292.202 183.506 291.799 183.378 291.481 183.12C291.281 182.929 291.149 182.678 291.105 182.406C291.062 182.133 291.11 181.853 291.241 181.61C291.335 181.435 291.468 181.284 291.631 181.17C291.795 181.058 291.978 180.977 292.171 180.93C292.391 180.877 292.615 180.837 292.841 180.81C293.298 180.769 293.751 180.682 294.191 180.55V180.36C294.204 180.243 294.192 180.124 294.156 180.012C294.119 179.9 294.06 179.797 293.981 179.71C293.735 179.522 293.429 179.43 293.121 179.45C292.844 179.427 292.567 179.494 292.331 179.64C292.133 179.809 292.002 180.043 291.961 180.3L291.221 180.2C291.275 179.923 291.388 179.66 291.551 179.43C291.731 179.225 291.962 179.069 292.221 178.98C292.543 178.875 292.881 178.824 293.221 178.83C293.533 178.818 293.844 178.862 294.141 178.96C294.343 179.026 294.526 179.143 294.671 179.3C294.79 179.447 294.87 179.623 294.901 179.81C294.923 180.043 294.923 180.277 294.901 180.51V181.51C294.885 181.954 294.902 182.398 294.951 182.84C294.979 183.03 295.044 183.214 295.141 183.38H294.351C294.284 183.204 294.25 183.018 294.251 182.83ZM294.191 181.14C293.794 181.285 293.381 181.383 292.961 181.43C292.735 181.448 292.512 181.499 292.301 181.58C292.181 181.632 292.077 181.715 292.001 181.82C291.93 181.927 291.892 182.052 291.891 182.18C291.891 182.276 291.911 182.372 291.951 182.46C291.99 182.548 292.048 182.626 292.121 182.69C292.313 182.835 292.551 182.906 292.791 182.89C293.062 182.891 293.33 182.826 293.571 182.7C293.786 182.576 293.959 182.392 294.071 182.17C294.163 181.931 294.204 181.676 294.191 181.42V181.14Z" fill="#263238"/>
<path d="M295.82 182.05L296.56 181.93C296.57 182.062 296.606 182.192 296.666 182.31C296.726 182.429 296.809 182.534 296.91 182.62C297.14 182.792 297.424 182.877 297.71 182.86C297.984 182.883 298.257 182.809 298.48 182.65C298.558 182.591 298.621 182.516 298.666 182.429C298.711 182.343 298.737 182.247 298.74 182.15C298.742 182.069 298.721 181.989 298.68 181.918C298.64 181.848 298.581 181.79 298.51 181.75C298.267 181.627 298.008 181.54 297.74 181.49C297.348 181.4 296.964 181.28 296.59 181.13C296.392 181.04 296.225 180.894 296.11 180.71C295.998 180.53 295.94 180.322 295.94 180.11C295.937 179.914 295.982 179.721 296.071 179.547C296.16 179.372 296.29 179.222 296.45 179.11C296.596 179.009 296.759 178.935 296.93 178.89C297.141 178.829 297.36 178.798 297.58 178.8C297.894 178.793 298.205 178.844 298.5 178.95C298.731 179.023 298.934 179.167 299.08 179.36C299.225 179.564 299.315 179.801 299.34 180.05L298.61 180.15C298.586 179.937 298.478 179.743 298.31 179.61C298.114 179.466 297.873 179.399 297.63 179.42C297.372 179.396 297.112 179.455 296.89 179.59C296.824 179.634 296.769 179.693 296.731 179.763C296.693 179.832 296.672 179.91 296.67 179.99C296.668 180.085 296.7 180.177 296.76 180.25C296.836 180.345 296.936 180.418 297.05 180.46L297.72 180.65C298.098 180.742 298.468 180.859 298.83 181C299.032 181.078 299.206 181.214 299.33 181.39C299.455 181.583 299.518 181.81 299.51 182.04C299.511 182.294 299.435 182.541 299.29 182.75C299.133 182.976 298.914 183.153 298.66 183.26C298.365 183.392 298.044 183.457 297.72 183.45C297.252 183.482 296.787 183.355 296.4 183.09C296.083 182.828 295.877 182.457 295.82 182.05Z" fill="#263238"/>
<path d="M302.052 182.7L302.162 183.37C301.975 183.411 301.784 183.434 301.592 183.44C301.375 183.448 301.159 183.403 300.962 183.31C300.821 183.23 300.709 183.107 300.642 182.96C300.563 182.67 300.533 182.37 300.552 182.07V179.51H299.992V178.93H300.552V177.83L301.302 177.37V178.93H302.052V179.51H301.302V182.12C301.278 182.256 301.278 182.394 301.302 182.53C301.327 182.59 301.369 182.642 301.422 182.68C301.508 182.698 301.596 182.698 301.682 182.68L302.052 182.7Z" fill="#263238"/>
<path d="M305.172 183.38V178.93H305.852V179.56C306.004 179.325 306.215 179.133 306.464 179.005C306.713 178.877 306.992 178.817 307.272 178.83C307.526 178.824 307.778 178.872 308.012 178.97C308.21 179.049 308.383 179.18 308.512 179.35C308.631 179.517 308.713 179.708 308.752 179.91C308.774 180.153 308.774 180.397 308.752 180.64V183.38H308.002V180.67C308.012 180.436 307.982 180.203 307.912 179.98C307.852 179.828 307.743 179.701 307.602 179.62C307.442 179.525 307.258 179.476 307.072 179.48C306.766 179.473 306.468 179.584 306.242 179.79C306.107 179.949 306.006 180.134 305.945 180.333C305.885 180.533 305.867 180.743 305.892 180.95V183.38H305.172Z" fill="#263238"/>
<path d="M312.852 182.83C312.61 183.039 312.337 183.207 312.042 183.33C311.777 183.432 311.496 183.483 311.212 183.48C310.806 183.508 310.405 183.379 310.092 183.12C309.962 183.005 309.858 182.864 309.789 182.705C309.72 182.546 309.687 182.373 309.692 182.2C309.69 181.994 309.742 181.79 309.842 181.61C309.936 181.435 310.07 181.284 310.232 181.17C310.396 181.058 310.579 180.977 310.772 180.93C310.993 180.877 311.216 180.837 311.442 180.81C311.9 180.769 312.352 180.682 312.792 180.55V180.36C312.805 180.243 312.793 180.124 312.757 180.012C312.721 179.9 312.661 179.797 312.582 179.71C312.337 179.521 312.031 179.428 311.722 179.45C311.445 179.429 311.169 179.495 310.932 179.64C310.734 179.809 310.603 180.043 310.562 180.3L309.822 180.2C309.876 179.923 309.989 179.66 310.152 179.43C310.333 179.225 310.563 179.069 310.822 178.98C311.145 178.876 311.483 178.825 311.822 178.83C312.137 178.819 312.452 178.863 312.752 178.96C312.952 179.026 313.131 179.143 313.272 179.3C313.392 179.447 313.471 179.623 313.502 179.81C313.524 180.043 313.524 180.277 313.502 180.51V181.51C313.492 181.954 313.508 182.398 313.552 182.84C313.58 183.03 313.645 183.214 313.742 183.38H312.952C312.885 183.204 312.851 183.018 312.852 182.83ZM312.792 181.14C312.395 181.285 311.982 181.383 311.562 181.43C311.336 181.45 311.114 181.5 310.902 181.58C310.782 181.632 310.679 181.715 310.602 181.82C310.534 181.928 310.499 182.053 310.502 182.18C310.5 182.276 310.519 182.371 310.557 182.459C310.595 182.547 310.651 182.626 310.722 182.69C310.914 182.835 311.152 182.906 311.392 182.89C311.663 182.891 311.931 182.826 312.172 182.7C312.387 182.576 312.561 182.392 312.672 182.17C312.764 181.931 312.805 181.676 312.792 181.42V181.14Z" fill="#263238"/>
<path d="M314.719 183.38V178.93H315.389V179.55C315.529 179.333 315.722 179.154 315.949 179.03C316.189 178.892 316.462 178.822 316.739 178.83C317.022 178.82 317.303 178.889 317.549 179.03C317.759 179.168 317.917 179.372 317.999 179.61C318.14 179.372 318.34 179.175 318.58 179.038C318.821 178.901 319.092 178.83 319.369 178.83C319.551 178.821 319.733 178.848 319.905 178.91C320.076 178.972 320.234 179.067 320.369 179.19C320.633 179.505 320.762 179.911 320.729 180.32V183.38H319.979V180.57C319.988 180.35 319.961 180.131 319.899 179.92C319.854 179.785 319.762 179.671 319.639 179.6C319.503 179.518 319.347 179.477 319.189 179.48C319.044 179.472 318.899 179.496 318.765 179.549C318.63 179.603 318.509 179.685 318.409 179.79C318.294 179.928 318.207 180.087 318.154 180.259C318.1 180.431 318.082 180.611 318.099 180.79V183.38H317.339V180.49C317.357 180.224 317.295 179.959 317.159 179.73C317.087 179.642 316.995 179.573 316.89 179.53C316.785 179.486 316.672 179.469 316.559 179.48C316.35 179.479 316.145 179.538 315.969 179.65C315.786 179.766 315.646 179.938 315.569 180.14C315.476 180.441 315.435 180.755 315.449 181.07V183.38H314.719Z" fill="#263238"/>
<path d="M324.912 181.94L325.692 182.04C325.595 182.461 325.355 182.836 325.012 183.1C324.642 183.363 324.196 183.497 323.742 183.48C323.456 183.497 323.169 183.452 322.902 183.349C322.634 183.245 322.392 183.085 322.192 182.88C321.789 182.412 321.585 181.806 321.622 181.19C321.582 180.558 321.786 179.936 322.192 179.45C322.385 179.248 322.618 179.088 322.876 178.981C323.135 178.874 323.413 178.823 323.692 178.83C323.964 178.821 324.235 178.87 324.487 178.973C324.738 179.076 324.965 179.232 325.152 179.43C325.555 179.905 325.759 180.518 325.722 181.14C325.722 181.19 325.722 181.26 325.722 181.34H322.402C322.402 181.755 322.551 182.156 322.822 182.47C322.941 182.597 323.085 182.697 323.246 182.764C323.406 182.831 323.578 182.864 323.752 182.86C324.006 182.864 324.255 182.787 324.462 182.64C324.676 182.455 324.832 182.212 324.912 181.94ZM322.442 180.72H324.922C324.913 180.419 324.816 180.127 324.642 179.88C324.529 179.741 324.385 179.63 324.222 179.556C324.059 179.481 323.881 179.445 323.702 179.45C323.542 179.445 323.382 179.473 323.232 179.531C323.083 179.59 322.947 179.678 322.832 179.79C322.589 180.039 322.449 180.372 322.442 180.72Z" fill="#263238"/>
</g>
<path d="M333.738 243.91H299.538C296.523 243.91 294.078 246.355 294.078 249.37V255.55C294.078 258.566 296.523 261.01 299.538 261.01H333.738C336.754 261.01 339.198 258.566 339.198 255.55V249.37C339.198 246.355 336.754 243.91 333.738 243.91Z" fill="#136BFB"/>
<path opacity="0.2" d="M388.34 243.91H354.14C351.124 243.91 348.68 246.355 348.68 249.37V255.55C348.68 258.566 351.124 261.01 354.14 261.01H388.34C391.355 261.01 393.8 258.566 393.8 255.55V249.37C393.8 246.355 391.355 243.91 388.34 243.91Z" fill="#136BFB"/>
<path d="M137.309 87.18C129.919 86.07 128.239 92.78 120.469 92.51C120.918 93.78 121.616 94.9474 122.523 95.9434C123.43 96.9395 124.526 97.7441 125.749 98.31C125.749 98.31 119.579 102.79 120.959 109.49C125.789 104.02 132.279 109.21 139.349 109C154.019 108.54 159.349 101.75 154.239 95.92C158.959 89.92 146.049 86.74 146.349 82.29C144.869 82.98 144.919 85.82 144.919 85.82C141.328 85.9384 137.811 84.7758 134.999 82.54C134.809 85.28 137.309 87.18 137.309 87.18Z" fill="#263238"/>
<path d="M151.5 95.64C152.117 95.796 152.76 95.816 153.386 95.6986C154.011 95.5812 154.604 95.3293 155.122 94.9602C155.641 94.5912 156.073 94.1138 156.388 93.5612C156.704 93.0086 156.895 92.394 156.95 91.76C159.25 96.7 155.64 99.38 151.5 95.64Z" fill="#263238"/>
<path d="M158.397 396.79L151.438 400.8L141.188 385.34L148.147 381.33L158.397 396.79Z" fill="#FF8B7B"/>
<path d="M150.6 400.21L158.42 395.71C158.483 395.668 158.553 395.639 158.627 395.624C158.701 395.61 158.778 395.611 158.851 395.627C158.925 395.642 158.995 395.673 159.057 395.717C159.118 395.76 159.171 395.816 159.21 395.88L163.21 401.8C163.304 401.959 163.365 402.134 163.391 402.317C163.416 402.5 163.405 402.685 163.359 402.864C163.313 403.042 163.231 403.21 163.12 403.357C163.009 403.503 162.869 403.627 162.71 403.72C159.96 405.25 158.57 405.84 155.13 407.82C153.01 409.04 145.37 413.12 139.73 412.69C136.45 412.44 136.37 409.44 137.79 409.11C144.16 407.64 148.61 403.99 149.68 401.32C149.861 400.861 150.183 400.472 150.6 400.21Z" fill="#263238"/>
<path opacity="0.2" d="M148.147 381.33L141.188 385.34L146.477 393.31L153.438 389.3L148.147 381.33Z" fill="black"/>
<path d="M109.498 201.94C109.498 201.94 92.6583 268.17 90.8983 291.06C88.9783 316.12 142.238 392.44 142.238 392.44L155.238 385.62C155.238 385.62 130.578 342.09 114.128 292.87C122.128 267.12 138.018 204.12 138.018 204.12L109.498 201.94Z" fill="#136BFB"/>
<g opacity="0.3">
<path d="M109.498 201.94C109.498 201.94 92.6583 268.17 90.8983 291.06C88.9783 316.12 142.238 392.44 142.238 392.44L155.238 385.62C155.238 385.62 130.578 342.09 114.128 292.87C122.128 267.12 138.018 204.12 138.018 204.12L109.498 201.94Z" fill="white"/>
</g>
<path opacity="0.4" d="M124.418 228C117.808 239.58 115.578 267.24 117.278 282.35C121.898 266.26 127.718 244.18 132.028 227.59C129.128 225.32 126.278 224.7 124.418 228Z" fill="#136BFB"/>
<path d="M155.717 385.58L141.767 392.89L137.727 388.21L154.257 380.85L155.717 385.58Z" fill="#136BFB"/>
<path d="M148.838 402.83C149.452 402.455 150.026 402.016 150.548 401.52C150.564 401.489 150.573 401.455 150.573 401.42C150.573 401.385 150.564 401.351 150.548 401.32C150.536 401.286 150.515 401.257 150.486 401.236C150.458 401.214 150.423 401.202 150.388 401.2C150.078 401.2 147.328 400.97 146.668 401.79C146.593 401.883 146.544 401.993 146.525 402.111C146.505 402.228 146.517 402.348 146.558 402.46C146.595 402.64 146.681 402.806 146.806 402.94C146.932 403.074 147.091 403.171 147.268 403.22C147.822 403.294 148.383 403.155 148.838 402.83ZM149.968 401.54C148.868 402.54 147.968 402.99 147.418 402.86C147.198 402.81 147.058 402.64 146.968 402.35C146.938 402.3 146.922 402.243 146.922 402.185C146.922 402.127 146.938 402.07 146.968 402.02C147.368 401.58 148.858 401.5 149.968 401.54Z" fill="#136BFB"/>
<path d="M150.497 401.54L150.557 401.48C150.572 401.452 150.579 401.421 150.579 401.39C150.579 401.359 150.572 401.328 150.557 401.3C150.557 401.21 149.557 399.14 148.417 398.87C148.276 398.837 148.13 398.836 147.988 398.865C147.846 398.894 147.713 398.954 147.597 399.04C147.462 399.125 147.359 399.253 147.305 399.404C147.25 399.554 147.247 399.718 147.297 399.87C147.577 400.72 149.457 401.56 150.387 401.57C150.426 401.572 150.464 401.561 150.497 401.54ZM147.907 399.29C148.039 399.221 148.191 399.199 148.337 399.23C148.987 399.39 149.717 400.5 150.077 401.16C149.177 401 147.847 400.31 147.657 399.75C147.657 399.65 147.657 399.51 147.837 399.34L147.907 399.29Z" fill="#136BFB"/>
<path d="M121.398 145.11L114.168 157.55C112.978 159.62 111.808 161.69 110.718 163.72C110.178 164.72 109.718 165.72 109.208 166.72C108.698 167.72 108.328 168.66 108.148 169.15L107.758 165.45C107.858 165.91 107.918 166.38 108.008 166.81C108.098 167.24 108.158 167.69 108.258 168.08C108.358 168.47 108.428 168.89 108.508 169.28L108.638 169.86C108.638 169.97 108.638 170.06 108.638 170.15C108.638 170.24 108.638 170.25 108.638 170.29C108.638 170.33 108.638 170.39 108.428 170.39C108.853 170.446 109.263 170.587 109.634 170.805C110.004 171.022 110.327 171.311 110.584 171.655C110.841 171.999 111.027 172.391 111.13 172.808C111.233 173.225 111.252 173.658 111.185 174.082C111.119 174.506 110.968 174.913 110.742 175.278C110.515 175.643 110.219 175.959 109.868 176.208C109.518 176.456 109.122 176.632 108.703 176.725C108.284 176.818 107.85 176.827 107.428 176.75H106.718H106.218C105.918 176.75 105.608 176.68 105.328 176.63C104.768 176.527 104.219 176.373 103.688 176.17C102.697 175.785 101.763 175.271 100.908 174.64C100.109 174.049 99.3721 173.379 98.7078 172.64C98.3878 172.28 98.0978 171.91 97.7978 171.53C97.4978 171.15 97.2778 170.77 97.0178 170.39C96.7416 169.975 96.55 169.51 96.4539 169.021C96.3578 168.532 96.3591 168.029 96.4578 167.54L96.6278 166.69C96.954 165.147 97.4021 163.632 97.9678 162.16C98.4378 160.85 98.9678 159.63 99.4778 158.43C100.478 156.04 101.628 153.75 102.788 151.5C103.948 149.25 105.138 147.05 106.368 144.87C107.598 142.69 108.868 140.57 110.248 138.42C111.172 137.002 112.613 136 114.264 135.628C115.915 135.255 117.647 135.542 119.09 136.426C120.533 137.311 121.575 138.723 121.993 140.364C122.41 142.004 122.172 143.743 121.328 145.21L121.398 145.11Z" fill="#FF8B7B"/>
<path d="M117.347 133C125.487 132.39 129.487 138.14 125.607 147.62C123.274 153.024 120.626 158.286 117.677 163.38C117.027 164.53 116.437 165.55 115.947 166.38L99.6367 153.7C102.807 146.19 111.897 133.45 117.347 133Z" fill="#263238"/>
<path opacity="0.3" d="M115.566 142.31C120.966 138.81 113.456 155.24 110.366 162.06L105.566 158.33C106.856 153.46 111.416 145 115.566 142.31Z" fill="black"/>
<path d="M138.388 408.14L130.398 407.53L130.628 388.94L138.618 389.55L138.388 408.14Z" fill="#FF8B7B"/>
<path d="M130.048 406.57L139.048 407.25C139.201 407.258 139.345 407.325 139.449 407.437C139.554 407.549 139.61 407.697 139.608 407.85L139.498 415C139.487 415.185 139.441 415.366 139.36 415.532C139.28 415.699 139.167 415.848 139.028 415.971C138.89 416.094 138.728 416.188 138.553 416.248C138.378 416.308 138.192 416.332 138.008 416.32C134.888 416.03 133.408 415.73 129.458 415.43C127.028 415.24 116.688 414.71 113.338 414.43C109.988 414.15 110.338 410.86 111.748 410.67C118.208 409.81 126.238 408.56 128.618 406.96C129.035 406.668 129.54 406.531 130.048 406.57Z" fill="#263238"/>
<path opacity="0.2" d="M138.618 389.55L130.628 388.94L130.508 398.52L138.508 399.13L138.618 389.55Z" fill="black"/>
<path d="M125.089 203.13C125.089 203.13 120.189 263.75 119.919 286.74C119.619 311.91 127.239 395.96 127.239 395.96L141.879 397.08C141.879 397.08 140.779 315.56 143.359 290.81C146.159 263.95 152.219 205.2 152.219 205.2L125.089 203.13Z" fill="#136BFB"/>
<path opacity="0.3" d="M125.089 203.13C125.089 203.13 120.189 263.75 119.919 286.74C119.619 311.91 127.239 395.96 127.239 395.96L141.879 397.08C141.879 397.08 140.779 315.56 143.359 290.81C146.159 263.95 152.219 205.2 152.219 205.2L125.089 203.13Z" fill="white"/>
<path d="M142.47 397.12L126.66 395.91L126.16 390.29L143.55 392.49L142.47 397.12Z" fill="#136BFB"/>
<path d="M127.119 407.75C127.839 407.781 128.559 407.738 129.269 407.62C129.304 407.615 129.337 407.601 129.364 407.578C129.391 407.554 129.41 407.524 129.419 407.49C129.428 407.453 129.425 407.415 129.413 407.38C129.401 407.345 129.379 407.313 129.349 407.29C129.109 407.1 126.949 405.38 125.949 405.69C125.836 405.725 125.733 405.788 125.651 405.874C125.569 405.96 125.51 406.065 125.479 406.18C125.416 406.347 125.398 406.527 125.428 406.703C125.458 406.879 125.534 407.044 125.649 407.18C126.051 407.548 126.575 407.751 127.119 407.75ZM128.769 407.31C127.319 407.49 126.279 407.36 125.929 406.97C125.855 406.875 125.808 406.762 125.792 406.642C125.777 406.523 125.793 406.401 125.839 406.29C125.852 406.233 125.879 406.181 125.918 406.137C125.956 406.093 126.005 406.06 126.059 406.04C126.599 405.88 127.889 406.65 128.769 407.31Z" fill="#136BFB"/>
<path d="M129.22 407.62C129.249 407.63 129.281 407.63 129.31 407.62C129.339 407.607 129.363 407.588 129.383 407.564C129.402 407.539 129.415 407.511 129.42 407.48C129.42 407.38 129.77 405.1 129.02 404.26C128.927 404.149 128.809 404.061 128.674 404.005C128.54 403.95 128.395 403.927 128.25 403.94C128.09 403.929 127.931 403.974 127.8 404.067C127.669 404.16 127.573 404.295 127.53 404.45C127.29 405.31 128.37 407.07 129.13 407.6C129.158 407.615 129.189 407.622 129.22 407.62ZM128.35 404.3C128.426 404.304 128.5 404.323 128.567 404.358C128.634 404.392 128.693 404.441 128.74 404.5C129.131 405.296 129.254 406.198 129.09 407.07C128.44 406.43 127.73 405.07 127.89 404.54C127.89 404.44 127.99 404.31 128.27 404.3H128.35Z" fill="#136BFB"/>
<path d="M109.499 201.94L152.229 205.2C152.789 201.4 152.759 188.92 154.499 173.2C155.705 161.513 157.923 149.953 161.129 138.65C161.379 137.8 161.639 136.96 161.899 136.12C161.899 136.12 159.769 135.51 156.689 134.82C154.139 134.25 150.939 133.61 147.779 133.22C141.757 132.412 135.694 131.948 129.619 131.83C126.809 131.88 124.049 132.13 121.849 132.39C119.029 132.74 117.359 133.09 117.359 133.09C117.359 133.09 108.019 155.91 109.499 201.94Z" fill="#136BFB"/>
<path d="M111.387 169.47C112.226 168.236 113.3 167.18 114.547 166.36C115.377 165.965 116.176 165.507 116.937 164.99C117.015 164.939 117.105 164.909 117.199 164.904C117.292 164.899 117.386 164.919 117.469 164.962C117.552 165.004 117.623 165.068 117.673 165.147C117.724 165.226 117.753 165.316 117.757 165.41C117.757 166.04 117.457 167.05 115.757 168.41C115.497 170.41 112.427 172.32 112.427 172.32L111.387 169.47Z" fill="#FF8B7B"/>
<path opacity="0.3" d="M117.548 174.74L126.418 175.42L121.608 157.44L112.738 156.76L117.548 174.74Z" fill="black"/>
<path d="M116.939 174.69L125.819 175.37L121.009 157.39L112.129 156.71L116.939 174.69Z" fill="white"/>
<path opacity="0.3" d="M154.497 173.15C155.704 161.463 157.922 149.903 161.127 138.6C158.287 138.14 153.387 138.04 152.267 142.6C151.047 147.49 151.347 159.24 154.497 173.15Z" fill="black"/>
<path d="M164.889 142.31C165.339 143.71 165.699 144.92 166.039 146.22C166.379 147.52 166.689 148.79 167.039 150.09C167.609 152.68 168.129 155.29 168.489 157.95C168.883 160.648 169.133 163.365 169.239 166.09C169.361 168.969 169.238 171.852 168.869 174.71V175.03C168.712 176.234 168.156 177.35 167.289 178.2C166.689 178.777 166.017 179.275 165.289 179.68C164.758 179.981 164.203 180.238 163.629 180.45C162.735 180.785 161.811 181.032 160.869 181.19C159.352 181.445 157.818 181.583 156.279 181.6C153.545 181.624 150.813 181.467 148.099 181.13C145.469 180.81 142.889 180.39 140.329 179.87C137.769 179.35 135.269 178.77 132.719 178.02C131.971 177.802 131.325 177.322 130.901 176.667C130.477 176.013 130.303 175.228 130.409 174.455C130.516 173.683 130.897 172.974 131.483 172.459C132.068 171.944 132.82 171.657 133.599 171.65H133.659L141.119 171.57C143.599 171.57 146.059 171.48 148.479 171.36C150.899 171.24 153.279 171.05 155.479 170.75C156.464 170.616 157.437 170.406 158.389 170.12C158.691 170.03 158.983 169.91 159.259 169.76C159.349 169.76 159.339 169.68 159.309 169.7C159.129 169.766 158.967 169.876 158.839 170.02L157.209 173.51C157.247 171.325 157.14 169.141 156.889 166.97C156.629 164.7 156.229 162.38 155.799 160.05C155.369 157.72 154.799 155.38 154.279 153.05C154.019 151.88 153.709 150.71 153.419 149.54L152.539 146.14L152.489 145.95C152.092 144.323 152.338 142.605 153.176 141.155C154.014 139.705 155.379 138.635 156.987 138.167C158.595 137.698 160.322 137.869 161.807 138.643C163.292 139.417 164.422 140.734 164.959 142.32L164.889 142.31Z" fill="#FF8B7B"/>
<path d="M161.887 136.07C154.067 133.62 149.397 138.62 150.697 148.81C151.626 154.643 153.024 160.392 154.877 166L172.107 160.7C170.607 152.62 167.117 137.71 161.887 136.07Z" fill="#263238"/>
<path d="M130.498 131.78C135.858 130.94 137.008 127.78 136.898 124.12C136.88 123.213 136.803 122.307 136.668 121.41L143.668 116.41L148.798 112.75C147.058 118.5 144.798 129.05 148.498 133.25C143.555 136.773 138.219 139.71 132.598 142C132.271 142.13 131.92 142.191 131.568 142.18C131.216 142.17 130.87 142.088 130.551 141.939C130.232 141.79 129.946 141.578 129.712 141.315C129.478 141.052 129.299 140.744 129.188 140.41C127.498 134.94 130.498 131.78 130.498 131.78Z" fill="#FF8B7B"/>
<path opacity="0.2" d="M136.648 121.41C136.783 122.307 136.86 123.213 136.878 124.12C139.378 123.81 143.258 121.9 143.808 119.12C143.866 118.21 143.809 117.296 143.638 116.4L136.648 121.41Z" fill="black"/>
<path d="M149.189 100.92C149.559 108.92 150.189 113.53 146.659 118.13C141.359 125.04 131.269 122.74 128.539 115.13C126.089 108.25 125.879 96.37 133.229 92.13C134.811 91.1843 136.613 90.6695 138.455 90.6369C140.298 90.6043 142.117 91.055 143.732 91.9441C145.346 92.8332 146.699 94.1298 147.657 95.7046C148.614 97.2794 149.142 99.0775 149.189 100.92Z" fill="#FF8B7B"/>
<path d="M145.85 96.08C143.6 100.16 145.31 103.14 145.31 103.14L145.73 101.22C145.73 101.22 148.57 104.22 147.73 107.7C152.71 105.05 153.27 94.75 145.85 96.08Z" fill="#263238"/>
<path d="M150 97.3C141 99.3 135.94 98.37 134.34 98.03C138.11 97.77 139.1 96.03 139.1 96.03C139.1 96.03 130.1 98.24 128.27 97.53C130.08 92.05 134.27 89.53 142.8 89.86C151.33 90.19 150 97.3 150 97.3Z" fill="#263238"/>
<path d="M153.018 108.34C152.202 110.128 150.788 111.575 149.018 112.43C146.748 113.43 145.628 111.43 146.268 108.95C146.838 106.75 148.708 103.57 150.978 103.58C153.248 103.59 154.058 106.09 153.018 108.34Z" fill="#FF8B7B"/>
<path d="M137.499 104.75C137.569 105.4 137.289 105.96 136.869 106.02C136.449 106.08 136.049 105.6 135.979 104.96C135.909 104.32 136.199 103.75 136.609 103.69C137.019 103.63 137.499 104.11 137.499 104.75Z" fill="#263238"/>
<path d="M130.29 105.74C130.36 106.38 130.08 106.95 129.66 107.01C129.24 107.07 128.85 106.59 128.78 105.94C128.71 105.29 128.99 104.73 129.41 104.68C129.83 104.63 130.22 105.09 130.29 105.74Z" fill="#263238"/>
<path d="M132.618 105.75C132.068 107.823 131.244 109.814 130.168 111.67C131.408 112.58 133.278 111.83 133.278 111.83L132.618 105.75Z" fill="#FF5652"/>
<path d="M136.078 113.21C136.805 113.031 137.487 112.705 138.084 112.253C138.681 111.801 139.179 111.231 139.548 110.58C139.559 110.558 139.566 110.534 139.568 110.509C139.57 110.484 139.566 110.459 139.558 110.435C139.549 110.412 139.536 110.39 139.519 110.372C139.502 110.354 139.481 110.34 139.458 110.33C139.414 110.309 139.363 110.305 139.317 110.32C139.27 110.335 139.231 110.367 139.208 110.41C138.797 111.112 138.229 111.709 137.549 112.155C136.869 112.601 136.095 112.883 135.288 112.98C135.263 112.982 135.239 112.99 135.217 113.002C135.196 113.014 135.177 113.03 135.162 113.05C135.147 113.07 135.136 113.092 135.13 113.116C135.124 113.141 135.123 113.166 135.128 113.19C135.131 113.215 135.14 113.239 135.153 113.261C135.166 113.283 135.183 113.301 135.204 113.316C135.224 113.331 135.248 113.342 135.272 113.348C135.297 113.353 135.323 113.354 135.348 113.35C135.594 113.321 135.838 113.274 136.078 113.21Z" fill="#263238"/>
<path d="M139.498 102.1C139.557 102.082 139.612 102.051 139.658 102.01C139.693 101.975 139.722 101.933 139.741 101.886C139.76 101.84 139.77 101.79 139.77 101.74C139.77 101.69 139.76 101.64 139.741 101.594C139.722 101.547 139.693 101.505 139.658 101.47C139.253 101.031 138.748 100.696 138.185 100.496C137.622 100.295 137.019 100.235 136.428 100.32C136.378 100.328 136.33 100.346 136.288 100.374C136.246 100.402 136.21 100.438 136.182 100.48C136.155 100.523 136.137 100.571 136.129 100.62C136.122 100.67 136.124 100.721 136.138 100.77C136.147 100.819 136.166 100.866 136.194 100.907C136.222 100.949 136.259 100.984 136.301 101.011C136.343 101.038 136.39 101.057 136.439 101.065C136.488 101.073 136.539 101.072 136.588 101.06C137.053 101 137.526 101.054 137.966 101.216C138.407 101.377 138.802 101.643 139.118 101.99C139.164 102.042 139.224 102.081 139.292 102.1C139.359 102.12 139.43 102.119 139.498 102.1Z" fill="#263238"/>
<path d="M126.909 103.66C126.969 103.645 127.024 103.615 127.069 103.573C127.115 103.531 127.149 103.478 127.169 103.42C127.318 102.96 127.57 102.541 127.907 102.195C128.243 101.848 128.654 101.583 129.109 101.42C129.158 101.41 129.205 101.389 129.245 101.36C129.286 101.331 129.32 101.293 129.346 101.25C129.371 101.206 129.387 101.158 129.393 101.108C129.399 101.058 129.394 101.008 129.379 100.96C129.353 100.864 129.29 100.781 129.204 100.731C129.118 100.68 129.016 100.666 128.919 100.69C128.345 100.884 127.825 101.209 127.4 101.639C126.974 102.07 126.655 102.594 126.469 103.17C126.451 103.217 126.444 103.267 126.446 103.318C126.448 103.368 126.46 103.417 126.481 103.463C126.503 103.509 126.533 103.55 126.57 103.583C126.608 103.617 126.651 103.643 126.699 103.66C126.767 103.682 126.841 103.682 126.909 103.66Z" fill="#263238"/>
<path d="M135.3 172.37L127.09 167.3L127.85 177.39C127.85 177.39 134.72 179.85 135.66 176.21L135.3 172.37Z" fill="#FF8B7B"/>
<path d="M129.697 168.91C128.832 167.677 127.735 166.624 126.467 165.81C125.547 165.301 124.674 164.712 123.857 164.05C123.779 163.998 123.689 163.968 123.596 163.962C123.503 163.957 123.41 163.977 123.327 164.02C123.245 164.063 123.175 164.127 123.125 164.206C123.076 164.286 123.049 164.377 123.047 164.47C123.047 165.09 123.577 166.47 125.247 167.87C125.557 169.87 128.657 171.77 128.657 171.77L129.697 168.91Z" fill="#FF8B7B"/>
<path d="M119.998 168.15L120.728 174.47C120.76 174.739 120.872 174.992 121.051 175.195C121.229 175.399 121.465 175.543 121.728 175.61L127.878 177.39L127.118 167.39L121.528 166.68C121.324 166.648 121.117 166.663 120.921 166.724C120.724 166.786 120.545 166.892 120.397 167.034C120.249 167.177 120.135 167.352 120.066 167.545C119.997 167.739 119.973 167.946 119.998 168.15Z" fill="#FF8B7B"/>
<path d="M107.497 171.07L114.607 167.48L114.427 176.36C114.427 176.36 107.057 178.56 106.617 174.81L107.497 171.07Z" fill="#FF8B7B"/>
<path d="M117.677 167.81V174.81C117.677 175.001 117.614 175.186 117.499 175.338C117.383 175.49 117.221 175.6 117.037 175.65L114.387 176.34L114.567 167.46L116.567 166.94C116.699 166.902 116.838 166.896 116.974 166.922C117.109 166.948 117.236 167.006 117.344 167.091C117.452 167.176 117.539 167.286 117.597 167.411C117.655 167.536 117.682 167.672 117.677 167.81Z" fill="#FF8B7B"/>
<path d="M333.66 290.91C340.37 297.59 339.4 304.37 334.66 309.17C329.92 313.97 323.1 314.98 316.39 308.29C309.68 301.6 305.58 289.78 310.39 284.98C315.2 280.18 326.95 284.23 333.66 290.91Z" fill="#136BFB"/>
<path d="M357.409 334.74C349.119 336.21 344.119 332.28 342.409 326.66C340.699 321.04 342.849 315.85 351.149 314.38C359.449 312.91 370.709 315.74 372.449 321.38C374.189 327.02 365.709 333.28 357.409 334.74Z" fill="#136BFB"/>
<path d="M313.631 347.87C319.631 349.87 323.721 347.48 325.631 343.51C327.541 339.54 326.461 335.46 320.491 333.51C314.521 331.56 305.871 332.4 303.981 336.37C302.091 340.34 307.651 345.89 313.631 347.87Z" fill="#136BFB"/>
<path d="M362.049 290.52C356.309 298.39 349.219 299.03 343.539 295.64C337.859 292.25 335.739 286.09 341.479 278.23C347.219 270.37 358.659 263.78 364.339 267.17C370.019 270.56 367.799 282.66 362.049 290.52Z" fill="#136BFB"/>
<path d="M328.589 393.61C328.332 393.61 328.085 393.512 327.899 393.335C327.713 393.158 327.602 392.916 327.589 392.66C324.519 333.4 346.959 287.37 347.189 286.91C347.307 286.673 347.515 286.492 347.766 286.408C348.017 286.323 348.292 286.342 348.529 286.46C348.767 286.578 348.947 286.786 349.032 287.037C349.116 287.288 349.097 287.563 348.979 287.8C348.759 288.25 326.539 333.8 329.589 392.55C329.596 392.681 329.577 392.813 329.533 392.937C329.488 393.061 329.42 393.175 329.332 393.272C329.244 393.37 329.137 393.449 329.018 393.505C328.899 393.561 328.771 393.594 328.639 393.6L328.589 393.61Z" fill="#263238"/>
<path d="M336.892 319.64H336.802C336.67 319.629 336.542 319.591 336.425 319.53C336.308 319.469 336.204 319.386 336.12 319.285C336.035 319.183 335.971 319.066 335.932 318.94C335.893 318.814 335.879 318.681 335.892 318.55C335.892 318.42 337.012 305.55 328.162 301.28C328.043 301.224 327.936 301.144 327.848 301.047C327.76 300.949 327.692 300.835 327.648 300.711C327.604 300.587 327.584 300.455 327.591 300.324C327.598 300.193 327.63 300.064 327.687 299.945C327.743 299.826 327.823 299.72 327.92 299.631C328.018 299.543 328.132 299.475 328.256 299.431C328.38 299.387 328.511 299.368 328.643 299.374C328.774 299.381 328.903 299.414 329.022 299.47C339.142 304.31 337.942 318.15 337.882 318.74C337.857 318.986 337.742 319.214 337.559 319.38C337.377 319.546 337.139 319.639 336.892 319.64Z" fill="#263238"/>
<path d="M329.638 357.68C329.386 357.681 329.144 357.586 328.958 357.416C328.773 357.245 328.659 357.011 328.638 356.76C328.638 356.63 327.478 344.35 316.708 340.93C316.573 340.9 316.446 340.842 316.334 340.76C316.222 340.678 316.129 340.573 316.059 340.453C315.99 340.333 315.947 340.2 315.932 340.062C315.917 339.924 315.93 339.785 315.972 339.653C316.014 339.521 316.083 339.399 316.174 339.294C316.266 339.19 316.378 339.106 316.503 339.048C316.629 338.989 316.765 338.957 316.904 338.954C317.043 338.951 317.18 338.977 317.308 339.03C329.378 342.85 330.618 356.46 330.628 356.6C330.648 356.862 330.563 357.121 330.393 357.322C330.223 357.522 329.98 357.647 329.718 357.67L329.638 357.68Z" fill="#263238"/>
<path d="M331.8 342.38H331.56C331.303 342.316 331.081 342.153 330.945 341.926C330.808 341.699 330.766 341.427 330.83 341.17C335.51 322.17 350.28 322.64 350.43 322.64C350.695 322.652 350.945 322.769 351.124 322.965C351.303 323.161 351.397 323.42 351.385 323.685C351.373 323.95 351.256 324.2 351.06 324.379C350.864 324.558 350.605 324.652 350.34 324.64C349.8 324.64 337.05 324.3 332.77 341.64C332.713 341.853 332.586 342.041 332.411 342.175C332.235 342.309 332.021 342.381 331.8 342.38Z" fill="#263238"/>
<path d="M370.15 384.9C370.15 390.743 368.855 396.513 366.358 401.795C363.861 407.078 360.224 411.741 355.71 415.45C355.122 415.953 354.374 416.229 353.6 416.23H306.14C305.366 416.229 304.618 415.953 304.03 415.45C299.517 411.739 295.883 407.075 293.386 401.793C290.889 396.511 289.593 390.742 289.59 384.9C289.584 381.105 290.129 377.328 291.21 373.69C291.81 371.69 293.3 370.39 294.94 370.39H364.8C365.693 370.465 366.538 370.826 367.209 371.421C367.879 372.016 368.339 372.812 368.52 373.69C369.604 377.328 370.153 381.104 370.15 384.9Z" fill="#136BFB"/>
<path d="M370.03 387.81C347.044 395.287 324.498 404.054 302.5 414.07C302.77 414.32 303.06 414.56 303.34 414.81C325.056 404.938 347.308 396.288 369.99 388.9C369.98 388.54 370.01 388.18 370.03 387.81Z" fill="white"/>
<path d="M355.652 370.36H353.922C335.432 383.43 317.462 397.53 299.922 411.54C300.142 411.79 300.372 412.04 300.602 412.28C318.502 398 336.812 383.63 355.652 370.36Z" fill="white"/>
<path d="M344.398 416.23C352.698 409.43 360.825 402.43 368.778 395.23C368.938 394.65 369.078 394.07 369.208 393.48C360.641 401.307 351.848 408.903 342.828 416.27L344.398 416.23Z" fill="white"/>
<path d="M344.5 370.36C325.64 376.55 307.94 386.36 291.43 396.65C291.54 396.97 291.64 397.3 291.75 397.65C309.13 386.77 327.84 376.48 347.82 370.38L344.5 370.36Z" fill="white"/>
<path d="M290.199 378.1C295.533 375.287 300.969 372.707 306.509 370.36H304.009C299.409 372.36 294.879 374.527 290.419 376.86C290.339 377.27 290.269 377.69 290.199 378.1Z" fill="white"/>
<path d="M315.039 370.36H313.569L290.219 391.94C290.289 392.32 290.379 392.71 290.459 393.09L315.039 370.36Z" fill="white"/>
</g>
<defs>
<clipPath id="clip0_21507_19935">
<rect width="500" height="500" fill="white" transform="translate(0.5)"/>
</clipPath>
</defs>
</svg>
