<svg width="500" height="500" viewBox="0 0 500 500" fill="none" xmlns="http://www.w3.org/2000/svg">
<path d="M261.159 219.33L198.609 165.85L199.259 165.1L261.009 217.89L335.819 122.21L365.259 143.52L425.369 64.29L426.169 64.89L365.459 144.9L336.009 123.59L261.159 219.33Z" fill="#EBEBEB"/>
<path d="M44.1706 305.25C44.1706 305.92 43.9718 306.576 43.5993 307.133C43.2268 307.691 42.6974 308.125 42.0779 308.382C41.4585 308.638 40.7769 308.706 40.1193 308.575C39.4617 308.444 38.8576 308.121 38.3835 307.647C37.9094 307.173 37.5866 306.569 37.4558 305.911C37.325 305.254 37.3921 304.572 37.6487 303.953C37.9053 303.333 38.3398 302.804 38.8972 302.431C39.4547 302.059 40.1101 301.86 40.7806 301.86C41.6797 301.86 42.542 302.217 43.1777 302.853C43.8135 303.489 44.1706 304.351 44.1706 305.25Z" fill="#EBEBEB"/>
<path d="M198.932 172.17C202.627 172.17 205.622 169.175 205.622 165.48C205.622 161.785 202.627 158.79 198.932 158.79C195.237 158.79 192.242 161.785 192.242 165.48C192.242 169.175 195.237 172.17 198.932 172.17Z" fill="#EBEBEB"/>
<path d="M41.1502 305.58L40.4102 304.91L113.34 224.35L129.82 238.68L195.54 167.98L196.27 168.66L129.89 240.07L113.42 225.75L41.1502 305.58Z" fill="#EBEBEB"/>
<path d="M426.079 70.3897C430.895 70.3897 434.799 66.4856 434.799 61.6697C434.799 56.8538 430.895 52.9497 426.079 52.9497C421.263 52.9497 417.359 56.8538 417.359 61.6697C417.359 66.4856 421.263 70.3897 426.079 70.3897Z" fill="#EBEBEB"/>
<path d="M430.34 58.6899C429.21 60.3244 427.935 61.8539 426.53 63.2599L425.09 64.8199L424.94 64.9799L424.77 64.8499C423.701 64.1383 422.712 63.3135 421.82 62.3899C422.965 62.9679 424.047 63.6615 425.05 64.4599H424.73L426.14 62.8799C427.418 61.3662 428.823 59.9644 430.34 58.6899Z" fill="white"/>
<path d="M144.072 150.23C144.922 143.99 136.132 138.87 129.522 138.33C126.372 138.08 123.102 138.56 120.112 137.52C113.642 135.27 111.112 126.91 104.752 124.25C100.032 122.25 94.5917 124.03 90.0217 126.33C85.4517 128.63 80.9217 131.53 75.8117 131.86C71.3717 132.14 66.5417 130.49 62.6517 132.67C59.7517 134.28 58.2317 137.67 55.5617 139.59C52.8917 141.51 49.5617 141.93 46.3017 142.11C43.0417 142.29 39.7017 142.32 36.7417 143.67C33.7817 145.02 31.3517 148.14 31.9617 151.33L144.072 150.23Z" fill="#EBEBEB"/>
<path d="M379.559 45.8099C380.089 41.9199 374.609 38.7199 370.489 38.3899C368.489 38.2299 366.489 38.5299 364.619 37.8799C360.619 36.4799 358.969 31.2699 355.029 29.5999C352.089 28.3599 348.699 29.4699 345.849 30.8999C342.999 32.3299 340.169 34.1499 336.989 34.3499C334.209 34.5299 331.199 33.4999 328.769 34.8599C326.969 35.8599 326.019 37.9499 324.349 39.1799C322.615 40.2519 320.606 40.7941 318.569 40.7399C316.524 40.701 314.49 41.04 312.569 41.7399C310.729 42.5799 309.209 44.5299 309.569 46.5199L379.559 45.8099Z" fill="#F5F5F5"/>
<path d="M453.301 133.77C453.591 131.68 450.641 129.97 448.421 129.77C447.36 129.809 446.299 129.714 445.261 129.49C443.091 128.74 442.261 125.93 440.111 125.04C438.531 124.37 436.701 124.97 435.171 125.74C433.641 126.51 432.121 127.48 430.401 127.59C428.911 127.69 427.291 127.14 425.991 127.87C424.991 128.41 424.511 129.53 423.611 130.19C422.678 130.767 421.597 131.059 420.501 131.03C419.41 131.003 418.325 131.183 417.301 131.56C416.792 131.757 416.361 132.114 416.072 132.578C415.784 133.041 415.653 133.586 415.701 134.13L453.301 133.77Z" fill="#F5F5F5"/>
<path d="M120.909 79.9197C121.189 77.8297 118.239 76.1097 116.029 75.9197C114.968 75.9584 113.906 75.8644 112.869 75.6397C110.699 74.8897 109.869 72.0797 107.719 71.1897C106.129 70.5197 104.309 71.1197 102.779 71.8897C101.249 72.6597 99.7788 73.6297 98.0088 73.7397C96.5188 73.8397 94.8988 73.2897 93.5988 74.0097C92.5988 74.5597 92.1188 75.6797 91.2188 76.3397C90.2854 76.9151 89.205 77.2069 88.1088 77.1797C87.0182 77.1521 85.9323 77.3319 84.9088 77.7097C84.3963 77.909 83.9622 78.2692 83.6719 78.7362C83.3815 79.2033 83.2506 79.7519 83.2988 80.2997L120.909 79.9197Z" fill="#FAFAFA"/>
<path d="M140.75 293.07L160.59 248.99L180.97 236.75L193.63 209.2L229.99 217.71L257.11 300.9L215.13 321.53L180.97 342.36L140.75 293.07Z" fill="#F5F5F5"/>
<path d="M487.71 420.82L451.82 349.18L435.21 324.32L415.63 233.77L392.05 214.16L368.36 247.16L336 255.22L306.16 283.76L366.22 347.49L401.62 384.82L429.27 436.46L482.34 486.63C481.8 486.14 487.71 420.82 487.71 420.82Z" fill="#EBEBEB"/>
<path d="M18.4805 492.87L22.1405 444.25L41.6905 413.86L54.4905 356.02L77.7605 342.36L106.51 294.01L133.89 275.48L190.7 331.66L228.2 291.27L257.11 300.9L245.2 315.71L215.13 321.53L155.9 373.18L109.84 398.57L97.5605 420.75L70.9105 424.65L18.4805 492.87Z" fill="#EBEBEB"/>
<path d="M155.483 338.87C153.873 341.16 150.743 340.4 149.293 339C147.843 337.6 147.233 335.57 146.673 333.63C145.403 329.2 144.113 324.56 145.063 320.05C145.29 318.679 145.892 317.399 146.803 316.35C147.261 315.834 147.847 315.448 148.501 315.23C149.156 315.012 149.857 314.971 150.533 315.11C152.113 315.53 153.093 317.11 153.803 318.54C155.885 322.875 156.979 327.62 157.003 332.43C157.147 334.68 156.618 336.922 155.483 338.87Z" fill="#136BFB"/>
<g opacity="0.2">
<path d="M155.483 338.87C153.873 341.16 150.743 340.4 149.293 339C147.843 337.6 147.233 335.57 146.673 333.63C145.403 329.2 144.113 324.56 145.063 320.05C145.29 318.679 145.892 317.399 146.803 316.35C147.261 315.834 147.847 315.448 148.501 315.23C149.156 315.012 149.857 314.971 150.533 315.11C152.113 315.53 153.093 317.11 153.803 318.54C155.885 322.875 156.979 327.62 157.003 332.43C157.147 334.68 156.618 336.922 155.483 338.87Z" fill="black"/>
</g>
<path d="M149.451 350.5C146.754 349.235 143.723 348.867 140.801 349.45C139.205 349.592 137.702 350.265 136.531 351.36C135.461 352.54 135.261 354.61 136.531 355.62C137.321 356.156 138.272 356.4 139.221 356.31C141.511 356.31 144.041 355.88 145.871 357.25C146.871 358.04 147.601 359.34 148.871 359.73C149.496 359.864 150.146 359.796 150.729 359.536C151.312 359.275 151.796 358.835 152.111 358.28C152.708 357.137 152.841 355.808 152.481 354.57C152.326 353.703 151.972 352.884 151.446 352.178C150.92 351.471 150.237 350.897 149.451 350.5Z" fill="#136BFB"/>
<path d="M159.891 342.16C159.068 341.079 158.52 339.814 158.293 338.475C158.067 337.135 158.169 335.761 158.591 334.47C159.477 331.891 161.055 329.604 163.151 327.86C165.532 325.741 168.304 324.107 171.311 323.05C172.474 322.577 173.727 322.366 174.981 322.43C175.607 322.465 176.215 322.652 176.752 322.977C177.289 323.301 177.739 323.752 178.061 324.29C178.911 325.93 178.061 327.91 177.201 329.53C175.634 332.388 173.842 335.116 171.841 337.69C170.241 339.76 168.401 341.81 165.951 342.74C163.501 343.67 160.951 343.57 159.661 341.87" fill="#136BFB"/>
<path d="M155.591 373.52C155.508 373.192 155.458 372.857 155.441 372.52C155.371 371.76 155.271 370.8 155.161 369.67C155.02 368.267 154.806 366.871 154.521 365.49C154.15 363.808 153.641 362.159 153.001 360.56C152.38 358.96 151.531 357.458 150.481 356.1C149.636 354.987 148.548 354.081 147.301 353.45C146.458 353.03 145.553 352.747 144.621 352.61C144.284 352.593 143.949 352.543 143.621 352.46C143.973 352.423 144.329 352.423 144.681 352.46C145.647 352.528 146.593 352.772 147.471 353.18C148.783 353.797 149.934 354.711 150.831 355.85C151.926 357.23 152.806 358.767 153.441 360.41C154.087 362.03 154.593 363.703 154.951 365.41C155.222 366.807 155.409 368.22 155.511 369.64C155.601 370.85 155.631 371.83 155.651 372.51C155.657 372.848 155.637 373.185 155.591 373.52Z" fill="#263238"/>
<path d="M155.39 371.33C155.364 371.167 155.364 371.002 155.39 370.84V369.46C155.39 368.26 155.39 366.52 155.33 364.37C155.23 360.07 154.86 354.14 154.14 347.62C153.42 341.1 152.47 335.24 151.6 331.03C151.39 330.03 151.19 329.03 150.99 328.2C150.79 327.37 150.65 326.64 150.49 326.06C150.33 325.48 150.26 325.06 150.17 324.72C150.119 324.565 150.092 324.403 150.09 324.24C150.159 324.384 150.212 324.535 150.25 324.69C150.36 325.04 150.49 325.48 150.66 326.02C150.83 326.56 151.02 327.31 151.23 328.14C151.44 328.97 151.67 329.91 151.9 330.97C153.088 336.454 153.979 341.999 154.57 347.58C155.29 354.11 155.57 360.06 155.64 364.36C155.64 366.52 155.64 368.26 155.56 369.46C155.56 370.03 155.5 370.46 155.48 370.85C155.462 371.012 155.432 371.172 155.39 371.33Z" fill="#263238"/>
<path d="M155.362 359.86C155.327 359.377 155.327 358.893 155.362 358.41C155.362 357.48 155.542 356.14 155.802 354.49C156.122 352.564 156.549 350.658 157.082 348.78C157.715 346.472 158.514 344.213 159.472 342.02C161.125 337.986 163.497 334.286 166.472 331.1C166.988 330.554 167.539 330.043 168.122 329.57C168.372 329.35 168.602 329.14 168.832 328.97L169.472 328.53C169.854 328.238 170.258 327.977 170.682 327.75C169.277 328.853 167.941 330.042 166.682 331.31C163.801 334.522 161.488 338.201 159.842 342.19C158.899 344.369 158.097 346.607 157.442 348.89C156.812 350.99 156.442 352.89 156.082 354.54C155.722 356.19 155.612 357.54 155.512 358.42C155.498 358.903 155.448 359.384 155.362 359.86Z" fill="#263238"/>
<path d="M443.863 402.68C442.936 402.693 442.021 402.894 441.174 403.271C440.327 403.647 439.564 404.191 438.933 404.87C437.677 406.235 436.75 407.87 436.223 409.65C435.113 413.05 435.463 417.16 436.223 420.65C440.033 419.52 442.553 415.65 443.713 413.65C445.533 410.43 446.883 403.5 443.833 402.71" fill="#136BFB"/>
<path d="M430.273 424.76C430.935 423.964 431.376 423.009 431.552 421.989C431.727 420.969 431.631 419.92 431.273 418.95C430.896 417.985 430.332 417.104 429.613 416.359C428.894 415.614 428.034 415.019 427.083 414.61C426.667 414.372 426.204 414.229 425.727 414.191C425.25 414.153 424.771 414.221 424.323 414.39C423.935 414.613 423.615 414.936 423.393 415.324C423.172 415.712 423.058 416.153 423.063 416.6C423.092 417.499 423.358 418.375 423.833 419.14C425.323 421.81 427.253 424.14 430.253 424.76" fill="#136BFB"/>
<path d="M429.5 435.94C429.613 435.716 429.69 435.477 429.73 435.23C429.85 434.76 430.01 434.08 430.19 433.23C430.688 431.023 430.89 428.76 430.79 426.5C430.669 424.217 429.933 422.009 428.66 420.11C428.264 419.545 427.801 419.032 427.28 418.58C427.104 418.395 426.893 418.245 426.66 418.14C427.303 418.801 427.891 419.514 428.42 420.27C429.603 422.155 430.291 424.308 430.42 426.53C430.514 428.757 430.353 430.989 429.94 433.18C429.737 434.09 429.591 435.012 429.5 435.94Z" fill="#263238"/>
<path d="M442.23 407.84C441.989 408.176 441.781 408.534 441.61 408.91C441.23 409.62 440.7 410.64 440.06 411.91C438.78 414.45 437.06 418 435.28 421.96C433.5 425.92 431.96 429.55 430.9 432.2C430.36 433.52 429.9 434.59 429.67 435.34C429.503 435.718 429.369 436.109 429.27 436.51C429.486 436.159 429.667 435.787 429.81 435.4L431.16 432.31C432.29 429.69 433.86 426.09 435.65 422.13C437.44 418.17 439.11 414.61 440.32 412.03L441.75 408.97C441.937 408.605 442.097 408.228 442.23 407.84Z" fill="#263238"/>
<path d="M434.503 428.79C435.688 426.954 437.295 425.428 439.189 424.337C441.083 423.247 443.21 422.624 445.393 422.52C446.493 422.52 447.823 422.71 448.283 423.71C448.743 424.71 448.043 425.88 447.283 426.71C445.624 428.332 443.523 429.427 441.244 429.858C438.964 430.288 436.609 430.035 434.473 429.13" fill="#136BFB"/>
<path d="M443.74 425.44C443.501 425.405 443.259 425.405 443.02 425.44C442.736 425.438 442.451 425.458 442.17 425.5C441.798 425.531 441.427 425.581 441.06 425.65C440.104 425.829 439.169 426.107 438.27 426.48C437.163 426.936 436.11 427.513 435.13 428.2C434.164 428.904 433.276 429.708 432.48 430.6C431.837 431.334 431.271 432.131 430.79 432.98C430.599 433.302 430.428 433.636 430.28 433.98C430.152 434.23 430.045 434.491 429.96 434.76C429.861 434.98 429.79 435.212 429.75 435.45C429.83 435.45 430.17 434.51 431.03 433.13C431.534 432.317 432.113 431.554 432.76 430.85C434.336 429.128 436.262 427.764 438.41 426.85C439.284 426.47 440.191 426.172 441.12 425.96C442.71 425.53 443.74 425.52 443.74 425.44Z" fill="#263238"/>
<path d="M357.55 447.22C357.357 447.237 357.163 447.237 356.97 447.22L355.3 447.27L349.09 447.35L328.09 447.43L328.29 447.34L324.61 451.82L308.71 471.06L303.84 476.85L302.5 478.41C302.353 478.601 302.185 478.775 302 478.93C302.124 478.722 302.264 478.525 302.42 478.34L303.69 476.72L308.42 470.83L324.21 451.49C325.47 449.96 326.71 448.49 327.89 447.01L327.97 446.92H328.09L349.09 447.01L355.3 447.09H356.97C357.168 447.111 357.362 447.155 357.55 447.22Z" fill="#263238"/>
<path d="M251.53 403L189.38 400.96L172.16 423.26L144.88 435.4L130.07 466.83L147.31 446.82L180.49 441.26L204.12 416.63L251.53 403Z" fill="#F5F5F5"/>
<path d="M18.4805 492.87C18.4805 492.87 18.7705 492.46 19.3705 491.67L22.0305 488.17L32.3405 474.67C41.3405 462.92 54.4305 445.85 70.7705 424.55V424.49H70.8405L97.4905 420.57L97.3505 420.66C101.2 413.66 105.35 406.23 109.61 398.47H109.67L155.67 373.06L215 321.34H215.05H215.12L245.18 315.52L245.03 315.61L260.35 296.54L274.85 278.54L274.95 278.42H275.11L307.84 285.7H307.92L307.97 285.76L401.78 384.76C412.18 404.24 421.43 421.54 429.38 436.42L468.38 473.42L478.74 483.27L481.4 485.82C482 486.39 482.29 486.69 482.29 486.69L481.37 485.85L478.68 483.34L468.26 473.54L429.1 436.64L401.42 385.01L307.55 286.11L307.68 286.19L275 278.87L275.26 278.78L260.76 296.78L245.4 315.87L245.34 315.95H245.25L215.18 321.76L215.3 321.7L156.05 373.34L109.98 398.7L110.07 398.62L97.7705 420.8V420.88H97.6705L71.0105 424.77L71.1205 424.7C54.7405 445.97 41.6105 463 32.5705 474.7L22.1105 488.23L19.4105 491.7C18.8005 492.48 18.4805 492.87 18.4805 492.87Z" fill="#263238"/>
<path d="M257.11 402.23L256.86 402.32L256.1 402.55L253.17 403.39L242.17 406.46L204.17 416.87L204.29 416.81C199.61 421.68 194.55 426.96 189.29 432.42L180.64 441.42L180.58 441.48H180.5L147.35 447L147.47 446.93L132.93 463.66L128.93 468.25L127.86 469.44C127.62 469.7 127.48 469.83 127.48 469.83C127.48 469.83 127.59 469.68 127.82 469.4C128.05 469.12 128.4 468.69 128.82 468.17C129.74 467.07 131.07 465.51 132.76 463.51L147.17 446.66L147.22 446.6H147.29L180.45 441L180.31 441.07C183.12 438.14 186.01 435.13 188.95 432.07L203.95 416.47H204H204.06L242.06 406.23L253.06 403.31L256.06 402.55L256.82 402.36L257.11 402.23Z" fill="#263238"/>
<path d="M332.18 381C332.18 381.14 318.66 381.26 301.98 381.26C285.3 381.26 271.77 381.14 271.77 381C271.77 380.86 285.29 380.74 301.98 380.74C318.67 380.74 332.18 380.89 332.18 381Z" fill="#263238"/>
<path d="M337.22 220C337.22 220 337.15 214.31 336.91 214.27L325.22 216.87C325.1 217.61 323.63 226.94 323.88 227.87L337 231.5C337 231.5 337.22 220.33 337.22 220Z" fill="#FFBE9D"/>
<path d="M337.23 230.63C337.23 230.63 337.23 230.53 337.29 230.38C337.43 229.1 337.29 223.54 336.67 223.31C336.05 223.08 334.01 223.47 333.87 224.21C333.73 224.95 334.19 231.21 334.19 231.21C334.19 231.21 334.32 232.21 335.98 232.43C337 232.57 337.23 230.63 337.23 230.63Z" fill="#FFBE9D"/>
<path d="M333.9 232.63C333.9 232.63 333.9 232.53 333.96 232.38C334.09 231.1 334.01 225.54 333.33 225.31C332.65 225.08 330.67 225.47 330.54 226.21C330.41 226.95 330.85 233.21 330.85 233.21C330.85 233.21 330.99 234.21 332.65 234.43C333.67 234.57 333.9 232.63 333.9 232.63Z" fill="#FFBE9D"/>
<path d="M330.642 233.63C330.642 233.63 330.642 233.53 330.692 233.37C330.832 232.1 330.752 226.54 330.072 226.3C329.392 226.06 327.412 226.47 327.282 227.2C327.152 227.93 327.592 234.2 327.592 234.2C327.592 234.2 327.732 235.2 329.382 235.43C330.412 235.57 330.642 233.63 330.642 233.63Z" fill="#FFBE9D"/>
<path d="M327.391 234.57C327.391 234.57 327.391 234.47 327.451 234.31C327.581 233.04 327.501 227.48 326.821 227.24C326.141 227 324.161 227.41 324.031 228.14C323.901 228.87 324.351 235.14 324.351 235.14C324.351 235.14 324.481 236.14 326.141 236.37C327.161 236.5 327.391 234.57 327.391 234.57Z" fill="#FFBE9D"/>
<path d="M333.849 225.83C334.043 226.72 334.13 227.63 334.108 228.54C334.199 229.433 334.169 230.335 334.018 231.22C333.824 230.33 333.737 229.421 333.759 228.51C333.667 227.617 333.697 226.715 333.849 225.83Z" fill="#EB996E"/>
<path d="M330.569 225.81C330.892 228.367 330.982 230.947 330.838 233.52C330.627 232.248 330.523 230.96 330.528 229.67C330.427 228.385 330.44 227.093 330.569 225.81Z" fill="#EB996E"/>
<g opacity="0.78">
<path d="M327.241 226.09C327.564 228.647 327.654 231.227 327.511 233.8C327.299 232.528 327.195 231.24 327.201 229.95C327.098 228.665 327.112 227.373 327.241 226.09Z" fill="#EB996E"/>
</g>
<path d="M325.151 217.18C325.151 217.18 320.521 227.69 321.201 228.34C322.074 228.99 323.012 229.546 324.001 230L325.151 217.18Z" fill="#FFBE9D"/>
<path d="M299.561 76.1801L296.171 115.49L276.481 113.92C276.361 111.62 276.481 102.73 276.481 102.73C276.481 102.73 268.291 101.45 268.191 93.2601C268.141 89.2601 268.711 81.0601 269.311 73.6501C269.628 69.6994 271.481 66.0304 274.472 63.4301C277.463 60.8297 281.354 59.505 285.311 59.7401C287.337 59.853 289.319 60.3718 291.141 61.2656C292.963 62.1595 294.586 63.4102 295.916 64.9436C297.245 66.477 298.252 68.2617 298.878 70.192C299.505 72.1222 299.736 74.1585 299.561 76.1801Z" fill="#FFBE9D"/>
<path d="M276.508 102.61C280.287 102.695 284.006 101.65 287.188 99.6104C287.188 99.6104 284.668 105.51 276.488 104.77L276.508 102.61Z" fill="#EB996E"/>
<path d="M272.52 79.3902C272.519 79.6957 272.636 79.9896 272.847 80.2111C273.057 80.4327 273.344 80.5648 273.65 80.5802C273.95 80.5994 274.247 80.4987 274.473 80.3C274.7 80.1014 274.839 79.821 274.86 79.5202C274.862 79.215 274.746 78.9208 274.535 78.7003C274.323 78.4799 274.035 78.3506 273.73 78.3402C273.581 78.328 273.431 78.3456 273.289 78.392C273.147 78.4384 273.016 78.5127 272.904 78.6105C272.791 78.7083 272.699 78.8277 272.633 78.9616C272.567 79.0955 272.528 79.2412 272.52 79.3902Z" fill="#263238"/>
<path d="M271.099 77.78C271.239 77.94 272.099 77.28 273.389 77.28C274.679 77.28 275.569 77.92 275.709 77.76C275.849 77.6 275.629 77.42 275.219 77.13C274.683 76.7494 274.042 76.5449 273.384 76.5449C272.727 76.5449 272.086 76.7494 271.549 77.13C271.159 77.44 270.999 77.71 271.099 77.78Z" fill="#263238"/>
<path d="M284.609 79.4002C284.609 79.7046 284.727 79.9974 284.937 80.2174C285.148 80.4373 285.435 80.5673 285.739 80.5802C285.888 80.591 286.038 80.572 286.179 80.5244C286.32 80.4767 286.451 80.4013 286.562 80.3025C286.674 80.2038 286.765 80.0837 286.83 79.9494C286.895 79.815 286.932 79.6691 286.939 79.5202C286.945 79.2159 286.83 78.9216 286.621 78.7009C286.411 78.4802 286.124 78.3506 285.819 78.3402C285.67 78.3279 285.519 78.3458 285.377 78.3929C285.234 78.4399 285.103 78.5151 284.99 78.614C284.877 78.7128 284.785 78.8334 284.72 78.9684C284.655 79.1035 284.617 79.2503 284.609 79.4002Z" fill="#263238"/>
<path d="M283.471 78.0002C283.621 78.1502 284.471 77.4902 285.761 77.5002C287.051 77.5102 287.941 78.1302 288.081 77.9802C288.221 77.8302 288.001 77.6302 287.601 77.3402C287.054 76.9653 286.405 76.7665 285.741 76.7702C285.086 76.763 284.447 76.9702 283.921 77.3602C283.531 77.6702 283.401 78.0002 283.471 78.0002Z" fill="#263238"/>
<path d="M278.9 87.3503C278.25 87.1492 277.579 87.025 276.9 86.9803C276.58 86.9803 276.27 86.8903 276.22 86.6703C276.181 86.3231 276.254 85.9725 276.43 85.6703C276.74 84.8903 277.05 84.0703 277.43 83.2203C278.31 81.1474 279.022 79.0072 279.56 76.8203C278.509 78.8149 277.623 80.8918 276.91 83.0303C276.6 83.8903 276.29 84.7103 276 85.4903C275.799 85.878 275.742 86.3246 275.84 86.7503C275.884 86.8654 275.955 86.9681 276.048 87.0499C276.14 87.1317 276.25 87.1901 276.37 87.2203C276.545 87.2734 276.727 87.3004 276.91 87.3003C277.568 87.3998 278.237 87.4166 278.9 87.3503Z" fill="#263238"/>
<path d="M282.612 88.2202C282.402 88.2202 282.402 89.5802 281.232 90.5502C280.062 91.5202 278.612 91.3702 278.602 91.5502C278.592 91.7302 278.922 91.8102 279.542 91.8302C280.343 91.8417 281.122 91.5688 281.742 91.0602C282.337 90.5782 282.717 89.8811 282.802 89.1202C282.852 88.5502 282.702 88.2202 282.612 88.2202Z" fill="#263238"/>
<path d="M283.149 73.08C283.269 73.43 284.529 73.26 286.009 73.44C287.489 73.62 288.679 74.02 288.869 73.72C289.059 73.42 288.749 73.2499 288.269 72.9199C287.631 72.5066 286.904 72.2497 286.149 72.1699C285.392 72.0849 284.626 72.1738 283.909 72.4299C283.369 72.6499 283.089 72.92 283.149 73.08Z" fill="#263238"/>
<path d="M271.56 74.1404C271.78 74.4304 272.65 74.1404 273.69 74.1404C274.73 74.1404 275.62 74.3304 275.82 74.0304C276.02 73.7304 275.77 73.6004 275.39 73.3304C274.87 73.0066 274.267 72.8434 273.655 72.8612C273.043 72.879 272.45 73.077 271.95 73.4304C271.59 73.7104 271.46 74.0004 271.56 74.1404Z" fill="#263238"/>
<path d="M305.351 65.69C305.402 64.925 305.167 64.1684 304.693 63.5664C304.218 62.9643 303.537 62.5594 302.781 62.43C303.105 61.6952 303.185 60.8766 303.012 60.0928C302.839 59.309 302.421 58.6007 301.818 58.0704C301.215 57.5402 300.46 57.2156 299.66 57.1436C298.861 57.0716 298.059 57.256 297.371 57.67C297.14 56.7797 296.663 55.9724 295.995 55.34C295.327 54.7076 294.495 54.2755 293.593 54.0931C292.691 53.9107 291.757 53.9852 290.895 54.3082C290.034 54.6313 289.281 55.1897 288.721 55.92C288.144 55.236 287.401 54.7125 286.562 54.4001C285.723 54.0877 284.818 53.997 283.934 54.1367C283.051 54.2765 282.218 54.642 281.516 55.1979C280.815 55.7539 280.269 56.4813 279.931 57.31C279.316 56.7905 278.599 56.4068 277.825 56.1842C277.051 55.9617 276.239 55.9052 275.442 56.0185C274.645 56.1318 273.881 56.4124 273.2 56.8418C272.52 57.2712 271.937 57.8397 271.491 58.51C270.594 58.1875 269.645 58.0349 268.691 58.06C268.076 58.0757 267.477 58.258 266.958 58.5873C266.438 58.9166 266.018 59.3806 265.741 59.93C265.563 60.4003 265.549 60.9171 265.702 61.3963C265.854 61.8755 266.164 62.2892 266.581 62.57C266.223 62.4547 265.845 62.4149 265.471 62.4531C265.097 62.4913 264.735 62.6067 264.407 62.792C264.08 62.9773 263.795 63.2285 263.569 63.5297C263.344 63.8309 263.184 64.1756 263.098 64.5419C263.013 64.9082 263.005 65.2883 263.074 65.6581C263.143 66.0278 263.287 66.3793 263.499 66.6901C263.711 67.001 263.985 67.2646 264.304 67.4643C264.622 67.6639 264.979 67.7953 265.351 67.85C265.089 67.9839 264.87 68.1892 264.72 68.4423C264.569 68.6953 264.494 68.9858 264.501 69.28C264.613 69.7684 264.848 70.2199 265.184 70.5912C265.52 70.9625 265.946 71.241 266.421 71.4C268.842 72.2753 271.5 72.2326 273.891 71.28C276.311 70.47 278.551 69.2 280.951 68.28C283.351 67.36 287.361 65.83 289.771 66.68C290.125 66.8068 290.461 66.9782 290.771 67.19C292.066 68.2223 292.918 69.7105 293.151 71.35C293.156 71.4033 293.156 71.4568 293.151 71.51C293.471 73.85 293.421 76.22 293.761 78.51C293.984 80.8756 294.995 83.0978 296.631 84.82C297.341 85.48 298.631 85.94 299.181 85.16C299.384 84.8409 299.485 84.4678 299.471 84.09C299.791 80.02 300.671 76.28 301.141 72.3C301.743 71.2947 302.491 70.3847 303.361 69.6C304.468 68.5745 305.174 67.1884 305.351 65.69Z" fill="#263238"/>
<path d="M280.93 61.5703C280.787 61.2255 280.749 60.8466 280.82 60.4803C280.908 59.4522 281.374 58.4935 282.13 57.7903C282.703 57.2733 283.405 56.9212 284.162 56.7715C284.919 56.6218 285.703 56.6802 286.43 56.9403C286.871 57.0853 287.277 57.3213 287.622 57.6331C287.966 57.9448 288.241 58.3255 288.43 58.7503C288.619 59.2325 288.64 59.7646 288.49 60.2603C288.416 60.5256 288.282 60.7702 288.098 60.9749C287.914 61.1797 287.686 61.339 287.43 61.4403C287.17 61.5431 286.889 61.5805 286.612 61.5491C286.335 61.5177 286.07 61.4185 285.84 61.2603C285.626 61.0896 285.46 60.8662 285.358 60.612C285.256 60.3578 285.222 60.0816 285.26 59.8103C285.308 59.3094 285.544 58.8452 285.92 58.5103C286.265 58.2036 286.675 57.9781 287.12 57.8503C287.852 57.6268 288.626 57.5746 289.382 57.6977C290.138 57.8208 290.856 58.116 291.48 58.5603C291.965 58.9108 292.334 59.3984 292.54 59.9603C292.684 60.3854 292.709 60.8423 292.61 61.2803C292.42 62.0003 292.01 62.2203 292.01 62.2003C292.207 61.8965 292.343 61.5567 292.41 61.2003C292.467 60.8015 292.419 60.3946 292.27 60.0203C292.056 59.5342 291.709 59.1182 291.27 58.8203C290.686 58.4368 290.024 58.1877 289.333 58.0909C288.641 57.994 287.936 58.0519 287.27 58.2603C286.896 58.3491 286.556 58.5433 286.29 58.8199C286.024 59.0965 285.844 59.4438 285.77 59.8203C285.741 60.0066 285.762 60.1972 285.83 60.3728C285.899 60.5484 286.012 60.7028 286.16 60.8203C286.318 60.927 286.501 60.9929 286.691 61.0121C286.881 61.0313 287.073 61.0032 287.25 60.9303C287.604 60.7534 287.876 60.4469 288.01 60.0745C288.144 59.7021 288.13 59.2924 287.97 58.9303C287.806 58.5687 287.57 58.2445 287.275 57.9779C286.981 57.7113 286.636 57.5079 286.26 57.3803C285.607 57.1442 284.905 57.0818 284.221 57.1993C283.537 57.3167 282.896 57.61 282.36 58.0503C281.641 58.6888 281.161 59.5529 281 60.5003C280.91 61.1803 281 61.5703 280.93 61.5703Z" fill="#455A64"/>
<path d="M290.879 56.3401C291.115 56.2499 291.366 56.2025 291.619 56.2001C292.305 56.134 292.997 56.1542 293.679 56.2601C294.729 56.4078 295.7 56.9003 296.439 57.6601C296.909 58.1452 297.205 58.7715 297.283 59.4422C297.361 60.1129 297.215 60.7905 296.869 61.3701C296.747 61.5599 296.599 61.7315 296.429 61.8801L296.159 61.4401C296.481 61.3252 296.826 61.2888 297.165 61.334C297.505 61.3792 297.828 61.5047 298.109 61.7001C298.637 62.0347 299.014 62.5621 299.159 63.1701C299.26 63.6618 299.255 64.1693 299.144 64.6589C299.034 65.1486 298.821 65.6092 298.519 66.0101C298.134 66.5271 297.66 66.9708 297.119 67.3201C296.739 67.5701 296.519 67.6701 296.499 67.6401C296.479 67.6101 296.669 67.4601 296.999 67.1701C297.47 66.7763 297.884 66.3185 298.229 65.8101C298.473 65.4436 298.641 65.0314 298.722 64.5982C298.803 64.1651 298.795 63.7201 298.699 63.2901C298.575 62.803 298.267 62.3833 297.839 62.1201C297.623 61.9733 297.376 61.8789 297.118 61.8441C296.859 61.8094 296.596 61.8354 296.349 61.9201L295.009 62.4601L296.089 61.4601C296.223 61.3429 296.341 61.2084 296.439 61.0601C296.74 60.5663 296.857 59.9818 296.769 59.4101C296.689 58.8685 296.449 58.3633 296.079 57.9601C295.418 57.2599 294.554 56.7843 293.609 56.6001C291.999 56.3001 290.879 56.4501 290.879 56.3401Z" fill="#455A64"/>
<path d="M302.741 65C302.801 65 302.951 65.28 302.951 65.78C302.942 66.4543 302.688 67.1023 302.238 67.6042C301.787 68.1061 301.171 68.4279 300.501 68.51C300.001 68.51 299.701 68.45 299.711 68.38C300.505 68.1872 301.24 67.8026 301.851 67.26C302.332 66.5929 302.638 65.8159 302.741 65Z" fill="#455A64"/>
<path d="M267.75 60.7403C267.957 60.4758 268.22 60.2605 268.52 60.1103C269.524 59.5537 270.681 59.3348 271.819 59.4861C272.957 59.6374 274.016 60.1507 274.84 60.9503C275.152 61.2391 275.401 61.5885 275.573 61.9771C275.745 62.3657 275.836 62.7854 275.84 63.2103C275.812 63.7055 275.591 64.1699 275.224 64.5044C274.858 64.8388 274.376 65.0168 273.88 65.0003C273.623 64.9708 273.379 64.8725 273.173 64.7159C272.967 64.5593 272.807 64.3501 272.71 64.1103C272.519 63.6786 272.487 63.1933 272.62 62.7403C272.748 62.3266 272.977 61.9511 273.286 61.6475C273.595 61.3438 273.974 61.1215 274.39 61.0003C275.105 60.7496 275.885 60.7496 276.6 61.0003C277.202 61.2214 277.753 61.5615 278.22 62.0003C278.877 62.6245 279.425 63.3547 279.84 64.1603C280.016 64.4383 280.147 64.7419 280.23 65.0603C280.016 64.8118 279.825 64.544 279.66 64.2603C279.202 63.5143 278.636 62.8402 277.98 62.2603C277.53 61.8357 276.977 61.5344 276.376 61.3855C275.776 61.2366 275.147 61.2452 274.55 61.4103C274.216 61.5119 273.911 61.692 273.66 61.9355C273.41 62.1791 273.221 62.479 273.11 62.8103C272.92 63.4703 273.23 64.3703 273.93 64.4203C274.279 64.4137 274.614 64.2767 274.867 64.0362C275.121 63.7956 275.275 63.4689 275.3 63.1203C275.297 62.7673 275.224 62.4184 275.085 62.0939C274.946 61.7694 274.744 61.4759 274.49 61.2303C273.594 60.3301 272.389 59.8046 271.12 59.7603C270.257 59.7199 269.397 59.8844 268.61 60.2403C268.333 60.4238 268.046 60.5908 267.75 60.7403Z" fill="#455A64"/>
<path d="M296.801 79.8804C296.941 79.8204 302.431 78.2204 302.251 83.8204C302.071 89.4204 296.491 88.0804 296.481 87.9204C296.471 87.7604 296.801 79.8804 296.801 79.8804Z" fill="#FFBE9D"/>
<path d="M298.259 85.8604C298.259 85.8604 298.359 85.9304 298.519 86.0104C298.754 86.1024 299.015 86.1024 299.249 86.0104C299.617 85.7913 299.919 85.4788 300.127 85.1046C300.334 84.7304 300.438 84.308 300.429 83.8804C300.457 83.4001 300.382 82.9194 300.209 82.4704C300.16 82.295 300.071 82.1337 299.947 81.9998C299.824 81.866 299.67 81.7633 299.499 81.7004C299.387 81.6643 299.266 81.6697 299.158 81.7156C299.049 81.7615 298.961 81.8448 298.909 81.9504C298.829 82.1004 298.859 82.2104 298.829 82.2204C298.799 82.2304 298.719 82.1304 298.769 81.9004C298.805 81.7615 298.886 81.6385 298.999 81.5504C299.157 81.443 299.351 81.4001 299.539 81.4304C299.769 81.4826 299.981 81.5927 300.156 81.7502C300.331 81.9078 300.463 82.1075 300.539 82.3304C300.758 82.8234 300.854 83.3621 300.819 83.9004C300.832 84.3996 300.697 84.8914 300.43 85.3133C300.162 85.7353 299.776 86.0684 299.319 86.2704C299.169 86.308 299.013 86.3123 298.86 86.2829C298.708 86.2536 298.565 86.1913 298.439 86.1004C298.269 86.0004 298.239 85.8704 298.259 85.8604Z" fill="#EB996E"/>
<path d="M262.068 352.08L265.708 368.84C265.708 368.84 249.898 378.16 250.268 381.32L282.998 375.44L278.398 349.1L262.068 352.08Z" fill="#263238"/>
<path d="M283.001 375.44L282.431 372.8L251.251 379.43C251.251 379.43 249.911 380.33 250.251 381.32L283.001 375.44Z" fill="#455A64"/>
<path d="M299.308 353.92L299.848 371.06C299.848 371.06 282.608 377.37 282.398 380.54L315.668 380.69L315.918 353.95L299.308 353.92Z" fill="#263238"/>
<g opacity="0.6">
<path d="M315.669 380.69L315.589 377.99L283.719 378.86C283.719 378.86 282.239 379.5 282.399 380.54L315.669 380.69Z" fill="#455A64"/>
</g>
<path d="M260.271 366.45C260.271 366.45 243.271 282.8 243.211 281.12L273.671 265L285.471 363.17L260.271 366.45Z" fill="#263238"/>
<path d="M298.638 369.26L275.078 224.26V193L307.258 196C307.668 197.22 318.198 369.47 318.198 369.47L314.878 369.28H298.638" fill="#263238"/>
<path d="M256.561 190.78L243.211 281.12L273.061 273.88L285.231 193.72L256.561 190.78Z" fill="#263238"/>
<path d="M284.18 198.44C284.18 198.44 284.18 198.59 284.18 198.88L284.32 200.18C284.45 201.33 284.64 203.01 284.89 205.18C285.4 209.5 286.17 215.75 287.17 223.47C289.17 238.9 292.17 260.18 295.43 283.7C297.05 295.47 298.54 306.7 299.81 316.89C300.14 319.44 300.4 321.94 300.81 324.35C301.22 326.76 301.54 329.1 301.88 331.35C302.57 335.87 303.21 340.09 303.79 343.93C304.95 351.63 305.86 357.86 306.46 362.17C306.76 364.32 306.98 365.99 307.11 367.17C307.18 367.74 307.22 368.17 307.24 368.47C307.25 368.58 307.25 368.691 307.24 368.8C307.24 368.89 307.19 368.8 307.19 368.8C307.19 368.8 307.26 368.8 307.25 368.8C307.262 368.687 307.262 368.573 307.25 368.46C307.25 368.17 307.25 367.73 307.16 367.16C307.06 366.02 306.86 364.34 306.59 362.16C306.04 357.85 305.17 351.61 304.05 343.91C303.48 340.06 302.86 335.84 302.19 331.32C301.85 329.06 301.496 326.727 301.13 324.32C300.78 321.91 300.53 319.41 300.2 316.86C298.96 306.65 297.48 295.43 295.86 283.67C292.61 260.15 289.54 238.87 287.48 223.45C286.48 215.75 285.64 209.51 285.07 205.18L284.42 200.18C284.35 199.62 284.29 199.18 284.25 198.89C284.21 198.6 284.18 198.44 284.18 198.44Z" fill="#455A64"/>
<path d="M266.22 365.68C266.22 365.68 266.22 365.53 266.17 365.25L266 364C265.81 362.89 265.54 361.27 265.18 359.19C264.45 355 263.39 348.96 262.08 341.51L251.7 283.19C251.393 281.802 251.309 280.374 251.45 278.96C251.63 277.56 251.86 276.15 252.07 274.76C252.503 271.98 252.927 269.24 253.34 266.54C254.19 261.15 255.02 255.96 255.85 251.02C257.49 241.13 259.08 232.25 260.5 224.8C261.92 217.35 263.16 211.35 264.11 207.22C264.56 205.15 264.97 203.55 265.22 202.47C265.34 201.94 265.43 201.47 265.5 201.23C265.57 200.99 265.59 200.81 265.59 200.81C265.59 200.81 265.54 200.94 265.46 201.22C265.38 201.5 265.28 201.92 265.14 202.45C264.86 203.53 264.43 205.12 263.96 207.18C262.96 211.31 261.67 217.31 260.21 224.75C258.75 232.19 257.14 241.07 255.48 250.95C254.64 255.9 253.8 261.09 252.94 266.48C252.52 269.17 252.1 271.92 251.66 274.7C251.46 276.1 251.23 277.48 251.04 278.92C250.902 280.375 250.99 281.842 251.3 283.27C255.4 306.02 259.11 326.63 261.8 341.56C263.16 349 264.26 355.03 265.02 359.22L265.92 364.02C266.03 364.55 266.11 364.97 266.17 365.26C266.23 365.55 266.22 365.68 266.22 365.68Z" fill="#455A64"/>
<path d="M275.08 223.24C274.97 223.24 276.36 232.63 278.19 244.16C280.02 255.69 281.59 265 281.7 265C281.81 265 280.42 255.61 278.59 244.08C276.76 232.55 275.19 223.22 275.08 223.24Z" fill="#455A64"/>
<path d="M298.352 369C298.603 369.07 298.861 369.114 299.122 369.13C299.622 369.19 300.352 369.26 301.242 369.33C303.032 369.47 305.512 369.6 308.242 369.65C310.972 369.7 313.462 369.65 315.242 369.56C316.142 369.56 316.872 369.48 317.372 369.43C317.632 369.433 317.892 369.396 318.142 369.32C317.177 369.239 316.208 369.223 315.242 369.27C313.442 369.27 310.972 369.27 308.242 369.27C305.512 369.27 303.032 369.13 301.242 369.07C300.281 368.981 299.315 368.958 298.352 369Z" fill="#455A64"/>
<path d="M260.27 366.45C260.604 366.471 260.939 366.454 261.27 366.4L263.98 366.12C266.27 365.85 269.42 365.47 272.9 365.01C276.38 364.55 279.52 364.13 281.79 363.8L284.49 363.39C284.829 363.361 285.165 363.294 285.49 363.19C285.157 363.155 284.822 363.155 284.49 363.19L281.78 363.47C279.49 363.73 276.34 364.12 272.86 364.57C269.38 365.02 266.24 365.45 263.96 365.79L261.27 366.2C260.928 366.248 260.593 366.331 260.27 366.45Z" fill="#455A64"/>
<path d="M109 50.4202C109 50.4202 122.22 45.2602 131.25 47.8402C140.28 50.4202 143 56.0002 149.77 55.5502C155.15 55.1702 158.96 52.8402 160.9 47.1202C162.84 41.4002 162.84 34.2602 181.21 34.9402C195.27 35.4602 196.69 37.5202 196.69 37.5202L198.2 74.9302C190.2 73.6702 182.1 72.7602 173.37 73.9902C171.238 74.4514 169.303 75.5664 167.835 77.1797C166.367 78.793 165.439 80.8242 165.18 82.9902C164.18 90.9902 155.95 94.0902 151.03 94.0902C144.03 94.0902 140.43 89.3302 134.46 87.9502C125.09 85.7802 109 92.3402 109 92.3402V50.4202Z" fill="#136BFB"/>
<path d="M203.92 128.63L195.84 128.06L196.05 140.74L204.72 147.07L205.6 146.75L206.1 132.33L203.92 128.63Z" fill="#EB996E"/>
<path d="M159.51 79.25C159.37 79.25 159.13 73.05 158.98 65.4C158.83 57.75 158.83 51.54 158.98 51.54C159.13 51.54 159.36 57.73 159.51 65.39C159.66 73.05 159.65 79.24 159.51 79.25Z" fill="#263238"/>
<path d="M144.709 63C144.859 63 144.969 69.41 144.969 77.3C144.969 85.19 144.859 91.61 144.709 91.61C144.559 91.61 144.449 85.2 144.449 77.3C144.449 69.4 144.569 63 144.709 63Z" fill="#263238"/>
<g opacity="0.2">
<path d="M144.712 85.3C144.612 88.17 144.712 91.98 144.712 91.98C146.812 93.38 151.142 94.23 153.552 93.48H153.622C155.215 92.9698 156.65 92.0576 157.789 90.8316C158.927 89.6055 159.731 88.1068 160.122 86.48C160.418 85.3959 160.546 84.2729 160.502 83.15C159.702 73.64 158.672 61.79 158.972 52.25C156.98 53.9338 154.605 55.1019 152.055 55.6512C149.505 56.2006 146.86 56.1143 144.352 55.4L144.712 85.3Z" fill="black"/>
</g>
<g opacity="0.6">
<path d="M143.389 56.7203C142.956 56.5283 142.544 56.2938 142.159 56.0203L138.889 54.0203C135.359 51.7199 131.448 50.0674 127.339 49.1403C123.196 48.3789 118.931 48.6328 114.909 49.8803C113.259 50.4643 111.64 51.1318 110.059 51.8803C110.435 51.5919 110.837 51.3375 111.259 51.1203C112.393 50.5027 113.577 49.9809 114.799 49.5603C118.865 48.1824 123.218 47.8725 127.439 48.6603C131.61 49.5912 135.564 51.3122 139.089 53.7303C140.459 54.6103 141.529 55.3703 142.269 55.9003C142.667 56.1372 143.042 56.4118 143.389 56.7203Z" fill="white"/>
</g>
<g opacity="0.6">
<path d="M175.881 37.6203C175.881 37.7103 174.881 37.6203 173.321 37.7803C171.289 38.0189 169.347 38.7552 167.667 39.9239C165.987 41.0926 164.622 42.6576 163.691 44.4803C162.971 45.8803 162.751 46.8503 162.691 46.8203C162.748 45.9474 162.987 45.0959 163.391 44.3203C164.265 42.377 165.651 40.7076 167.4 39.4905C169.149 38.2735 171.196 37.5545 173.321 37.4103C174.18 37.3052 175.051 37.3767 175.881 37.6203Z" fill="white"/>
</g>
<path d="M197.4 33.6802L208.07 330.12L206.23 330.56L195.27 33.8202L197.4 33.6802Z" fill="#263238"/>
<path d="M217.132 145.41L213.132 131.02L198.912 121.02C198.912 121.02 197.252 122.02 199.792 125.77L202.982 130.17C202.982 130.17 202.882 135.9 205.612 139.26L204.732 147.02L217.132 145.41Z" fill="#FFBE9D"/>
<path d="M195.809 130.68C197.356 131.685 198.711 132.959 199.809 134.44C200.022 134.861 200.126 135.329 200.109 135.8C200.121 136.003 200.074 136.205 199.975 136.382C199.875 136.559 199.728 136.704 199.549 136.8C199.4 136.86 199.239 136.884 199.078 136.868C198.918 136.852 198.764 136.798 198.629 136.71C198.352 136.543 198.103 136.334 197.889 136.09L195.149 133.26C194.686 132.845 194.356 132.303 194.199 131.7C194.196 131.513 194.24 131.329 194.328 131.164C194.417 130.999 194.546 130.86 194.704 130.76C194.861 130.659 195.042 130.601 195.229 130.591C195.415 130.58 195.602 130.618 195.769 130.7" fill="#FFBE9D"/>
<path d="M195.789 134.35C197.331 135.36 198.685 136.633 199.789 138.11C200 138.531 200.103 138.999 200.089 139.47C200.1 139.673 200.053 139.874 199.954 140.051C199.855 140.228 199.707 140.374 199.529 140.47C199.377 140.524 199.214 140.544 199.054 140.529C198.893 140.513 198.738 140.462 198.599 140.38C198.325 140.213 198.078 140.003 197.869 139.76L195.159 137C194.701 136.582 194.375 136.04 194.219 135.44C194.218 135.254 194.264 135.071 194.353 134.908C194.442 134.745 194.571 134.607 194.728 134.507C194.885 134.407 195.064 134.348 195.25 134.337C195.435 134.325 195.621 134.361 195.789 134.44" fill="#FFBE9D"/>
<path d="M196.38 138.35C197.927 139.355 199.281 140.628 200.38 142.11C200.597 142.529 200.701 142.998 200.68 143.47C200.691 143.672 200.645 143.872 200.548 144.049C200.45 144.226 200.306 144.372 200.13 144.47C199.978 144.527 199.816 144.549 199.654 144.533C199.493 144.518 199.338 144.465 199.2 144.38C198.924 144.211 198.675 144.002 198.46 143.76L195.72 140.93C195.263 140.51 194.934 139.969 194.77 139.37C194.766 139.183 194.811 138.999 194.899 138.834C194.987 138.669 195.116 138.53 195.274 138.429C195.432 138.329 195.612 138.271 195.799 138.26C195.986 138.25 196.172 138.288 196.34 138.37" fill="#FFBE9D"/>
<path d="M196.459 128.15C197.085 128.433 197.65 128.838 198.119 129.34C198.359 129.607 198.518 129.937 198.578 130.291C198.638 130.645 198.597 131.009 198.459 131.34C198.402 131.469 198.313 131.581 198.202 131.667C198.09 131.752 197.958 131.809 197.819 131.83C197.623 131.839 197.428 131.791 197.259 131.69C196.87 131.511 196.504 131.286 196.169 131.02C195.839 130.712 195.534 130.378 195.259 130.02C195.069 129.873 194.939 129.663 194.891 129.428C194.843 129.193 194.882 128.949 194.999 128.74C195.209 128.26 195.419 127.98 196.459 128.1" fill="#FFBE9D"/>
<path d="M216.302 138.22L237.892 157.61L230.872 173.09L206.102 146.66L216.302 138.22Z" fill="#FFBE9D"/>
<path d="M215.438 137.38L234.648 152C234.648 152 252.518 121.52 254.098 119.63C255.678 117.74 259.688 115.71 259.688 115.71L257.468 154.78C257.468 154.78 247.808 179.45 234.538 178.11C224.378 177.11 206.828 150.29 206.828 150.29L215.438 137.38Z" fill="#136BFB"/>
<g opacity="0.2">
<path d="M234.291 151.52C232.975 153.574 232.12 155.89 231.785 158.307C231.45 160.724 231.643 163.185 232.352 165.52C232.451 166.015 232.728 166.456 233.132 166.76C233.474 166.91 233.86 166.928 234.215 166.809C234.569 166.691 234.867 166.445 235.052 166.12C235.395 165.453 235.567 164.71 235.552 163.96C235.868 164.683 236.351 165.32 236.962 165.82C237.278 166.056 237.666 166.177 238.061 166.163C238.455 166.148 238.833 165.999 239.132 165.74C239.772 165.04 239.411 163.93 239.031 163.06C237.391 159.353 235.755 155.647 234.121 151.94" fill="black"/>
</g>
<path d="M220.269 141.75C218.953 144.293 217.484 146.755 215.869 149.12C214.402 151.577 212.789 153.945 211.039 156.21C212.351 153.664 213.82 151.203 215.439 148.84C216.905 146.382 218.518 144.014 220.269 141.75Z" fill="#263238"/>
<path d="M215.381 141.22C215.381 141.17 215.581 140.92 216.021 141.08C216.149 141.13 216.262 141.211 216.351 141.316C216.44 141.421 216.502 141.546 216.531 141.68C216.554 141.858 216.522 142.04 216.44 142.199C216.357 142.359 216.228 142.49 216.069 142.573C215.91 142.657 215.729 142.69 215.55 142.668C215.372 142.646 215.204 142.57 215.071 142.45C214.977 142.35 214.91 142.228 214.875 142.095C214.84 141.963 214.839 141.823 214.871 141.69C214.981 141.23 215.331 141.17 215.341 141.24C215.351 141.31 215.221 141.45 215.241 141.73C215.261 142.01 215.481 142.29 215.821 142.11C215.886 142.078 215.941 142.028 215.98 141.966C216.018 141.904 216.039 141.833 216.039 141.76C216.039 141.687 216.018 141.616 215.98 141.554C215.941 141.492 215.886 141.442 215.821 141.41C215.631 141.24 215.421 141.28 215.381 141.22Z" fill="#263238"/>
<path d="M234.669 161.24C233.556 158.269 233.507 155.004 234.529 152C234.679 152 234.269 154.08 234.319 156.63C234.369 159.18 234.819 161.2 234.669 161.24Z" fill="#263238"/>
<path d="M238.39 161.11C236.431 158.414 235.096 155.316 234.48 152.04C235.201 153.523 235.845 155.042 236.41 156.59C237.48 159.08 238.52 161 238.39 161.11Z" fill="#263238"/>
<path d="M299.881 112L297.001 106.23H276.001L272.701 112.75L259.701 115.69L254.111 199.37C254.083 200.418 254.339 201.455 254.851 202.37L305.851 204.37L307.921 205.22C309.751 204.09 308.611 199.43 308.631 197.22L309.291 155.78L319.381 122.66L299.881 112Z" fill="#136BFB"/>
<g opacity="0.2">
<path d="M278.109 114.87L281.819 111.16L285.999 121.22C290.798 118.4 295.366 115.203 299.659 111.66L285.529 116.19C284.329 113.03 283.136 109.863 281.949 106.69C281.105 109.569 279.909 112.333 278.389 114.92" fill="black"/>
</g>
<path d="M337.31 216.9L323.56 217.61V178.15L309.34 155.79L319.43 122.67C321.51 123.49 337.18 162.83 341.17 173.52C341.749 175.058 342.001 176.7 341.91 178.34L337.31 216.9Z" fill="#136BFB"/>
<path d="M259.69 133C259.84 133 259.15 141.11 258.17 151.07C257.19 161.03 256.27 169.07 256.17 169.07C256.07 169.07 256.71 160.96 257.69 150.99C258.67 141.02 259.55 132.94 259.69 133Z" fill="#263238"/>
<path d="M281.931 106.71C281.259 109.01 280.423 111.259 279.431 113.44L279.151 114.12C279.056 114.384 278.898 114.621 278.691 114.81C278.562 114.91 278.407 114.97 278.245 114.98C278.083 114.991 277.921 114.952 277.781 114.87C277.541 114.75 277.371 114.62 277.191 114.51L275.301 113.23C274.696 112.871 274.138 112.437 273.641 111.94C274.298 112.199 274.922 112.535 275.501 112.94L277.451 114.12C277.821 114.36 278.201 114.63 278.371 114.43C278.627 114.074 278.823 113.679 278.951 113.26C279.781 111.006 280.777 108.817 281.931 106.71Z" fill="#263238"/>
<path d="M298.631 111.84C297.597 112.355 296.524 112.786 295.421 113.13C293.421 113.87 290.641 114.85 287.561 115.9L285.881 116.47L285.651 116.55L285.561 116.33C284.481 113.71 283.561 111.39 282.891 109.71C282.497 108.832 282.18 107.922 281.941 106.99C282.43 107.82 282.855 108.686 283.211 109.58C283.941 111.22 284.931 113.52 286.041 116.13L285.711 115.99L287.391 115.41C290.471 114.41 293.271 113.41 295.301 112.78C296.387 112.385 297.5 112.071 298.631 111.84Z" fill="#263238"/>
<path d="M317.241 123.86C317.241 124.01 314.331 124.86 310.901 126.34C307.471 127.82 304.901 129.52 304.801 129.34C305.269 128.855 305.808 128.443 306.401 128.12C309.144 126.378 312.13 125.05 315.261 124.18C315.9 123.972 316.568 123.864 317.241 123.86Z" fill="#263238"/>
<path d="M281.93 106.71C281.942 106.793 281.942 106.877 281.93 106.96C281.93 107.16 281.93 107.4 281.93 107.7C281.93 108.35 281.99 109.3 282 110.53C282 112.98 282 116.53 281.84 120.92C281.53 129.7 280.43 141.8 278.68 155.07C277.83 161.72 276.89 168.07 276.26 173.79C275.657 178.887 275.376 184.017 275.42 189.15C275.462 192.608 275.736 196.059 276.24 199.48C276.39 200.7 276.58 201.63 276.68 202.27C276.68 202.56 276.76 202.8 276.79 203C276.801 203.083 276.801 203.167 276.79 203.25C276.756 203.173 276.733 203.093 276.72 203.01C276.67 202.81 276.62 202.58 276.55 202.29C276.43 201.66 276.2 200.73 276.02 199.51C275.43 196.086 275.096 192.623 275.02 189.15C274.916 184.003 275.156 178.855 275.74 173.74C276.35 167.96 277.27 161.65 278.12 155.01C279.87 141.74 281.02 129.67 281.43 120.91C281.65 116.53 281.72 112.98 281.76 110.53C281.76 109.33 281.76 108.39 281.76 107.7C281.76 107.4 281.76 107.16 281.76 106.97C281.801 106.874 281.858 106.786 281.93 106.71Z" fill="#263238"/>
<path d="M338.062 210.86C335.632 210.999 333.196 210.965 330.772 210.76C328.34 210.73 325.914 210.526 323.512 210.15C325.937 210.005 328.37 210.035 330.792 210.24C333.227 210.278 335.656 210.485 338.062 210.86Z" fill="#263238"/>
<path d="M325.859 212.4C325.859 212.4 325.859 212.59 325.859 212.77C325.859 212.95 326.079 213.06 326.259 212.91C326.439 212.76 326.379 212.61 326.209 212.49C326.039 212.37 325.899 212.42 325.849 212.37C325.799 212.32 325.939 212.08 326.319 212.14C326.428 212.157 326.532 212.202 326.619 212.27C326.707 212.339 326.775 212.428 326.819 212.53C326.866 212.67 326.869 212.82 326.828 212.962C326.787 213.103 326.704 213.229 326.59 213.321C326.475 213.414 326.335 213.469 326.188 213.48C326.042 213.49 325.895 213.456 325.769 213.38C325.679 213.313 325.607 213.225 325.558 213.125C325.509 213.024 325.485 212.912 325.489 212.8C325.559 212.42 325.829 212.33 325.859 212.4Z" fill="#263238"/>
<g opacity="0.2">
<path d="M309.512 155.68C308.012 152.98 306.518 150.28 305.032 147.58C303.262 161.87 304.281 176.368 308.032 190.27C308.498 178.797 308.962 167.327 309.422 155.86" fill="black"/>
</g>
<g opacity="0.2">
<path d="M246.922 131.24C248.273 133.166 250.22 134.593 252.463 135.301C254.706 136.01 257.12 135.96 259.332 135.16C259.658 135.661 260.103 136.074 260.625 136.363C261.148 136.653 261.734 136.809 262.332 136.82C263.516 136.837 264.69 136.609 265.782 136.15C269.972 134.555 273.696 131.939 276.618 128.539C279.54 125.138 281.566 121.062 282.512 116.68C276.042 118.95 271.682 125.22 265.332 127.82C262.835 128.863 260.116 129.264 257.424 128.987C254.733 128.709 252.153 127.761 249.922 126.23L246.922 131.24Z" fill="black"/>
</g>
<path d="M286.749 140.81C287.017 140.762 287.288 140.742 287.559 140.75L289.949 140.69C292.029 140.69 295.019 140.6 298.629 140.58H298.869V140.82C298.629 143.98 298.369 147.64 298.079 151.54V151.68L297.949 151.75L297.419 152.03L291.609 155.09L291.459 155.16L291.329 155.06L285.939 150.65L285.859 150.58V150.47C286.119 147.57 286.329 145.16 286.479 143.37C286.559 142.6 286.619 141.96 286.679 141.45C286.686 141.234 286.716 141.019 286.769 140.81C286.788 141.053 286.788 141.297 286.769 141.54C286.769 142.06 286.709 142.72 286.679 143.54C286.579 145.3 286.449 147.68 286.289 150.54L286.209 150.36L291.649 154.71H291.379L297.169 151.64L297.709 151.36L297.569 151.57L298.419 140.86L298.649 141.1C295.139 141.1 292.199 141.03 290.109 140.99L287.669 140.93C287.36 140.91 287.053 140.87 286.749 140.81Z" fill="#263238"/>
<path d="M298.312 145.61C294.35 145.884 290.371 145.81 286.422 145.39C288.397 145.164 290.388 145.114 292.372 145.24C294.359 145.192 296.346 145.315 298.312 145.61Z" fill="#FAFAFA"/>
<path d="M298.22 147.67C296.228 147.899 294.22 147.949 292.22 147.82C290.229 147.874 288.238 147.75 286.27 147.45C288.262 147.228 290.269 147.178 292.27 147.3C294.26 147.252 296.251 147.376 298.22 147.67Z" fill="#FAFAFA"/>
<path d="M261.521 202.82C261.521 202.96 260.451 202.82 259.761 201.73C259.071 200.64 259.281 199.64 259.421 199.73C259.561 199.82 259.601 200.63 260.191 201.48C260.781 202.33 261.571 202.68 261.521 202.82Z" fill="#263238"/>
<path d="M262.849 202.26C262.075 201.695 261.558 200.847 261.409 199.9C261.248 199.452 261.179 198.976 261.204 198.5C261.23 198.025 261.351 197.559 261.559 197.13C261.709 197.13 261.559 198.36 261.919 199.77C262.279 201.18 262.999 202.17 262.849 202.26Z" fill="#263238"/>
<path d="M301.358 196.51C301.457 197.959 301.184 199.409 300.567 200.723C299.949 202.037 299.006 203.172 297.828 204.02C298.67 202.904 299.428 201.727 300.098 200.5C300.615 199.203 301.036 197.869 301.358 196.51Z" fill="#263238"/>
<path d="M280.39 110.98H283.15L284.33 113.03L283.17 116.23L280.42 115.92L279.34 113.61L280.39 110.98Z" fill="#455A64"/>
<path d="M280.419 115.92C280.419 115.92 263.819 126.61 255.339 122.34C246.859 118.07 236.339 112.84 226.869 114.09C221.329 114.766 215.962 116.461 211.039 119.09L208.039 126.3L215.709 129.06C215.709 129.06 226.889 123.66 235.019 125.11C240.699 126.11 251.609 131.91 258.959 131.36C266.309 130.81 276.459 125.58 283.139 116.19L280.419 115.92Z" fill="#455A64"/>
<path d="M282.432 117.11C282.046 117.01 281.681 116.844 281.352 116.62C280.983 116.45 280.645 116.221 280.352 115.94C280.742 116.04 281.111 116.209 281.442 116.44C281.808 116.603 282.144 116.83 282.432 117.11Z" fill="#263238"/>
<path d="M284.07 112.67C283.506 113.279 282.89 113.837 282.23 114.34C281.608 114.899 280.939 115.405 280.23 115.85C280.795 115.242 281.411 114.683 282.07 114.18C282.693 113.621 283.362 113.116 284.07 112.67Z" fill="#263238"/>
<path d="M282.9 113.72C281.81 113.025 280.907 112.074 280.27 110.95C280.32 110.95 280.84 111.59 281.56 112.35C282.28 113.11 282.93 113.67 282.9 113.72Z" fill="#263238"/>
<path d="M269.189 128.18C269.031 127.91 268.906 127.621 268.819 127.32C268.609 126.78 268.339 126.03 268.059 125.2C267.779 124.37 267.529 123.61 267.359 123.06C267.257 122.764 267.18 122.46 267.129 122.15C267.285 122.422 267.409 122.71 267.499 123.01C267.709 123.55 267.979 124.3 268.259 125.13C268.539 125.96 268.789 126.72 268.949 127.27C269.057 127.566 269.137 127.87 269.189 128.18Z" fill="#FAFAFA"/>
<path d="M273.34 125.69C272.775 124.968 272.267 124.202 271.82 123.4C271.316 122.633 270.869 121.831 270.48 121C271.552 122.488 272.509 124.056 273.34 125.69Z" fill="#FAFAFA"/>
<path d="M277.099 122.77C276.484 122.317 275.915 121.804 275.399 121.24C274.833 120.728 274.317 120.162 273.859 119.55C275.03 120.528 276.114 121.605 277.099 122.77Z" fill="#FAFAFA"/>
<path d="M280.211 119.71C279.749 119.449 279.319 119.133 278.931 118.77C278.504 118.452 278.118 118.083 277.781 117.67C278.251 117.921 278.682 118.237 279.061 118.61C279.496 118.919 279.884 119.29 280.211 119.71Z" fill="#FAFAFA"/>
<path d="M263.282 130.75C263.118 129.55 263.022 128.341 262.992 127.13C262.889 125.923 262.859 124.711 262.902 123.5C263.071 124.7 263.172 125.909 263.202 127.12C263.298 128.327 263.325 129.539 263.282 130.75Z" fill="#FAFAFA"/>
<path d="M257.59 131.64C257.59 131.64 257.74 129.78 258.05 127.5C258.36 125.22 258.66 123.37 258.71 123.38C258.633 124.767 258.483 126.149 258.26 127.52C258.11 128.905 257.886 130.28 257.59 131.64Z" fill="#FAFAFA"/>
<path d="M254.231 121.69C254.281 121.69 253.751 123.69 253.031 126.15C252.311 128.61 251.701 130.56 251.641 130.55C251.581 130.54 252.121 128.55 252.831 126.09C253.541 123.63 254.171 121.68 254.231 121.69Z" fill="#FAFAFA"/>
<path d="M250.358 119.87C250.418 119.87 249.778 121.94 248.948 124.44C248.118 126.94 247.388 128.97 247.328 128.95C247.268 128.93 247.908 126.89 248.748 124.38C249.588 121.87 250.308 119.85 250.358 119.87Z" fill="#FAFAFA"/>
<path d="M244.771 117.25C244.771 117.25 244.261 119.49 243.521 122.25C242.781 125.01 242.131 127.17 242.081 127.16C242.031 127.15 242.581 124.92 243.321 122.16C244.061 119.4 244.711 117.24 244.771 117.25Z" fill="#FAFAFA"/>
<path d="M238.779 115.62C238.839 115.62 238.399 117.83 237.779 120.53C237.159 123.23 236.659 125.41 236.599 125.39C236.539 125.37 236.979 123.18 237.599 120.49C238.219 117.8 238.729 115.61 238.779 115.62Z" fill="#FAFAFA"/>
<path d="M232.741 114.58C232.801 114.58 232.871 116.91 232.891 119.79C232.911 122.67 232.891 125.02 232.831 125.02C232.771 125.02 232.711 122.68 232.691 119.8C232.671 116.92 232.691 114.58 232.741 114.58Z" fill="#FAFAFA"/>
<path d="M227.891 125.22C227.841 125.083 227.801 124.943 227.771 124.8C227.691 124.41 227.611 124.02 227.521 123.62C227.321 122.62 227.081 121.25 226.861 119.72C226.641 118.19 226.471 116.8 226.381 115.79C226.381 115.39 226.311 115 226.281 114.6C226.255 114.455 226.255 114.306 226.281 114.16C226.322 114.301 226.348 114.445 226.361 114.59C226.361 114.98 226.471 115.38 226.521 115.78C226.701 117.03 226.871 118.3 227.061 119.69C227.251 121.08 227.471 122.35 227.671 123.6L227.851 124.78C227.887 124.924 227.9 125.072 227.891 125.22Z" fill="#FAFAFA"/>
<path d="M222.521 126.33C222.471 126.33 221.651 124.02 220.691 121.15C219.731 118.28 219.011 115.92 219.061 115.9C219.111 115.88 219.941 118.2 220.891 121.08C221.841 123.96 222.581 126.31 222.521 126.33Z" fill="#FAFAFA"/>
<path d="M217.649 128.05C217.599 128.05 216.529 125.93 215.259 123.25C213.989 120.57 212.999 118.39 213.049 118.36C213.099 118.33 214.179 120.49 215.449 123.16C216.719 125.83 217.699 128 217.649 128.05Z" fill="#FAFAFA"/>
<path d="M211.331 127.49C210.84 126.938 210.442 126.31 210.151 125.63C209.793 124.985 209.553 124.28 209.441 123.55C209.501 123.55 209.811 124.46 210.331 125.55C210.851 126.64 211.381 127.45 211.331 127.49Z" fill="#FAFAFA"/>
</svg>
